G75*
%MOIN*%
%OFA0B0*%
%FSLAX25Y25*%
%IPPOS*%
%LPD*%
%AMOC8*
5,1,8,0,0,1.08239X$1,22.5*
%
%ADD10C,0.00000*%
%ADD11OC8,0.04600*%
%ADD12C,0.04600*%
%ADD13OC8,0.04800*%
%ADD14C,0.07600*%
%ADD15C,0.06000*%
%ADD16C,0.06600*%
%ADD17C,0.13000*%
%ADD18OC8,0.07000*%
%ADD19OC8,0.06600*%
%ADD20C,0.04800*%
%ADD21C,0.07400*%
%ADD22C,0.05850*%
%ADD23R,0.06000X0.06000*%
%ADD24R,0.04724X0.04724*%
%ADD25C,0.02400*%
%ADD26C,0.01000*%
%ADD27C,0.12268*%
D10*
X0032345Y0001500D02*
X0390613Y0001500D01*
X0390994Y0001505D01*
X0391374Y0001518D01*
X0391754Y0001541D01*
X0392133Y0001574D01*
X0392511Y0001615D01*
X0392888Y0001665D01*
X0393264Y0001725D01*
X0393639Y0001793D01*
X0394011Y0001871D01*
X0394382Y0001958D01*
X0394750Y0002053D01*
X0395116Y0002158D01*
X0395479Y0002271D01*
X0395840Y0002393D01*
X0396197Y0002523D01*
X0396551Y0002663D01*
X0396902Y0002810D01*
X0397249Y0002967D01*
X0397592Y0003131D01*
X0397931Y0003304D01*
X0398266Y0003485D01*
X0398597Y0003674D01*
X0398922Y0003871D01*
X0399243Y0004075D01*
X0399559Y0004288D01*
X0399869Y0004508D01*
X0400175Y0004735D01*
X0400474Y0004970D01*
X0400768Y0005212D01*
X0401056Y0005460D01*
X0401338Y0005716D01*
X0401613Y0005979D01*
X0401882Y0006248D01*
X0402145Y0006523D01*
X0402401Y0006805D01*
X0402649Y0007093D01*
X0402891Y0007387D01*
X0403126Y0007686D01*
X0403353Y0007992D01*
X0403573Y0008302D01*
X0403786Y0008618D01*
X0403990Y0008939D01*
X0404187Y0009264D01*
X0404376Y0009595D01*
X0404557Y0009930D01*
X0404730Y0010269D01*
X0404894Y0010612D01*
X0405051Y0010959D01*
X0405198Y0011310D01*
X0405338Y0011664D01*
X0405468Y0012021D01*
X0405590Y0012382D01*
X0405703Y0012745D01*
X0405808Y0013111D01*
X0405903Y0013479D01*
X0405990Y0013850D01*
X0406068Y0014222D01*
X0406136Y0014597D01*
X0406196Y0014973D01*
X0406246Y0015350D01*
X0406287Y0015728D01*
X0406320Y0016107D01*
X0406343Y0016487D01*
X0406356Y0016867D01*
X0406361Y0017248D01*
X0406361Y0166854D01*
X0406356Y0167235D01*
X0406343Y0167615D01*
X0406320Y0167995D01*
X0406287Y0168374D01*
X0406246Y0168752D01*
X0406196Y0169129D01*
X0406136Y0169505D01*
X0406068Y0169880D01*
X0405990Y0170252D01*
X0405903Y0170623D01*
X0405808Y0170991D01*
X0405703Y0171357D01*
X0405590Y0171720D01*
X0405468Y0172081D01*
X0405338Y0172438D01*
X0405198Y0172792D01*
X0405051Y0173143D01*
X0404894Y0173490D01*
X0404730Y0173833D01*
X0404557Y0174172D01*
X0404376Y0174507D01*
X0404187Y0174838D01*
X0403990Y0175163D01*
X0403786Y0175484D01*
X0403573Y0175800D01*
X0403353Y0176110D01*
X0403126Y0176416D01*
X0402891Y0176715D01*
X0402649Y0177009D01*
X0402401Y0177297D01*
X0402145Y0177579D01*
X0401882Y0177854D01*
X0401613Y0178123D01*
X0401338Y0178386D01*
X0401056Y0178642D01*
X0400768Y0178890D01*
X0400474Y0179132D01*
X0400175Y0179367D01*
X0399869Y0179594D01*
X0399559Y0179814D01*
X0399243Y0180027D01*
X0398922Y0180231D01*
X0398597Y0180428D01*
X0398266Y0180617D01*
X0397931Y0180798D01*
X0397592Y0180971D01*
X0397249Y0181135D01*
X0396902Y0181292D01*
X0396551Y0181439D01*
X0396197Y0181579D01*
X0395840Y0181709D01*
X0395479Y0181831D01*
X0395116Y0181944D01*
X0394750Y0182049D01*
X0394382Y0182144D01*
X0394011Y0182231D01*
X0393639Y0182309D01*
X0393264Y0182377D01*
X0392888Y0182437D01*
X0392511Y0182487D01*
X0392133Y0182528D01*
X0391754Y0182561D01*
X0391374Y0182584D01*
X0390994Y0182597D01*
X0390613Y0182602D01*
X0032345Y0182602D01*
X0031964Y0182597D01*
X0031584Y0182584D01*
X0031204Y0182561D01*
X0030825Y0182528D01*
X0030447Y0182487D01*
X0030070Y0182437D01*
X0029694Y0182377D01*
X0029319Y0182309D01*
X0028947Y0182231D01*
X0028576Y0182144D01*
X0028208Y0182049D01*
X0027842Y0181944D01*
X0027479Y0181831D01*
X0027118Y0181709D01*
X0026761Y0181579D01*
X0026407Y0181439D01*
X0026056Y0181292D01*
X0025709Y0181135D01*
X0025366Y0180971D01*
X0025027Y0180798D01*
X0024692Y0180617D01*
X0024361Y0180428D01*
X0024036Y0180231D01*
X0023715Y0180027D01*
X0023399Y0179814D01*
X0023089Y0179594D01*
X0022783Y0179367D01*
X0022484Y0179132D01*
X0022190Y0178890D01*
X0021902Y0178642D01*
X0021620Y0178386D01*
X0021345Y0178123D01*
X0021076Y0177854D01*
X0020813Y0177579D01*
X0020557Y0177297D01*
X0020309Y0177009D01*
X0020067Y0176715D01*
X0019832Y0176416D01*
X0019605Y0176110D01*
X0019385Y0175800D01*
X0019172Y0175484D01*
X0018968Y0175163D01*
X0018771Y0174838D01*
X0018582Y0174507D01*
X0018401Y0174172D01*
X0018228Y0173833D01*
X0018064Y0173490D01*
X0017907Y0173143D01*
X0017760Y0172792D01*
X0017620Y0172438D01*
X0017490Y0172081D01*
X0017368Y0171720D01*
X0017255Y0171357D01*
X0017150Y0170991D01*
X0017055Y0170623D01*
X0016968Y0170252D01*
X0016890Y0169880D01*
X0016822Y0169505D01*
X0016762Y0169129D01*
X0016712Y0168752D01*
X0016671Y0168374D01*
X0016638Y0167995D01*
X0016615Y0167615D01*
X0016602Y0167235D01*
X0016597Y0166854D01*
X0016597Y0017248D01*
X0016602Y0016867D01*
X0016615Y0016487D01*
X0016638Y0016107D01*
X0016671Y0015728D01*
X0016712Y0015350D01*
X0016762Y0014973D01*
X0016822Y0014597D01*
X0016890Y0014222D01*
X0016968Y0013850D01*
X0017055Y0013479D01*
X0017150Y0013111D01*
X0017255Y0012745D01*
X0017368Y0012382D01*
X0017490Y0012021D01*
X0017620Y0011664D01*
X0017760Y0011310D01*
X0017907Y0010959D01*
X0018064Y0010612D01*
X0018228Y0010269D01*
X0018401Y0009930D01*
X0018582Y0009595D01*
X0018771Y0009264D01*
X0018968Y0008939D01*
X0019172Y0008618D01*
X0019385Y0008302D01*
X0019605Y0007992D01*
X0019832Y0007686D01*
X0020067Y0007387D01*
X0020309Y0007093D01*
X0020557Y0006805D01*
X0020813Y0006523D01*
X0021076Y0006248D01*
X0021345Y0005979D01*
X0021620Y0005716D01*
X0021902Y0005460D01*
X0022190Y0005212D01*
X0022484Y0004970D01*
X0022783Y0004735D01*
X0023089Y0004508D01*
X0023399Y0004288D01*
X0023715Y0004075D01*
X0024036Y0003871D01*
X0024361Y0003674D01*
X0024692Y0003485D01*
X0025027Y0003304D01*
X0025366Y0003131D01*
X0025709Y0002967D01*
X0026056Y0002810D01*
X0026407Y0002663D01*
X0026761Y0002523D01*
X0027118Y0002393D01*
X0027479Y0002271D01*
X0027842Y0002158D01*
X0028208Y0002053D01*
X0028576Y0001958D01*
X0028947Y0001871D01*
X0029319Y0001793D01*
X0029694Y0001725D01*
X0030070Y0001665D01*
X0030447Y0001615D01*
X0030825Y0001574D01*
X0031204Y0001541D01*
X0031584Y0001518D01*
X0031964Y0001505D01*
X0032345Y0001500D01*
D11*
X0050613Y0045984D03*
X0059113Y0137484D03*
D12*
X0052113Y0137484D03*
X0050613Y0038984D03*
D13*
X0090613Y0142484D03*
X0110613Y0142484D03*
X0186518Y0143232D03*
X0206518Y0143232D03*
X0206518Y0158980D03*
X0186518Y0158980D03*
D14*
X0346361Y0148154D03*
X0386361Y0148154D03*
X0382935Y0072484D03*
X0382935Y0032484D03*
D15*
X0383644Y0164681D02*
X0383644Y0170681D01*
X0373644Y0170681D02*
X0373644Y0164681D01*
X0363644Y0164681D02*
X0363644Y0170681D01*
D16*
X0058413Y0097406D03*
X0050613Y0097406D03*
X0050613Y0087563D03*
X0058413Y0087563D03*
D17*
X0039913Y0068784D03*
X0039913Y0116184D03*
D18*
X0065613Y0162484D03*
X0075613Y0162484D03*
X0085613Y0162484D03*
X0105613Y0162484D03*
X0115613Y0162484D03*
X0125613Y0162484D03*
X0135613Y0162484D03*
X0145613Y0162484D03*
X0155613Y0162484D03*
X0235613Y0162484D03*
X0245613Y0162484D03*
X0255613Y0162484D03*
X0265613Y0162484D03*
X0275613Y0162484D03*
X0285613Y0162484D03*
X0285613Y0032484D03*
X0295613Y0032484D03*
X0275613Y0032484D03*
X0265613Y0032484D03*
X0255613Y0032484D03*
X0245613Y0032484D03*
X0235613Y0032484D03*
X0225613Y0032484D03*
X0195613Y0032484D03*
X0185613Y0032484D03*
X0175613Y0032484D03*
X0165613Y0032484D03*
X0155613Y0032484D03*
X0145613Y0032484D03*
X0135613Y0032484D03*
X0125613Y0032484D03*
X0115613Y0032484D03*
X0105613Y0032484D03*
X0085613Y0032484D03*
X0075613Y0032484D03*
X0065613Y0032484D03*
D19*
X0195416Y0088114D03*
X0235416Y0088114D03*
X0310613Y0107484D03*
X0310613Y0117484D03*
X0350613Y0117484D03*
X0350613Y0107484D03*
X0344038Y0082484D03*
X0365613Y0072484D03*
X0384038Y0082484D03*
X0355613Y0057484D03*
X0345613Y0047484D03*
X0315613Y0057484D03*
X0305613Y0047484D03*
X0340613Y0020516D03*
X0365613Y0032484D03*
X0380613Y0020516D03*
X0215613Y0135437D03*
X0215613Y0175437D03*
X0305613Y0167327D03*
X0315613Y0167327D03*
X0315613Y0139768D03*
X0305613Y0139768D03*
X0035613Y0132484D03*
X0035613Y0172484D03*
D20*
X0171597Y0160921D03*
X0171597Y0141921D03*
D21*
X0375613Y0127484D03*
X0375613Y0117484D03*
X0375613Y0107484D03*
X0325613Y0032484D03*
X0315613Y0032484D03*
X0320613Y0024984D03*
D22*
X0295613Y0059559D02*
X0295613Y0065409D01*
X0285613Y0065409D02*
X0285613Y0059559D01*
X0275613Y0059559D02*
X0275613Y0065409D01*
X0265613Y0065409D02*
X0265613Y0059559D01*
X0255613Y0059559D02*
X0255613Y0065409D01*
X0245613Y0065409D02*
X0245613Y0059559D01*
X0235613Y0059559D02*
X0235613Y0065409D01*
X0225613Y0065409D02*
X0225613Y0059559D01*
X0215613Y0059559D02*
X0215613Y0065409D01*
X0205613Y0065409D02*
X0205613Y0059559D01*
X0195613Y0059559D02*
X0195613Y0065409D01*
X0185613Y0065409D02*
X0185613Y0059559D01*
X0175613Y0059559D02*
X0175613Y0065409D01*
X0165613Y0065409D02*
X0165613Y0059559D01*
X0155613Y0059559D02*
X0155613Y0065409D01*
X0145613Y0065409D02*
X0145613Y0059559D01*
X0135613Y0059559D02*
X0135613Y0065409D01*
X0125613Y0065409D02*
X0125613Y0059559D01*
X0115613Y0059559D02*
X0115613Y0065409D01*
X0105613Y0065409D02*
X0105613Y0059559D01*
X0105613Y0119559D02*
X0105613Y0125409D01*
X0115613Y0125409D02*
X0115613Y0119559D01*
X0125613Y0119559D02*
X0125613Y0125409D01*
X0135613Y0125409D02*
X0135613Y0119559D01*
X0145613Y0119559D02*
X0145613Y0125409D01*
X0155613Y0125409D02*
X0155613Y0119559D01*
X0165613Y0119559D02*
X0165613Y0125409D01*
X0175613Y0125409D02*
X0175613Y0119559D01*
X0185613Y0119559D02*
X0185613Y0125409D01*
X0195613Y0125409D02*
X0195613Y0119559D01*
X0205613Y0119559D02*
X0205613Y0125409D01*
X0215613Y0125409D02*
X0215613Y0119559D01*
X0225613Y0119559D02*
X0225613Y0125409D01*
X0235613Y0125409D02*
X0235613Y0119559D01*
X0245613Y0119559D02*
X0245613Y0125409D01*
X0255613Y0125409D02*
X0255613Y0119559D01*
X0265613Y0119559D02*
X0265613Y0125409D01*
X0275613Y0125409D02*
X0275613Y0119559D01*
X0285613Y0119559D02*
X0285613Y0125409D01*
X0295613Y0125409D02*
X0295613Y0119559D01*
D23*
X0315047Y0087634D03*
X0334210Y0087634D03*
D24*
X0265613Y0087484D03*
X0265613Y0110516D03*
X0224628Y0142484D03*
X0224628Y0172484D03*
X0090613Y0122484D03*
X0080613Y0122484D03*
X0070613Y0147484D03*
X0070613Y0092484D03*
X0080613Y0092484D03*
X0090613Y0092484D03*
X0065613Y0057484D03*
X0027581Y0057484D03*
X0091676Y0023469D03*
X0091676Y0007484D03*
D25*
X0091676Y0023469D01*
X0065613Y0057484D02*
X0027581Y0057484D01*
X0070613Y0092484D02*
X0070613Y0147484D01*
X0080613Y0122484D02*
X0080613Y0092484D01*
X0090613Y0092484D02*
X0090613Y0122484D01*
X0224628Y0142484D02*
X0224628Y0172484D01*
X0265613Y0110516D02*
X0265613Y0087484D01*
D26*
X0021517Y0008940D02*
X0019736Y0012025D01*
X0018814Y0015467D01*
X0018697Y0017248D01*
X0018697Y0166854D01*
X0018814Y0168636D01*
X0019736Y0172077D01*
X0021517Y0175163D01*
X0024036Y0177682D01*
X0027122Y0179463D01*
X0030563Y0180386D01*
X0032345Y0180502D01*
X0213041Y0180502D01*
X0210213Y0177674D01*
X0210213Y0173200D01*
X0213376Y0170037D01*
X0217849Y0170037D01*
X0221013Y0173200D01*
X0221013Y0177674D01*
X0218184Y0180502D01*
X0390613Y0180502D01*
X0392394Y0180386D01*
X0395835Y0179463D01*
X0398921Y0177682D01*
X0401440Y0175163D01*
X0403222Y0172077D01*
X0404144Y0168636D01*
X0404261Y0166854D01*
X0404261Y0017248D01*
X0404144Y0015467D01*
X0403222Y0012025D01*
X0401440Y0008940D01*
X0398921Y0006420D01*
X0395835Y0004639D01*
X0392394Y0003717D01*
X0390613Y0003600D01*
X0095486Y0003600D01*
X0096138Y0004252D01*
X0096138Y0010716D01*
X0094976Y0011879D01*
X0094976Y0019074D01*
X0096138Y0020236D01*
X0096138Y0026701D01*
X0094908Y0027931D01*
X0088444Y0027931D01*
X0087213Y0026701D01*
X0087213Y0020236D01*
X0088376Y0019074D01*
X0088376Y0011879D01*
X0087213Y0010716D01*
X0087213Y0004252D01*
X0087866Y0003600D01*
X0032345Y0003600D01*
X0030563Y0003717D01*
X0027122Y0004639D01*
X0024036Y0006420D01*
X0021517Y0008940D01*
X0021201Y0009488D02*
X0087213Y0009488D01*
X0087213Y0008490D02*
X0021967Y0008490D01*
X0022966Y0007491D02*
X0087213Y0007491D01*
X0087213Y0006493D02*
X0023964Y0006493D01*
X0025641Y0005494D02*
X0087213Y0005494D01*
X0087213Y0004496D02*
X0027657Y0004496D01*
X0027122Y0004639D02*
X0027122Y0004639D01*
X0020624Y0010487D02*
X0087213Y0010487D01*
X0087982Y0011485D02*
X0020048Y0011485D01*
X0019613Y0012484D02*
X0088376Y0012484D01*
X0088376Y0013482D02*
X0019345Y0013482D01*
X0019078Y0014481D02*
X0088376Y0014481D01*
X0088376Y0015479D02*
X0018813Y0015479D01*
X0018747Y0016478D02*
X0088376Y0016478D01*
X0088376Y0017476D02*
X0018697Y0017476D01*
X0018697Y0018475D02*
X0088376Y0018475D01*
X0087977Y0019473D02*
X0018697Y0019473D01*
X0018697Y0020472D02*
X0087213Y0020472D01*
X0087213Y0021470D02*
X0018697Y0021470D01*
X0018697Y0022469D02*
X0087213Y0022469D01*
X0087213Y0023467D02*
X0018697Y0023467D01*
X0018697Y0024466D02*
X0087213Y0024466D01*
X0087213Y0025464D02*
X0018697Y0025464D01*
X0018697Y0026463D02*
X0087213Y0026463D01*
X0087684Y0027484D02*
X0090613Y0030413D01*
X0090613Y0031984D01*
X0086113Y0031984D01*
X0086113Y0032984D01*
X0090613Y0032984D01*
X0090613Y0034555D01*
X0087684Y0037484D01*
X0086113Y0037484D01*
X0086113Y0032984D01*
X0085113Y0032984D01*
X0085113Y0037484D01*
X0083542Y0037484D01*
X0081037Y0034980D01*
X0077932Y0038084D01*
X0073293Y0038084D01*
X0070613Y0035404D01*
X0067932Y0038084D01*
X0063293Y0038084D01*
X0060013Y0034804D01*
X0060013Y0030165D01*
X0063293Y0026884D01*
X0067932Y0026884D01*
X0070613Y0029565D01*
X0073293Y0026884D01*
X0077932Y0026884D01*
X0081037Y0029989D01*
X0083542Y0027484D01*
X0085113Y0027484D01*
X0085113Y0031984D01*
X0086113Y0031984D01*
X0086113Y0027484D01*
X0087684Y0027484D01*
X0087974Y0027461D02*
X0078509Y0027461D01*
X0079508Y0028460D02*
X0082566Y0028460D01*
X0081567Y0029458D02*
X0080506Y0029458D01*
X0085113Y0029458D02*
X0086113Y0029458D01*
X0086113Y0028460D02*
X0085113Y0028460D01*
X0085113Y0030457D02*
X0086113Y0030457D01*
X0086113Y0031455D02*
X0085113Y0031455D01*
X0086113Y0032454D02*
X0100013Y0032454D01*
X0100013Y0033452D02*
X0090613Y0033452D01*
X0090613Y0034451D02*
X0100013Y0034451D01*
X0100013Y0034804D02*
X0100013Y0030165D01*
X0103293Y0026884D01*
X0107932Y0026884D01*
X0110613Y0029565D01*
X0113293Y0026884D01*
X0117932Y0026884D01*
X0120613Y0029565D01*
X0123293Y0026884D01*
X0127932Y0026884D01*
X0130613Y0029565D01*
X0133293Y0026884D01*
X0137932Y0026884D01*
X0140613Y0029565D01*
X0143293Y0026884D01*
X0147932Y0026884D01*
X0150613Y0029565D01*
X0153293Y0026884D01*
X0157932Y0026884D01*
X0160613Y0029565D01*
X0163293Y0026884D01*
X0167932Y0026884D01*
X0170613Y0029565D01*
X0173293Y0026884D01*
X0177932Y0026884D01*
X0180613Y0029565D01*
X0183293Y0026884D01*
X0187932Y0026884D01*
X0190613Y0029565D01*
X0193293Y0026884D01*
X0197932Y0026884D01*
X0201213Y0030165D01*
X0201213Y0034804D01*
X0197932Y0038084D01*
X0193293Y0038084D01*
X0190613Y0035404D01*
X0187932Y0038084D01*
X0183293Y0038084D01*
X0180613Y0035404D01*
X0177932Y0038084D01*
X0173293Y0038084D01*
X0170613Y0035404D01*
X0167932Y0038084D01*
X0163293Y0038084D01*
X0160613Y0035404D01*
X0157932Y0038084D01*
X0153293Y0038084D01*
X0150613Y0035404D01*
X0147932Y0038084D01*
X0143293Y0038084D01*
X0140613Y0035404D01*
X0137932Y0038084D01*
X0133293Y0038084D01*
X0130613Y0035404D01*
X0127932Y0038084D01*
X0123293Y0038084D01*
X0120613Y0035404D01*
X0117932Y0038084D01*
X0113293Y0038084D01*
X0110613Y0035404D01*
X0107932Y0038084D01*
X0103293Y0038084D01*
X0100013Y0034804D01*
X0100658Y0035449D02*
X0089719Y0035449D01*
X0088720Y0036448D02*
X0101657Y0036448D01*
X0102655Y0037446D02*
X0087721Y0037446D01*
X0086113Y0037446D02*
X0085113Y0037446D01*
X0085113Y0036448D02*
X0086113Y0036448D01*
X0086113Y0035449D02*
X0085113Y0035449D01*
X0085113Y0034451D02*
X0086113Y0034451D01*
X0086113Y0033452D02*
X0085113Y0033452D01*
X0082505Y0036448D02*
X0079569Y0036448D01*
X0080567Y0035449D02*
X0081507Y0035449D01*
X0083504Y0037446D02*
X0078570Y0037446D01*
X0072655Y0037446D02*
X0068570Y0037446D01*
X0069569Y0036448D02*
X0071657Y0036448D01*
X0070658Y0035449D02*
X0070567Y0035449D01*
X0062655Y0037446D02*
X0054738Y0037446D01*
X0055013Y0038109D02*
X0055013Y0039859D01*
X0054343Y0041477D01*
X0053105Y0042714D01*
X0052830Y0042828D01*
X0054413Y0044410D01*
X0054413Y0045784D01*
X0050813Y0045784D01*
X0050813Y0046184D01*
X0054413Y0046184D01*
X0054413Y0047558D01*
X0052187Y0049784D01*
X0050813Y0049784D01*
X0050813Y0046184D01*
X0050413Y0046184D01*
X0050413Y0049784D01*
X0049039Y0049784D01*
X0046813Y0047558D01*
X0046813Y0046184D01*
X0050413Y0046184D01*
X0050413Y0045784D01*
X0046813Y0045784D01*
X0046813Y0044410D01*
X0048395Y0042828D01*
X0048120Y0042714D01*
X0046882Y0041477D01*
X0046213Y0039859D01*
X0046213Y0038109D01*
X0046882Y0036492D01*
X0048120Y0035254D01*
X0049737Y0034584D01*
X0051488Y0034584D01*
X0053105Y0035254D01*
X0054343Y0036492D01*
X0055013Y0038109D01*
X0055013Y0038445D02*
X0404261Y0038445D01*
X0404261Y0039443D02*
X0055013Y0039443D01*
X0054771Y0040442D02*
X0404261Y0040442D01*
X0404261Y0041440D02*
X0054358Y0041440D01*
X0053380Y0042439D02*
X0303021Y0042439D01*
X0303376Y0042084D02*
X0307849Y0042084D01*
X0311013Y0045248D01*
X0311013Y0049721D01*
X0307849Y0052884D01*
X0303376Y0052884D01*
X0300213Y0049721D01*
X0300213Y0045248D01*
X0303376Y0042084D01*
X0302023Y0043437D02*
X0053440Y0043437D01*
X0054413Y0044436D02*
X0301024Y0044436D01*
X0300213Y0045434D02*
X0054413Y0045434D01*
X0054413Y0046433D02*
X0300213Y0046433D01*
X0300213Y0047432D02*
X0054413Y0047432D01*
X0053541Y0048430D02*
X0300213Y0048430D01*
X0300213Y0049429D02*
X0052542Y0049429D01*
X0050813Y0049429D02*
X0050413Y0049429D01*
X0050413Y0048430D02*
X0050813Y0048430D01*
X0050813Y0047432D02*
X0050413Y0047432D01*
X0050413Y0046433D02*
X0050813Y0046433D01*
X0048683Y0049429D02*
X0018697Y0049429D01*
X0018697Y0050427D02*
X0300919Y0050427D01*
X0301917Y0051426D02*
X0018697Y0051426D01*
X0018697Y0052424D02*
X0302916Y0052424D01*
X0299873Y0056713D02*
X0298459Y0055299D01*
X0296612Y0054534D01*
X0294613Y0054534D01*
X0292766Y0055299D01*
X0291353Y0056713D01*
X0290613Y0058499D01*
X0289873Y0056713D01*
X0288459Y0055299D01*
X0286612Y0054534D01*
X0284613Y0054534D01*
X0282766Y0055299D01*
X0281353Y0056713D01*
X0280613Y0058499D01*
X0279873Y0056713D01*
X0278459Y0055299D01*
X0276612Y0054534D01*
X0274613Y0054534D01*
X0272766Y0055299D01*
X0271353Y0056713D01*
X0270613Y0058499D01*
X0269873Y0056713D01*
X0268459Y0055299D01*
X0266612Y0054534D01*
X0264613Y0054534D01*
X0262766Y0055299D01*
X0261353Y0056713D01*
X0260613Y0058499D01*
X0259873Y0056713D01*
X0258459Y0055299D01*
X0256612Y0054534D01*
X0254613Y0054534D01*
X0252766Y0055299D01*
X0251353Y0056713D01*
X0250613Y0058499D01*
X0249873Y0056713D01*
X0248459Y0055299D01*
X0246612Y0054534D01*
X0244613Y0054534D01*
X0242766Y0055299D01*
X0241353Y0056713D01*
X0240613Y0058499D01*
X0239873Y0056713D01*
X0238459Y0055299D01*
X0236612Y0054534D01*
X0234613Y0054534D01*
X0232766Y0055299D01*
X0231353Y0056713D01*
X0230613Y0058499D01*
X0229873Y0056713D01*
X0228459Y0055299D01*
X0226612Y0054534D01*
X0224613Y0054534D01*
X0222766Y0055299D01*
X0221353Y0056713D01*
X0220613Y0058499D01*
X0219873Y0056713D01*
X0218459Y0055299D01*
X0216612Y0054534D01*
X0214613Y0054534D01*
X0212766Y0055299D01*
X0211353Y0056713D01*
X0210588Y0058560D01*
X0210588Y0066409D01*
X0211353Y0068256D01*
X0212766Y0069669D01*
X0214613Y0070434D01*
X0216612Y0070434D01*
X0218459Y0069669D01*
X0219873Y0068256D01*
X0220613Y0066469D01*
X0221353Y0068256D01*
X0222766Y0069669D01*
X0224613Y0070434D01*
X0226612Y0070434D01*
X0228459Y0069669D01*
X0229873Y0068256D01*
X0230613Y0066469D01*
X0231353Y0068256D01*
X0232766Y0069669D01*
X0234613Y0070434D01*
X0236612Y0070434D01*
X0238459Y0069669D01*
X0239873Y0068256D01*
X0240613Y0066469D01*
X0241353Y0068256D01*
X0242766Y0069669D01*
X0244613Y0070434D01*
X0246612Y0070434D01*
X0248459Y0069669D01*
X0249873Y0068256D01*
X0250613Y0066469D01*
X0251353Y0068256D01*
X0252766Y0069669D01*
X0254613Y0070434D01*
X0256612Y0070434D01*
X0258459Y0069669D01*
X0259873Y0068256D01*
X0260613Y0066469D01*
X0261353Y0068256D01*
X0262766Y0069669D01*
X0264613Y0070434D01*
X0266612Y0070434D01*
X0268459Y0069669D01*
X0269873Y0068256D01*
X0270613Y0066469D01*
X0271353Y0068256D01*
X0272766Y0069669D01*
X0274613Y0070434D01*
X0276612Y0070434D01*
X0278459Y0069669D01*
X0279873Y0068256D01*
X0280613Y0066469D01*
X0281353Y0068256D01*
X0282766Y0069669D01*
X0284613Y0070434D01*
X0286612Y0070434D01*
X0288459Y0069669D01*
X0289873Y0068256D01*
X0290613Y0066469D01*
X0291353Y0068256D01*
X0292766Y0069669D01*
X0294613Y0070434D01*
X0296612Y0070434D01*
X0298459Y0069669D01*
X0299873Y0068256D01*
X0300638Y0066409D01*
X0300638Y0058560D01*
X0299873Y0056713D01*
X0299578Y0056418D02*
X0310213Y0056418D01*
X0310213Y0055420D02*
X0298579Y0055420D01*
X0300164Y0057417D02*
X0310213Y0057417D01*
X0310213Y0058415D02*
X0300578Y0058415D01*
X0300638Y0059414D02*
X0310213Y0059414D01*
X0310213Y0059721D02*
X0310213Y0055248D01*
X0313376Y0052084D01*
X0317849Y0052084D01*
X0321013Y0055248D01*
X0321013Y0059721D01*
X0317849Y0062884D01*
X0313376Y0062884D01*
X0310213Y0059721D01*
X0310904Y0060412D02*
X0300638Y0060412D01*
X0300638Y0061411D02*
X0311902Y0061411D01*
X0312901Y0062409D02*
X0300638Y0062409D01*
X0300638Y0063408D02*
X0404261Y0063408D01*
X0404261Y0064406D02*
X0300638Y0064406D01*
X0300638Y0065405D02*
X0404261Y0065405D01*
X0404261Y0066403D02*
X0300638Y0066403D01*
X0300226Y0067402D02*
X0379788Y0067402D01*
X0379593Y0067482D02*
X0381762Y0066584D01*
X0384109Y0066584D01*
X0386278Y0067482D01*
X0387937Y0069142D01*
X0388835Y0071311D01*
X0388835Y0073658D01*
X0387937Y0075826D01*
X0386477Y0077287D01*
X0389438Y0080248D01*
X0389438Y0084721D01*
X0386275Y0087884D01*
X0381801Y0087884D01*
X0378638Y0084721D01*
X0378638Y0080248D01*
X0380870Y0078015D01*
X0379593Y0077486D01*
X0377934Y0075826D01*
X0377035Y0073658D01*
X0377035Y0071311D01*
X0377934Y0069142D01*
X0379593Y0067482D01*
X0378676Y0068400D02*
X0368317Y0068400D01*
X0367601Y0067684D02*
X0370413Y0070496D01*
X0370413Y0072184D01*
X0365913Y0072184D01*
X0365913Y0072784D01*
X0370413Y0072784D01*
X0370413Y0074472D01*
X0367601Y0077284D01*
X0365913Y0077284D01*
X0365913Y0072784D01*
X0365313Y0072784D01*
X0365313Y0077284D01*
X0363624Y0077284D01*
X0360813Y0074472D01*
X0360813Y0072784D01*
X0365313Y0072784D01*
X0365313Y0072184D01*
X0365913Y0072184D01*
X0365913Y0067684D01*
X0367601Y0067684D01*
X0365913Y0068400D02*
X0365313Y0068400D01*
X0365313Y0067684D02*
X0365313Y0072184D01*
X0360813Y0072184D01*
X0360813Y0070496D01*
X0363624Y0067684D01*
X0365313Y0067684D01*
X0365313Y0069399D02*
X0365913Y0069399D01*
X0365913Y0070397D02*
X0365313Y0070397D01*
X0365313Y0071396D02*
X0365913Y0071396D01*
X0365913Y0072394D02*
X0377035Y0072394D01*
X0377035Y0071396D02*
X0370413Y0071396D01*
X0370314Y0070397D02*
X0377414Y0070397D01*
X0377827Y0069399D02*
X0369315Y0069399D01*
X0370413Y0073393D02*
X0377035Y0073393D01*
X0377339Y0074391D02*
X0370413Y0074391D01*
X0369495Y0075390D02*
X0377753Y0075390D01*
X0378496Y0076388D02*
X0368497Y0076388D01*
X0365913Y0076388D02*
X0365313Y0076388D01*
X0365313Y0075390D02*
X0365913Y0075390D01*
X0365913Y0074391D02*
X0365313Y0074391D01*
X0365313Y0073393D02*
X0365913Y0073393D01*
X0365313Y0072394D02*
X0047726Y0072394D01*
X0048139Y0071396D02*
X0360813Y0071396D01*
X0360911Y0070397D02*
X0296701Y0070397D01*
X0294524Y0070397D02*
X0286701Y0070397D01*
X0284524Y0070397D02*
X0276701Y0070397D01*
X0274524Y0070397D02*
X0266701Y0070397D01*
X0264524Y0070397D02*
X0256701Y0070397D01*
X0254524Y0070397D02*
X0246701Y0070397D01*
X0244524Y0070397D02*
X0236701Y0070397D01*
X0234524Y0070397D02*
X0226701Y0070397D01*
X0224524Y0070397D02*
X0216701Y0070397D01*
X0214524Y0070397D02*
X0196701Y0070397D01*
X0196612Y0070434D02*
X0198459Y0069669D01*
X0199873Y0068256D01*
X0200638Y0066409D01*
X0200638Y0058560D01*
X0199873Y0056713D01*
X0198459Y0055299D01*
X0196612Y0054534D01*
X0194613Y0054534D01*
X0192766Y0055299D01*
X0191353Y0056713D01*
X0190613Y0058499D01*
X0189873Y0056713D01*
X0188459Y0055299D01*
X0186612Y0054534D01*
X0184613Y0054534D01*
X0182766Y0055299D01*
X0181353Y0056713D01*
X0180613Y0058499D01*
X0179873Y0056713D01*
X0178459Y0055299D01*
X0176612Y0054534D01*
X0174613Y0054534D01*
X0172766Y0055299D01*
X0171353Y0056713D01*
X0170613Y0058499D01*
X0169873Y0056713D01*
X0168459Y0055299D01*
X0166612Y0054534D01*
X0164613Y0054534D01*
X0162766Y0055299D01*
X0161353Y0056713D01*
X0160613Y0058499D01*
X0159873Y0056713D01*
X0158459Y0055299D01*
X0156612Y0054534D01*
X0154613Y0054534D01*
X0152766Y0055299D01*
X0151353Y0056713D01*
X0150613Y0058499D01*
X0149873Y0056713D01*
X0148459Y0055299D01*
X0146612Y0054534D01*
X0144613Y0054534D01*
X0142766Y0055299D01*
X0141353Y0056713D01*
X0140613Y0058499D01*
X0139873Y0056713D01*
X0138459Y0055299D01*
X0136612Y0054534D01*
X0134613Y0054534D01*
X0132766Y0055299D01*
X0131353Y0056713D01*
X0130613Y0058499D01*
X0129873Y0056713D01*
X0128459Y0055299D01*
X0126612Y0054534D01*
X0124613Y0054534D01*
X0122766Y0055299D01*
X0121353Y0056713D01*
X0120613Y0058499D01*
X0119873Y0056713D01*
X0118459Y0055299D01*
X0116612Y0054534D01*
X0114613Y0054534D01*
X0112766Y0055299D01*
X0111353Y0056713D01*
X0110613Y0058499D01*
X0109873Y0056713D01*
X0108459Y0055299D01*
X0106612Y0054534D01*
X0104613Y0054534D01*
X0102766Y0055299D01*
X0101353Y0056713D01*
X0100588Y0058560D01*
X0100588Y0066409D01*
X0101353Y0068256D01*
X0102766Y0069669D01*
X0104613Y0070434D01*
X0106612Y0070434D01*
X0108459Y0069669D01*
X0109873Y0068256D01*
X0110613Y0066469D01*
X0111353Y0068256D01*
X0112766Y0069669D01*
X0114613Y0070434D01*
X0116612Y0070434D01*
X0118459Y0069669D01*
X0119873Y0068256D01*
X0120613Y0066469D01*
X0121353Y0068256D01*
X0122766Y0069669D01*
X0124613Y0070434D01*
X0126612Y0070434D01*
X0128459Y0069669D01*
X0129873Y0068256D01*
X0130613Y0066469D01*
X0131353Y0068256D01*
X0132766Y0069669D01*
X0134613Y0070434D01*
X0136612Y0070434D01*
X0138459Y0069669D01*
X0139873Y0068256D01*
X0140613Y0066469D01*
X0141353Y0068256D01*
X0142766Y0069669D01*
X0144613Y0070434D01*
X0146612Y0070434D01*
X0148459Y0069669D01*
X0149873Y0068256D01*
X0150613Y0066469D01*
X0151353Y0068256D01*
X0152766Y0069669D01*
X0154613Y0070434D01*
X0156612Y0070434D01*
X0158459Y0069669D01*
X0159873Y0068256D01*
X0160613Y0066469D01*
X0161353Y0068256D01*
X0162766Y0069669D01*
X0164613Y0070434D01*
X0166612Y0070434D01*
X0168459Y0069669D01*
X0169873Y0068256D01*
X0170613Y0066469D01*
X0171353Y0068256D01*
X0172766Y0069669D01*
X0174613Y0070434D01*
X0176612Y0070434D01*
X0178459Y0069669D01*
X0179873Y0068256D01*
X0180613Y0066469D01*
X0181353Y0068256D01*
X0182766Y0069669D01*
X0184613Y0070434D01*
X0186612Y0070434D01*
X0188459Y0069669D01*
X0189873Y0068256D01*
X0190613Y0066469D01*
X0191353Y0068256D01*
X0192766Y0069669D01*
X0194613Y0070434D01*
X0196612Y0070434D01*
X0194524Y0070397D02*
X0186701Y0070397D01*
X0184524Y0070397D02*
X0176701Y0070397D01*
X0174524Y0070397D02*
X0166701Y0070397D01*
X0164524Y0070397D02*
X0156701Y0070397D01*
X0154524Y0070397D02*
X0146701Y0070397D01*
X0144524Y0070397D02*
X0136701Y0070397D01*
X0134524Y0070397D02*
X0126701Y0070397D01*
X0124524Y0070397D02*
X0116701Y0070397D01*
X0114524Y0070397D02*
X0106701Y0070397D01*
X0104524Y0070397D02*
X0048513Y0070397D01*
X0048513Y0070495D02*
X0048513Y0067074D01*
X0047203Y0063913D01*
X0044784Y0061494D01*
X0043072Y0060784D01*
X0061218Y0060784D01*
X0062381Y0061946D01*
X0068845Y0061946D01*
X0070075Y0060716D01*
X0070075Y0054252D01*
X0068845Y0053022D01*
X0062381Y0053022D01*
X0061218Y0054184D01*
X0031975Y0054184D01*
X0030813Y0053022D01*
X0024349Y0053022D01*
X0023119Y0054252D01*
X0023119Y0060716D01*
X0024349Y0061946D01*
X0030813Y0061946D01*
X0031975Y0060784D01*
X0036753Y0060784D01*
X0035041Y0061494D01*
X0032622Y0063913D01*
X0031313Y0067074D01*
X0031313Y0070495D01*
X0032622Y0073656D01*
X0035041Y0076075D01*
X0038202Y0077384D01*
X0041623Y0077384D01*
X0044784Y0076075D01*
X0047203Y0073656D01*
X0048513Y0070495D01*
X0048513Y0069399D02*
X0102496Y0069399D01*
X0101497Y0068400D02*
X0048513Y0068400D01*
X0048513Y0067402D02*
X0100999Y0067402D01*
X0100588Y0066403D02*
X0048235Y0066403D01*
X0047821Y0065405D02*
X0100588Y0065405D01*
X0100588Y0064406D02*
X0047408Y0064406D01*
X0046698Y0063408D02*
X0100588Y0063408D01*
X0100588Y0062409D02*
X0045700Y0062409D01*
X0044584Y0061411D02*
X0061845Y0061411D01*
X0069380Y0061411D02*
X0100588Y0061411D01*
X0100588Y0060412D02*
X0070075Y0060412D01*
X0070075Y0059414D02*
X0100588Y0059414D01*
X0100647Y0058415D02*
X0070075Y0058415D01*
X0070075Y0057417D02*
X0101061Y0057417D01*
X0101647Y0056418D02*
X0070075Y0056418D01*
X0070075Y0055420D02*
X0102646Y0055420D01*
X0108579Y0055420D02*
X0112646Y0055420D01*
X0111647Y0056418D02*
X0109578Y0056418D01*
X0110164Y0057417D02*
X0111061Y0057417D01*
X0110647Y0058415D02*
X0110578Y0058415D01*
X0118579Y0055420D02*
X0122646Y0055420D01*
X0121647Y0056418D02*
X0119578Y0056418D01*
X0120164Y0057417D02*
X0121061Y0057417D01*
X0120647Y0058415D02*
X0120578Y0058415D01*
X0128579Y0055420D02*
X0132646Y0055420D01*
X0131647Y0056418D02*
X0129578Y0056418D01*
X0130164Y0057417D02*
X0131061Y0057417D01*
X0130647Y0058415D02*
X0130578Y0058415D01*
X0138579Y0055420D02*
X0142646Y0055420D01*
X0141647Y0056418D02*
X0139578Y0056418D01*
X0140164Y0057417D02*
X0141061Y0057417D01*
X0140647Y0058415D02*
X0140578Y0058415D01*
X0148579Y0055420D02*
X0152646Y0055420D01*
X0151647Y0056418D02*
X0149578Y0056418D01*
X0150164Y0057417D02*
X0151061Y0057417D01*
X0150647Y0058415D02*
X0150578Y0058415D01*
X0158579Y0055420D02*
X0162646Y0055420D01*
X0161647Y0056418D02*
X0159578Y0056418D01*
X0160164Y0057417D02*
X0161061Y0057417D01*
X0160647Y0058415D02*
X0160578Y0058415D01*
X0168579Y0055420D02*
X0172646Y0055420D01*
X0171647Y0056418D02*
X0169578Y0056418D01*
X0170164Y0057417D02*
X0171061Y0057417D01*
X0170647Y0058415D02*
X0170578Y0058415D01*
X0178579Y0055420D02*
X0182646Y0055420D01*
X0181647Y0056418D02*
X0179578Y0056418D01*
X0180164Y0057417D02*
X0181061Y0057417D01*
X0180647Y0058415D02*
X0180578Y0058415D01*
X0188579Y0055420D02*
X0192646Y0055420D01*
X0191647Y0056418D02*
X0189578Y0056418D01*
X0190164Y0057417D02*
X0191061Y0057417D01*
X0190647Y0058415D02*
X0190578Y0058415D01*
X0198579Y0055420D02*
X0204033Y0055420D01*
X0203914Y0055458D02*
X0204576Y0055243D01*
X0205138Y0055154D01*
X0205138Y0062009D01*
X0206088Y0062009D01*
X0206088Y0062959D01*
X0210038Y0062959D01*
X0210038Y0065758D01*
X0209929Y0066445D01*
X0209713Y0067108D01*
X0209397Y0067728D01*
X0208988Y0068292D01*
X0208495Y0068784D01*
X0207932Y0069194D01*
X0207311Y0069510D01*
X0206649Y0069725D01*
X0206088Y0069814D01*
X0206088Y0062959D01*
X0205138Y0062959D01*
X0205138Y0069814D01*
X0204576Y0069725D01*
X0203914Y0069510D01*
X0203293Y0069194D01*
X0202730Y0068784D01*
X0202237Y0068292D01*
X0201828Y0067728D01*
X0201512Y0067108D01*
X0201297Y0066445D01*
X0201188Y0065758D01*
X0201188Y0062959D01*
X0205138Y0062959D01*
X0205138Y0062009D01*
X0201188Y0062009D01*
X0201188Y0059211D01*
X0201297Y0058523D01*
X0201512Y0057861D01*
X0201828Y0057240D01*
X0202237Y0056677D01*
X0202730Y0056184D01*
X0203293Y0055775D01*
X0203914Y0055458D01*
X0205138Y0055420D02*
X0206088Y0055420D01*
X0206088Y0055154D02*
X0206649Y0055243D01*
X0207311Y0055458D01*
X0207932Y0055775D01*
X0208495Y0056184D01*
X0208988Y0056677D01*
X0209397Y0057240D01*
X0209713Y0057861D01*
X0209929Y0058523D01*
X0210038Y0059211D01*
X0210038Y0062009D01*
X0206088Y0062009D01*
X0206088Y0055154D01*
X0207192Y0055420D02*
X0212646Y0055420D01*
X0211647Y0056418D02*
X0208729Y0056418D01*
X0209487Y0057417D02*
X0211061Y0057417D01*
X0210647Y0058415D02*
X0209894Y0058415D01*
X0210038Y0059414D02*
X0210588Y0059414D01*
X0210588Y0060412D02*
X0210038Y0060412D01*
X0210038Y0061411D02*
X0210588Y0061411D01*
X0210588Y0062409D02*
X0206088Y0062409D01*
X0205138Y0062409D02*
X0200638Y0062409D01*
X0200638Y0061411D02*
X0201188Y0061411D01*
X0201188Y0060412D02*
X0200638Y0060412D01*
X0200638Y0059414D02*
X0201188Y0059414D01*
X0201332Y0058415D02*
X0200578Y0058415D01*
X0200164Y0057417D02*
X0201738Y0057417D01*
X0202496Y0056418D02*
X0199578Y0056418D01*
X0205138Y0056418D02*
X0206088Y0056418D01*
X0206088Y0057417D02*
X0205138Y0057417D01*
X0205138Y0058415D02*
X0206088Y0058415D01*
X0206088Y0059414D02*
X0205138Y0059414D01*
X0205138Y0060412D02*
X0206088Y0060412D01*
X0206088Y0061411D02*
X0205138Y0061411D01*
X0205138Y0063408D02*
X0206088Y0063408D01*
X0206088Y0064406D02*
X0205138Y0064406D01*
X0205138Y0065405D02*
X0206088Y0065405D01*
X0206088Y0066403D02*
X0205138Y0066403D01*
X0205138Y0067402D02*
X0206088Y0067402D01*
X0206088Y0068400D02*
X0205138Y0068400D01*
X0205138Y0069399D02*
X0206088Y0069399D01*
X0207530Y0069399D02*
X0212496Y0069399D01*
X0211497Y0068400D02*
X0208879Y0068400D01*
X0209564Y0067402D02*
X0210999Y0067402D01*
X0210588Y0066403D02*
X0209935Y0066403D01*
X0210038Y0065405D02*
X0210588Y0065405D01*
X0210588Y0064406D02*
X0210038Y0064406D01*
X0210038Y0063408D02*
X0210588Y0063408D01*
X0201188Y0063408D02*
X0200638Y0063408D01*
X0200638Y0064406D02*
X0201188Y0064406D01*
X0201188Y0065405D02*
X0200638Y0065405D01*
X0200638Y0066403D02*
X0201290Y0066403D01*
X0201662Y0067402D02*
X0200226Y0067402D01*
X0199728Y0068400D02*
X0202346Y0068400D01*
X0203696Y0069399D02*
X0198729Y0069399D01*
X0192496Y0069399D02*
X0188729Y0069399D01*
X0189728Y0068400D02*
X0191497Y0068400D01*
X0190999Y0067402D02*
X0190226Y0067402D01*
X0182496Y0069399D02*
X0178729Y0069399D01*
X0179728Y0068400D02*
X0181497Y0068400D01*
X0180999Y0067402D02*
X0180226Y0067402D01*
X0172496Y0069399D02*
X0168729Y0069399D01*
X0169728Y0068400D02*
X0171497Y0068400D01*
X0170999Y0067402D02*
X0170226Y0067402D01*
X0162496Y0069399D02*
X0158729Y0069399D01*
X0159728Y0068400D02*
X0161497Y0068400D01*
X0160999Y0067402D02*
X0160226Y0067402D01*
X0152496Y0069399D02*
X0148729Y0069399D01*
X0149728Y0068400D02*
X0151497Y0068400D01*
X0150999Y0067402D02*
X0150226Y0067402D01*
X0142496Y0069399D02*
X0138729Y0069399D01*
X0139728Y0068400D02*
X0141497Y0068400D01*
X0140999Y0067402D02*
X0140226Y0067402D01*
X0132496Y0069399D02*
X0128729Y0069399D01*
X0129728Y0068400D02*
X0131497Y0068400D01*
X0130999Y0067402D02*
X0130226Y0067402D01*
X0122496Y0069399D02*
X0118729Y0069399D01*
X0119728Y0068400D02*
X0121497Y0068400D01*
X0120999Y0067402D02*
X0120226Y0067402D01*
X0112496Y0069399D02*
X0108729Y0069399D01*
X0109728Y0068400D02*
X0111497Y0068400D01*
X0110999Y0067402D02*
X0110226Y0067402D01*
X0070075Y0054421D02*
X0311039Y0054421D01*
X0312038Y0053423D02*
X0069245Y0053423D01*
X0061980Y0053423D02*
X0031214Y0053423D01*
X0023948Y0053423D02*
X0018697Y0053423D01*
X0018697Y0054421D02*
X0023119Y0054421D01*
X0023119Y0055420D02*
X0018697Y0055420D01*
X0018697Y0056418D02*
X0023119Y0056418D01*
X0023119Y0057417D02*
X0018697Y0057417D01*
X0018697Y0058415D02*
X0023119Y0058415D01*
X0023119Y0059414D02*
X0018697Y0059414D01*
X0018697Y0060412D02*
X0023119Y0060412D01*
X0023813Y0061411D02*
X0018697Y0061411D01*
X0018697Y0062409D02*
X0034125Y0062409D01*
X0033127Y0063408D02*
X0018697Y0063408D01*
X0018697Y0064406D02*
X0032417Y0064406D01*
X0032004Y0065405D02*
X0018697Y0065405D01*
X0018697Y0066403D02*
X0031590Y0066403D01*
X0031313Y0067402D02*
X0018697Y0067402D01*
X0018697Y0068400D02*
X0031313Y0068400D01*
X0031313Y0069399D02*
X0018697Y0069399D01*
X0018697Y0070397D02*
X0031313Y0070397D01*
X0031686Y0071396D02*
X0018697Y0071396D01*
X0018697Y0072394D02*
X0032099Y0072394D01*
X0032513Y0073393D02*
X0018697Y0073393D01*
X0018697Y0074391D02*
X0033357Y0074391D01*
X0034356Y0075390D02*
X0018697Y0075390D01*
X0018697Y0076388D02*
X0035798Y0076388D01*
X0044028Y0076388D02*
X0362728Y0076388D01*
X0361730Y0075390D02*
X0045469Y0075390D01*
X0046468Y0074391D02*
X0360813Y0074391D01*
X0360813Y0073393D02*
X0047312Y0073393D01*
X0049489Y0082881D02*
X0048770Y0083115D01*
X0048097Y0083458D01*
X0047486Y0083902D01*
X0046951Y0084436D01*
X0046507Y0085047D01*
X0046164Y0085720D01*
X0045931Y0086439D01*
X0045816Y0087163D01*
X0050213Y0087163D01*
X0051013Y0087163D01*
X0051013Y0082767D01*
X0051737Y0082881D01*
X0052455Y0083115D01*
X0053128Y0083458D01*
X0053740Y0083902D01*
X0054088Y0084251D01*
X0055354Y0082985D01*
X0057338Y0082163D01*
X0059487Y0082163D01*
X0061471Y0082985D01*
X0062990Y0084504D01*
X0063813Y0086489D01*
X0063813Y0088637D01*
X0062990Y0090622D01*
X0061471Y0092141D01*
X0060642Y0092484D01*
X0061471Y0092828D01*
X0062990Y0094347D01*
X0063813Y0096331D01*
X0063813Y0098480D01*
X0062990Y0100464D01*
X0061471Y0101983D01*
X0059487Y0102805D01*
X0057338Y0102805D01*
X0055354Y0101983D01*
X0054513Y0101142D01*
X0053671Y0101983D01*
X0051687Y0102805D01*
X0049538Y0102805D01*
X0047554Y0101983D01*
X0046035Y0100464D01*
X0045213Y0098480D01*
X0045213Y0096331D01*
X0046035Y0094347D01*
X0047554Y0092828D01*
X0049193Y0092149D01*
X0048770Y0092011D01*
X0048097Y0091668D01*
X0047486Y0091224D01*
X0046951Y0090690D01*
X0046507Y0090079D01*
X0046164Y0089406D01*
X0045931Y0088687D01*
X0045816Y0087963D01*
X0050213Y0087963D01*
X0050213Y0087163D01*
X0050213Y0082767D01*
X0049489Y0082881D01*
X0050213Y0083378D02*
X0051013Y0083378D01*
X0051013Y0084376D02*
X0050213Y0084376D01*
X0050213Y0085375D02*
X0051013Y0085375D01*
X0051013Y0086373D02*
X0050213Y0086373D01*
X0050213Y0087372D02*
X0018697Y0087372D01*
X0018697Y0088370D02*
X0045881Y0088370D01*
X0046152Y0089369D02*
X0018697Y0089369D01*
X0018697Y0090368D02*
X0046717Y0090368D01*
X0047681Y0091366D02*
X0018697Y0091366D01*
X0018697Y0092365D02*
X0048672Y0092365D01*
X0047018Y0093363D02*
X0018697Y0093363D01*
X0018697Y0094362D02*
X0046029Y0094362D01*
X0045615Y0095360D02*
X0018697Y0095360D01*
X0018697Y0096359D02*
X0045213Y0096359D01*
X0045213Y0097357D02*
X0018697Y0097357D01*
X0018697Y0098356D02*
X0045213Y0098356D01*
X0045575Y0099354D02*
X0018697Y0099354D01*
X0018697Y0100353D02*
X0045988Y0100353D01*
X0046921Y0101351D02*
X0018697Y0101351D01*
X0018697Y0102350D02*
X0048438Y0102350D01*
X0052787Y0102350D02*
X0056238Y0102350D01*
X0054721Y0101351D02*
X0054304Y0101351D01*
X0060587Y0102350D02*
X0067313Y0102350D01*
X0067313Y0103348D02*
X0018697Y0103348D01*
X0018697Y0104347D02*
X0067313Y0104347D01*
X0067313Y0105345D02*
X0018697Y0105345D01*
X0018697Y0106344D02*
X0067313Y0106344D01*
X0067313Y0107342D02*
X0018697Y0107342D01*
X0018697Y0108341D02*
X0036376Y0108341D01*
X0035041Y0108894D02*
X0038202Y0107584D01*
X0041623Y0107584D01*
X0044784Y0108894D01*
X0047203Y0111313D01*
X0048513Y0114474D01*
X0048513Y0117895D01*
X0047203Y0121056D01*
X0044784Y0123475D01*
X0041623Y0124784D01*
X0038202Y0124784D01*
X0035041Y0123475D01*
X0032622Y0121056D01*
X0031313Y0117895D01*
X0031313Y0114474D01*
X0032622Y0111313D01*
X0035041Y0108894D01*
X0034595Y0109339D02*
X0018697Y0109339D01*
X0018697Y0110338D02*
X0033597Y0110338D01*
X0032612Y0111336D02*
X0018697Y0111336D01*
X0018697Y0112335D02*
X0032199Y0112335D01*
X0031785Y0113333D02*
X0018697Y0113333D01*
X0018697Y0114332D02*
X0031371Y0114332D01*
X0031313Y0115330D02*
X0018697Y0115330D01*
X0018697Y0116329D02*
X0031313Y0116329D01*
X0031313Y0117327D02*
X0018697Y0117327D01*
X0018697Y0118326D02*
X0031491Y0118326D01*
X0031905Y0119324D02*
X0018697Y0119324D01*
X0018697Y0120323D02*
X0032318Y0120323D01*
X0032887Y0121321D02*
X0018697Y0121321D01*
X0018697Y0122320D02*
X0033886Y0122320D01*
X0034884Y0123318D02*
X0018697Y0123318D01*
X0018697Y0124317D02*
X0037074Y0124317D01*
X0037601Y0127684D02*
X0035913Y0127684D01*
X0035913Y0132184D01*
X0035913Y0132784D01*
X0040413Y0132784D01*
X0040413Y0134472D01*
X0037601Y0137284D01*
X0035913Y0137284D01*
X0035913Y0132784D01*
X0035313Y0132784D01*
X0035313Y0137284D01*
X0033624Y0137284D01*
X0030813Y0134472D01*
X0030813Y0132784D01*
X0035313Y0132784D01*
X0035313Y0132184D01*
X0035913Y0132184D01*
X0040413Y0132184D01*
X0040413Y0130496D01*
X0037601Y0127684D01*
X0038227Y0128311D02*
X0067313Y0128311D01*
X0067313Y0129309D02*
X0039226Y0129309D01*
X0040225Y0130308D02*
X0067313Y0130308D01*
X0067313Y0131306D02*
X0040413Y0131306D01*
X0040413Y0133303D02*
X0050708Y0133303D01*
X0051237Y0133084D02*
X0052988Y0133084D01*
X0054605Y0133754D01*
X0055843Y0134992D01*
X0055956Y0135266D01*
X0057539Y0133684D01*
X0058913Y0133684D01*
X0058913Y0137284D01*
X0059313Y0137284D01*
X0059313Y0137684D01*
X0062913Y0137684D01*
X0062913Y0139058D01*
X0060687Y0141284D01*
X0059313Y0141284D01*
X0059313Y0137684D01*
X0058913Y0137684D01*
X0058913Y0141284D01*
X0057539Y0141284D01*
X0055956Y0139702D01*
X0055843Y0139977D01*
X0054605Y0141214D01*
X0052988Y0141884D01*
X0051237Y0141884D01*
X0049620Y0141214D01*
X0048382Y0139977D01*
X0047713Y0138359D01*
X0047713Y0136609D01*
X0048382Y0134992D01*
X0049620Y0133754D01*
X0051237Y0133084D01*
X0053517Y0133303D02*
X0067313Y0133303D01*
X0067313Y0132305D02*
X0035913Y0132305D01*
X0035313Y0132305D02*
X0018697Y0132305D01*
X0018697Y0133303D02*
X0030813Y0133303D01*
X0030813Y0134302D02*
X0018697Y0134302D01*
X0018697Y0135301D02*
X0031641Y0135301D01*
X0032639Y0136299D02*
X0018697Y0136299D01*
X0018697Y0137298D02*
X0047713Y0137298D01*
X0047713Y0138296D02*
X0018697Y0138296D01*
X0018697Y0139295D02*
X0048100Y0139295D01*
X0048699Y0140293D02*
X0018697Y0140293D01*
X0018697Y0141292D02*
X0049807Y0141292D01*
X0054419Y0141292D02*
X0067313Y0141292D01*
X0067313Y0142290D02*
X0018697Y0142290D01*
X0018697Y0143289D02*
X0067114Y0143289D01*
X0067313Y0143090D02*
X0067313Y0096879D01*
X0066150Y0095716D01*
X0066150Y0089252D01*
X0067381Y0088022D01*
X0073845Y0088022D01*
X0075075Y0089252D01*
X0075075Y0095716D01*
X0073913Y0096879D01*
X0073913Y0143090D01*
X0075075Y0144252D01*
X0075075Y0150716D01*
X0073845Y0151946D01*
X0067381Y0151946D01*
X0066150Y0150716D01*
X0066150Y0144252D01*
X0067313Y0143090D01*
X0066150Y0144287D02*
X0018697Y0144287D01*
X0018697Y0145286D02*
X0066150Y0145286D01*
X0066150Y0146284D02*
X0018697Y0146284D01*
X0018697Y0147283D02*
X0066150Y0147283D01*
X0066150Y0148281D02*
X0018697Y0148281D01*
X0018697Y0149280D02*
X0066150Y0149280D01*
X0066150Y0150278D02*
X0018697Y0150278D01*
X0018697Y0151277D02*
X0066711Y0151277D01*
X0074514Y0151277D02*
X0324177Y0151277D01*
X0324111Y0151437D02*
X0325365Y0148411D01*
X0327681Y0146094D01*
X0330707Y0144841D01*
X0333983Y0144841D01*
X0337009Y0146094D01*
X0339325Y0148411D01*
X0340579Y0151437D01*
X0340579Y0154713D01*
X0339325Y0157739D01*
X0337009Y0160055D01*
X0333983Y0161309D01*
X0330707Y0161309D01*
X0327681Y0160055D01*
X0325365Y0157739D01*
X0324111Y0154713D01*
X0324111Y0151437D01*
X0324111Y0152275D02*
X0018697Y0152275D01*
X0018697Y0153274D02*
X0324111Y0153274D01*
X0324111Y0154272D02*
X0018697Y0154272D01*
X0018697Y0155271D02*
X0183864Y0155271D01*
X0184654Y0154480D02*
X0188382Y0154480D01*
X0191018Y0157116D01*
X0191018Y0160844D01*
X0188382Y0163480D01*
X0184654Y0163480D01*
X0182018Y0160844D01*
X0182018Y0157116D01*
X0184654Y0154480D01*
X0182865Y0156269D02*
X0018697Y0156269D01*
X0018697Y0157268D02*
X0062909Y0157268D01*
X0063293Y0156884D02*
X0067932Y0156884D01*
X0070613Y0159565D01*
X0073293Y0156884D01*
X0077932Y0156884D01*
X0081037Y0159989D01*
X0083542Y0157484D01*
X0085113Y0157484D01*
X0085113Y0161984D01*
X0086113Y0161984D01*
X0086113Y0162984D01*
X0090613Y0162984D01*
X0090613Y0164555D01*
X0087684Y0167484D01*
X0086113Y0167484D01*
X0086113Y0162984D01*
X0085113Y0162984D01*
X0085113Y0167484D01*
X0083542Y0167484D01*
X0081037Y0164980D01*
X0077932Y0168084D01*
X0073293Y0168084D01*
X0070613Y0165404D01*
X0067932Y0168084D01*
X0063293Y0168084D01*
X0060013Y0164804D01*
X0060013Y0160165D01*
X0063293Y0156884D01*
X0061911Y0158266D02*
X0018697Y0158266D01*
X0018697Y0159265D02*
X0060912Y0159265D01*
X0060013Y0160263D02*
X0018697Y0160263D01*
X0018697Y0161262D02*
X0060013Y0161262D01*
X0060013Y0162260D02*
X0018697Y0162260D01*
X0018697Y0163259D02*
X0060013Y0163259D01*
X0060013Y0164257D02*
X0018697Y0164257D01*
X0018697Y0165256D02*
X0060465Y0165256D01*
X0061463Y0166254D02*
X0018697Y0166254D01*
X0018723Y0167253D02*
X0033207Y0167253D01*
X0033376Y0167084D02*
X0037849Y0167084D01*
X0041013Y0170248D01*
X0213164Y0170248D01*
X0212166Y0171247D02*
X0041013Y0171247D01*
X0041013Y0172245D02*
X0211167Y0172245D01*
X0210213Y0173244D02*
X0041013Y0173244D01*
X0041013Y0174242D02*
X0210213Y0174242D01*
X0210213Y0175241D02*
X0040493Y0175241D01*
X0041013Y0174721D02*
X0037849Y0177884D01*
X0033376Y0177884D01*
X0030213Y0174721D01*
X0030213Y0170248D01*
X0019246Y0170248D01*
X0018978Y0169250D02*
X0031210Y0169250D01*
X0030213Y0170248D02*
X0033376Y0167084D01*
X0032209Y0168251D02*
X0018788Y0168251D01*
X0019513Y0171247D02*
X0030213Y0171247D01*
X0030213Y0172245D02*
X0019833Y0172245D01*
X0020409Y0173244D02*
X0030213Y0173244D01*
X0030213Y0174242D02*
X0020986Y0174242D01*
X0021595Y0175241D02*
X0030733Y0175241D01*
X0031731Y0176239D02*
X0022594Y0176239D01*
X0023592Y0177238D02*
X0032730Y0177238D01*
X0038496Y0177238D02*
X0210213Y0177238D01*
X0210213Y0176239D02*
X0039494Y0176239D01*
X0041013Y0174721D02*
X0041013Y0170248D01*
X0040015Y0169250D02*
X0300813Y0169250D01*
X0300813Y0169315D02*
X0303624Y0172127D01*
X0305313Y0172127D01*
X0305313Y0167627D01*
X0305913Y0167627D01*
X0305913Y0172127D01*
X0307601Y0172127D01*
X0310213Y0169515D01*
X0310213Y0169564D01*
X0313376Y0172727D01*
X0317849Y0172727D01*
X0321013Y0169564D01*
X0321013Y0165090D01*
X0317849Y0161927D01*
X0313376Y0161927D01*
X0310213Y0165090D01*
X0310213Y0165139D01*
X0307601Y0162527D01*
X0305913Y0162527D01*
X0305913Y0167027D01*
X0305313Y0167027D01*
X0305313Y0162527D01*
X0303624Y0162527D01*
X0300813Y0165339D01*
X0300813Y0167027D01*
X0305313Y0167027D01*
X0305313Y0167627D01*
X0300813Y0167627D01*
X0300813Y0169315D01*
X0300813Y0168251D02*
X0039016Y0168251D01*
X0038018Y0167253D02*
X0062462Y0167253D01*
X0068764Y0167253D02*
X0072462Y0167253D01*
X0071463Y0166254D02*
X0069762Y0166254D01*
X0078764Y0167253D02*
X0083310Y0167253D01*
X0082312Y0166254D02*
X0079762Y0166254D01*
X0080761Y0165256D02*
X0081313Y0165256D01*
X0085113Y0165256D02*
X0086113Y0165256D01*
X0086113Y0166254D02*
X0085113Y0166254D01*
X0085113Y0167253D02*
X0086113Y0167253D01*
X0087915Y0167253D02*
X0102462Y0167253D01*
X0103293Y0168084D02*
X0100013Y0164804D01*
X0100013Y0160165D01*
X0103293Y0156884D01*
X0107932Y0156884D01*
X0111037Y0159989D01*
X0113542Y0157484D01*
X0115113Y0157484D01*
X0115113Y0161984D01*
X0116113Y0161984D01*
X0116113Y0157484D01*
X0117684Y0157484D01*
X0120188Y0159989D01*
X0123293Y0156884D01*
X0127932Y0156884D01*
X0130613Y0159565D01*
X0133293Y0156884D01*
X0137932Y0156884D01*
X0140613Y0159565D01*
X0143293Y0156884D01*
X0147932Y0156884D01*
X0150613Y0159565D01*
X0153293Y0156884D01*
X0157932Y0156884D01*
X0161213Y0160165D01*
X0161213Y0164804D01*
X0157932Y0168084D01*
X0153293Y0168084D01*
X0150613Y0165404D01*
X0147932Y0168084D01*
X0143293Y0168084D01*
X0140613Y0165404D01*
X0137932Y0168084D01*
X0133293Y0168084D01*
X0130613Y0165404D01*
X0127932Y0168084D01*
X0123293Y0168084D01*
X0120188Y0164980D01*
X0117684Y0167484D01*
X0116113Y0167484D01*
X0116113Y0162984D01*
X0115113Y0162984D01*
X0115113Y0167484D01*
X0113542Y0167484D01*
X0111037Y0164980D01*
X0107932Y0168084D01*
X0103293Y0168084D01*
X0101463Y0166254D02*
X0088914Y0166254D01*
X0089912Y0165256D02*
X0100465Y0165256D01*
X0100013Y0164257D02*
X0090613Y0164257D01*
X0090613Y0163259D02*
X0100013Y0163259D01*
X0100013Y0162260D02*
X0086113Y0162260D01*
X0086113Y0161984D02*
X0090613Y0161984D01*
X0090613Y0160413D01*
X0087684Y0157484D01*
X0086113Y0157484D01*
X0086113Y0161984D01*
X0086113Y0161262D02*
X0085113Y0161262D01*
X0085113Y0160263D02*
X0086113Y0160263D01*
X0086113Y0159265D02*
X0085113Y0159265D01*
X0085113Y0158266D02*
X0086113Y0158266D01*
X0088466Y0158266D02*
X0101911Y0158266D01*
X0102909Y0157268D02*
X0078316Y0157268D01*
X0079314Y0158266D02*
X0082760Y0158266D01*
X0081761Y0159265D02*
X0080313Y0159265D01*
X0072909Y0157268D02*
X0068316Y0157268D01*
X0069314Y0158266D02*
X0071911Y0158266D01*
X0070912Y0159265D02*
X0070313Y0159265D01*
X0085113Y0163259D02*
X0086113Y0163259D01*
X0086113Y0164257D02*
X0085113Y0164257D01*
X0090613Y0161262D02*
X0100013Y0161262D01*
X0100013Y0160263D02*
X0090463Y0160263D01*
X0089464Y0159265D02*
X0100912Y0159265D01*
X0108316Y0157268D02*
X0122909Y0157268D01*
X0121911Y0158266D02*
X0118466Y0158266D01*
X0119464Y0159265D02*
X0120912Y0159265D01*
X0116113Y0159265D02*
X0115113Y0159265D01*
X0115113Y0160263D02*
X0116113Y0160263D01*
X0116113Y0161262D02*
X0115113Y0161262D01*
X0115113Y0163259D02*
X0116113Y0163259D01*
X0116113Y0164257D02*
X0115113Y0164257D01*
X0115113Y0165256D02*
X0116113Y0165256D01*
X0116113Y0166254D02*
X0115113Y0166254D01*
X0115113Y0167253D02*
X0116113Y0167253D01*
X0117915Y0167253D02*
X0122462Y0167253D01*
X0121463Y0166254D02*
X0118914Y0166254D01*
X0119912Y0165256D02*
X0120465Y0165256D01*
X0113310Y0167253D02*
X0108764Y0167253D01*
X0109762Y0166254D02*
X0112312Y0166254D01*
X0111313Y0165256D02*
X0110761Y0165256D01*
X0110313Y0159265D02*
X0111761Y0159265D01*
X0112760Y0158266D02*
X0109314Y0158266D01*
X0115113Y0158266D02*
X0116113Y0158266D01*
X0128316Y0157268D02*
X0132909Y0157268D01*
X0131911Y0158266D02*
X0129314Y0158266D01*
X0130313Y0159265D02*
X0130912Y0159265D01*
X0138316Y0157268D02*
X0142909Y0157268D01*
X0141911Y0158266D02*
X0139314Y0158266D01*
X0140313Y0159265D02*
X0140912Y0159265D01*
X0148316Y0157268D02*
X0152909Y0157268D01*
X0151911Y0158266D02*
X0149314Y0158266D01*
X0150313Y0159265D02*
X0150912Y0159265D01*
X0158316Y0157268D02*
X0168886Y0157268D01*
X0169048Y0157106D02*
X0170702Y0156421D01*
X0172492Y0156421D01*
X0174146Y0157106D01*
X0175412Y0158372D01*
X0176097Y0160026D01*
X0176097Y0161816D01*
X0175412Y0163470D01*
X0174146Y0164736D01*
X0172492Y0165421D01*
X0170702Y0165421D01*
X0169048Y0164736D01*
X0167782Y0163470D01*
X0167097Y0161816D01*
X0167097Y0160026D01*
X0167782Y0158372D01*
X0169048Y0157106D01*
X0167888Y0158266D02*
X0159314Y0158266D01*
X0160313Y0159265D02*
X0167412Y0159265D01*
X0167097Y0160263D02*
X0161213Y0160263D01*
X0161213Y0161262D02*
X0167097Y0161262D01*
X0167281Y0162260D02*
X0161213Y0162260D01*
X0161213Y0163259D02*
X0167694Y0163259D01*
X0168569Y0164257D02*
X0161213Y0164257D01*
X0160761Y0165256D02*
X0170302Y0165256D01*
X0172891Y0165256D02*
X0230465Y0165256D01*
X0230013Y0164804D02*
X0230013Y0160165D01*
X0233293Y0156884D01*
X0237932Y0156884D01*
X0240613Y0159565D01*
X0243293Y0156884D01*
X0247932Y0156884D01*
X0250613Y0159565D01*
X0253293Y0156884D01*
X0257932Y0156884D01*
X0260613Y0159565D01*
X0263293Y0156884D01*
X0267932Y0156884D01*
X0270613Y0159565D01*
X0273293Y0156884D01*
X0277932Y0156884D01*
X0280613Y0159565D01*
X0283293Y0156884D01*
X0287932Y0156884D01*
X0291213Y0160165D01*
X0291213Y0164804D01*
X0287932Y0168084D01*
X0283293Y0168084D01*
X0280613Y0165404D01*
X0277932Y0168084D01*
X0273293Y0168084D01*
X0270613Y0165404D01*
X0267932Y0168084D01*
X0263293Y0168084D01*
X0260613Y0165404D01*
X0257932Y0168084D01*
X0253293Y0168084D01*
X0250613Y0165404D01*
X0247932Y0168084D01*
X0243293Y0168084D01*
X0240613Y0165404D01*
X0237932Y0168084D01*
X0233293Y0168084D01*
X0230013Y0164804D01*
X0230013Y0164257D02*
X0174625Y0164257D01*
X0175499Y0163259D02*
X0184433Y0163259D01*
X0183434Y0162260D02*
X0175913Y0162260D01*
X0176097Y0161262D02*
X0182436Y0161262D01*
X0182018Y0160263D02*
X0176097Y0160263D01*
X0175781Y0159265D02*
X0182018Y0159265D01*
X0182018Y0158266D02*
X0175306Y0158266D01*
X0174307Y0157268D02*
X0182018Y0157268D01*
X0189172Y0155271D02*
X0204712Y0155271D01*
X0204903Y0155080D02*
X0206218Y0155080D01*
X0206218Y0158680D01*
X0206818Y0158680D01*
X0206818Y0155080D01*
X0208134Y0155080D01*
X0210418Y0157365D01*
X0210418Y0158680D01*
X0206818Y0158680D01*
X0206818Y0159280D01*
X0210418Y0159280D01*
X0210418Y0160596D01*
X0208134Y0162880D01*
X0206818Y0162880D01*
X0206818Y0159280D01*
X0206218Y0159280D01*
X0206218Y0158680D01*
X0202618Y0158680D01*
X0202618Y0157365D01*
X0204903Y0155080D01*
X0206218Y0155271D02*
X0206818Y0155271D01*
X0206818Y0156269D02*
X0206218Y0156269D01*
X0206218Y0157268D02*
X0206818Y0157268D01*
X0206818Y0158266D02*
X0206218Y0158266D01*
X0206218Y0159265D02*
X0191018Y0159265D01*
X0191018Y0160263D02*
X0202618Y0160263D01*
X0202618Y0160596D02*
X0202618Y0159280D01*
X0206218Y0159280D01*
X0206218Y0162880D01*
X0204903Y0162880D01*
X0202618Y0160596D01*
X0203284Y0161262D02*
X0190601Y0161262D01*
X0189602Y0162260D02*
X0204283Y0162260D01*
X0206218Y0162260D02*
X0206818Y0162260D01*
X0206818Y0161262D02*
X0206218Y0161262D01*
X0206218Y0160263D02*
X0206818Y0160263D01*
X0206818Y0159265D02*
X0230912Y0159265D01*
X0230013Y0160263D02*
X0210418Y0160263D01*
X0209752Y0161262D02*
X0230013Y0161262D01*
X0230013Y0162260D02*
X0208754Y0162260D01*
X0210418Y0158266D02*
X0231911Y0158266D01*
X0232909Y0157268D02*
X0210321Y0157268D01*
X0209322Y0156269D02*
X0324756Y0156269D01*
X0324342Y0155271D02*
X0208324Y0155271D01*
X0203714Y0156269D02*
X0190171Y0156269D01*
X0191018Y0157268D02*
X0202715Y0157268D01*
X0202618Y0158266D02*
X0191018Y0158266D01*
X0188604Y0163259D02*
X0230013Y0163259D01*
X0231463Y0166254D02*
X0159762Y0166254D01*
X0158764Y0167253D02*
X0232462Y0167253D01*
X0238764Y0167253D02*
X0242462Y0167253D01*
X0241463Y0166254D02*
X0239762Y0166254D01*
X0248764Y0167253D02*
X0252462Y0167253D01*
X0251463Y0166254D02*
X0249762Y0166254D01*
X0258764Y0167253D02*
X0262462Y0167253D01*
X0261463Y0166254D02*
X0259762Y0166254D01*
X0268764Y0167253D02*
X0272462Y0167253D01*
X0271463Y0166254D02*
X0269762Y0166254D01*
X0278764Y0167253D02*
X0282462Y0167253D01*
X0281463Y0166254D02*
X0279762Y0166254D01*
X0288764Y0167253D02*
X0305313Y0167253D01*
X0305313Y0168251D02*
X0305913Y0168251D01*
X0305913Y0169250D02*
X0305313Y0169250D01*
X0305313Y0170248D02*
X0305913Y0170248D01*
X0305913Y0171247D02*
X0305313Y0171247D01*
X0302745Y0171247D02*
X0219059Y0171247D01*
X0218061Y0170248D02*
X0301746Y0170248D01*
X0300813Y0166254D02*
X0289762Y0166254D01*
X0290761Y0165256D02*
X0300895Y0165256D01*
X0301894Y0164257D02*
X0291213Y0164257D01*
X0291213Y0163259D02*
X0302892Y0163259D01*
X0305313Y0163259D02*
X0305913Y0163259D01*
X0305913Y0164257D02*
X0305313Y0164257D01*
X0305313Y0165256D02*
X0305913Y0165256D01*
X0305913Y0166254D02*
X0305313Y0166254D01*
X0308333Y0163259D02*
X0312044Y0163259D01*
X0313042Y0162260D02*
X0291213Y0162260D01*
X0291213Y0161262D02*
X0330594Y0161262D01*
X0328183Y0160263D02*
X0291213Y0160263D01*
X0290313Y0159265D02*
X0326890Y0159265D01*
X0325892Y0158266D02*
X0289314Y0158266D01*
X0288316Y0157268D02*
X0325169Y0157268D01*
X0324591Y0150278D02*
X0075075Y0150278D01*
X0075075Y0149280D02*
X0325005Y0149280D01*
X0325494Y0148281D02*
X0075075Y0148281D01*
X0075075Y0147283D02*
X0184205Y0147283D01*
X0184654Y0147732D02*
X0182018Y0145096D01*
X0182018Y0141368D01*
X0184654Y0138732D01*
X0188382Y0138732D01*
X0191018Y0141368D01*
X0191018Y0145096D01*
X0188382Y0147732D01*
X0184654Y0147732D01*
X0183206Y0146284D02*
X0172823Y0146284D01*
X0172492Y0146421D02*
X0174146Y0145736D01*
X0175412Y0144470D01*
X0176097Y0142816D01*
X0176097Y0141026D01*
X0175412Y0139372D01*
X0174146Y0138106D01*
X0172492Y0137421D01*
X0170702Y0137421D01*
X0169048Y0138106D01*
X0167782Y0139372D01*
X0167097Y0141026D01*
X0167097Y0142816D01*
X0167782Y0144470D01*
X0169048Y0145736D01*
X0170702Y0146421D01*
X0172492Y0146421D01*
X0170371Y0146284D02*
X0113177Y0146284D01*
X0112477Y0146984D02*
X0108749Y0146984D01*
X0106113Y0144348D01*
X0106113Y0140620D01*
X0108749Y0137984D01*
X0112477Y0137984D01*
X0115113Y0140620D01*
X0115113Y0144348D01*
X0112477Y0146984D01*
X0114175Y0145286D02*
X0168597Y0145286D01*
X0167706Y0144287D02*
X0115113Y0144287D01*
X0115113Y0143289D02*
X0167292Y0143289D01*
X0167097Y0142290D02*
X0115113Y0142290D01*
X0115113Y0141292D02*
X0167097Y0141292D01*
X0167400Y0140293D02*
X0114785Y0140293D01*
X0113787Y0139295D02*
X0167860Y0139295D01*
X0168858Y0138296D02*
X0112788Y0138296D01*
X0108437Y0138296D02*
X0073913Y0138296D01*
X0073913Y0137298D02*
X0210213Y0137298D01*
X0210213Y0137674D02*
X0210213Y0133200D01*
X0213376Y0130037D01*
X0213654Y0130037D01*
X0212766Y0129669D01*
X0211353Y0128256D01*
X0210613Y0126469D01*
X0209873Y0128256D01*
X0208459Y0129669D01*
X0206612Y0130434D01*
X0204613Y0130434D01*
X0202766Y0129669D01*
X0201353Y0128256D01*
X0200613Y0126469D01*
X0199873Y0128256D01*
X0198459Y0129669D01*
X0196612Y0130434D01*
X0194613Y0130434D01*
X0192766Y0129669D01*
X0191353Y0128256D01*
X0190588Y0126409D01*
X0190588Y0118560D01*
X0191353Y0116713D01*
X0192766Y0115299D01*
X0194613Y0114534D01*
X0196612Y0114534D01*
X0198459Y0115299D01*
X0199873Y0116713D01*
X0200613Y0118499D01*
X0201353Y0116713D01*
X0202766Y0115299D01*
X0204613Y0114534D01*
X0206612Y0114534D01*
X0208459Y0115299D01*
X0209873Y0116713D01*
X0210613Y0118499D01*
X0211353Y0116713D01*
X0212766Y0115299D01*
X0214613Y0114534D01*
X0216612Y0114534D01*
X0218459Y0115299D01*
X0219873Y0116713D01*
X0220613Y0118499D01*
X0221353Y0116713D01*
X0222766Y0115299D01*
X0224613Y0114534D01*
X0226612Y0114534D01*
X0228459Y0115299D01*
X0229873Y0116713D01*
X0230613Y0118499D01*
X0231353Y0116713D01*
X0232766Y0115299D01*
X0234613Y0114534D01*
X0236612Y0114534D01*
X0238459Y0115299D01*
X0239873Y0116713D01*
X0240613Y0118499D01*
X0241353Y0116713D01*
X0242766Y0115299D01*
X0244613Y0114534D01*
X0246612Y0114534D01*
X0248459Y0115299D01*
X0249873Y0116713D01*
X0250613Y0118499D01*
X0251353Y0116713D01*
X0252766Y0115299D01*
X0254613Y0114534D01*
X0256612Y0114534D01*
X0258459Y0115299D01*
X0259873Y0116713D01*
X0260613Y0118499D01*
X0261353Y0116713D01*
X0262766Y0115299D01*
X0263542Y0114978D01*
X0262381Y0114978D01*
X0261150Y0113748D01*
X0261150Y0107284D01*
X0262313Y0106121D01*
X0262313Y0091879D01*
X0261150Y0090716D01*
X0261150Y0084252D01*
X0262381Y0083022D01*
X0268845Y0083022D01*
X0270075Y0084252D01*
X0270075Y0090716D01*
X0268913Y0091879D01*
X0268913Y0106121D01*
X0270075Y0107284D01*
X0270075Y0113748D01*
X0268845Y0114978D01*
X0267683Y0114978D01*
X0268459Y0115299D01*
X0269873Y0116713D01*
X0270613Y0118499D01*
X0271353Y0116713D01*
X0272766Y0115299D01*
X0274613Y0114534D01*
X0276612Y0114534D01*
X0278459Y0115299D01*
X0279873Y0116713D01*
X0280613Y0118499D01*
X0281353Y0116713D01*
X0282766Y0115299D01*
X0284613Y0114534D01*
X0286612Y0114534D01*
X0288459Y0115299D01*
X0289873Y0116713D01*
X0290613Y0118499D01*
X0291353Y0116713D01*
X0292766Y0115299D01*
X0294613Y0114534D01*
X0296612Y0114534D01*
X0298459Y0115299D01*
X0299873Y0116713D01*
X0300638Y0118560D01*
X0300638Y0126409D01*
X0299873Y0128256D01*
X0298459Y0129669D01*
X0296612Y0130434D01*
X0294613Y0130434D01*
X0292766Y0129669D01*
X0291353Y0128256D01*
X0290613Y0126469D01*
X0289873Y0128256D01*
X0288459Y0129669D01*
X0286612Y0130434D01*
X0284613Y0130434D01*
X0282766Y0129669D01*
X0281353Y0128256D01*
X0280613Y0126469D01*
X0279873Y0128256D01*
X0278459Y0129669D01*
X0276612Y0130434D01*
X0274613Y0130434D01*
X0272766Y0129669D01*
X0271353Y0128256D01*
X0270613Y0126469D01*
X0269873Y0128256D01*
X0268459Y0129669D01*
X0266612Y0130434D01*
X0264613Y0130434D01*
X0262766Y0129669D01*
X0261353Y0128256D01*
X0260613Y0126469D01*
X0259873Y0128256D01*
X0258459Y0129669D01*
X0256612Y0130434D01*
X0254613Y0130434D01*
X0252766Y0129669D01*
X0251353Y0128256D01*
X0250613Y0126469D01*
X0249873Y0128256D01*
X0248459Y0129669D01*
X0246612Y0130434D01*
X0244613Y0130434D01*
X0242766Y0129669D01*
X0241353Y0128256D01*
X0240613Y0126469D01*
X0239873Y0128256D01*
X0238459Y0129669D01*
X0236612Y0130434D01*
X0234613Y0130434D01*
X0232766Y0129669D01*
X0231353Y0128256D01*
X0230613Y0126469D01*
X0229873Y0128256D01*
X0228459Y0129669D01*
X0226612Y0130434D01*
X0224613Y0130434D01*
X0222766Y0129669D01*
X0221353Y0128256D01*
X0220613Y0126469D01*
X0219873Y0128256D01*
X0218459Y0129669D01*
X0217571Y0130037D01*
X0217849Y0130037D01*
X0221013Y0133200D01*
X0221013Y0137674D01*
X0217849Y0140837D01*
X0213376Y0140837D01*
X0210213Y0137674D01*
X0210835Y0138296D02*
X0174336Y0138296D01*
X0175334Y0139295D02*
X0184092Y0139295D01*
X0183093Y0140293D02*
X0175793Y0140293D01*
X0176097Y0141292D02*
X0182095Y0141292D01*
X0182018Y0142290D02*
X0176097Y0142290D01*
X0175901Y0143289D02*
X0182018Y0143289D01*
X0182018Y0144287D02*
X0175488Y0144287D01*
X0174596Y0145286D02*
X0182208Y0145286D01*
X0188832Y0147283D02*
X0326493Y0147283D01*
X0327491Y0146284D02*
X0208982Y0146284D01*
X0208134Y0147132D02*
X0210418Y0144848D01*
X0210418Y0143532D01*
X0206818Y0143532D01*
X0206818Y0142932D01*
X0206818Y0139332D01*
X0208134Y0139332D01*
X0210418Y0141617D01*
X0210418Y0142932D01*
X0206818Y0142932D01*
X0206218Y0142932D01*
X0206218Y0139332D01*
X0204903Y0139332D01*
X0202618Y0141617D01*
X0202618Y0142932D01*
X0206218Y0142932D01*
X0206218Y0143532D01*
X0202618Y0143532D01*
X0202618Y0144848D01*
X0204903Y0147132D01*
X0206218Y0147132D01*
X0206218Y0143532D01*
X0206818Y0143532D01*
X0206818Y0147132D01*
X0208134Y0147132D01*
X0206818Y0146284D02*
X0206218Y0146284D01*
X0206218Y0145286D02*
X0206818Y0145286D01*
X0206818Y0144287D02*
X0206218Y0144287D01*
X0206218Y0143289D02*
X0191018Y0143289D01*
X0191018Y0144287D02*
X0202618Y0144287D01*
X0203056Y0145286D02*
X0190829Y0145286D01*
X0189830Y0146284D02*
X0204055Y0146284D01*
X0206818Y0143289D02*
X0302345Y0143289D01*
X0303344Y0144287D02*
X0210418Y0144287D01*
X0209980Y0145286D02*
X0329633Y0145286D01*
X0335056Y0145286D02*
X0341893Y0145286D01*
X0341828Y0145376D02*
X0342318Y0144701D01*
X0342908Y0144111D01*
X0343583Y0143621D01*
X0344326Y0143242D01*
X0345120Y0142984D01*
X0345861Y0142867D01*
X0345861Y0147653D01*
X0346861Y0147653D01*
X0346861Y0142867D01*
X0347602Y0142984D01*
X0348395Y0143242D01*
X0349138Y0143621D01*
X0349813Y0144111D01*
X0350403Y0144701D01*
X0350894Y0145376D01*
X0351272Y0146119D01*
X0351530Y0146912D01*
X0351647Y0147654D01*
X0346861Y0147654D01*
X0346861Y0148654D01*
X0345861Y0148654D01*
X0345861Y0153440D01*
X0345120Y0153323D01*
X0344326Y0153065D01*
X0343583Y0152687D01*
X0342908Y0152196D01*
X0342318Y0151606D01*
X0341828Y0150931D01*
X0341449Y0150188D01*
X0341191Y0149395D01*
X0341074Y0148654D01*
X0345861Y0148654D01*
X0345861Y0147654D01*
X0341074Y0147654D01*
X0341191Y0146912D01*
X0341449Y0146119D01*
X0341828Y0145376D01*
X0341395Y0146284D02*
X0337199Y0146284D01*
X0338197Y0147283D02*
X0341132Y0147283D01*
X0341173Y0149280D02*
X0339685Y0149280D01*
X0340099Y0150278D02*
X0341495Y0150278D01*
X0342079Y0151277D02*
X0340512Y0151277D01*
X0340579Y0152275D02*
X0343017Y0152275D01*
X0344968Y0153274D02*
X0340579Y0153274D01*
X0340579Y0154272D02*
X0404261Y0154272D01*
X0404261Y0153274D02*
X0389417Y0153274D01*
X0389703Y0153155D02*
X0387534Y0154054D01*
X0385187Y0154054D01*
X0383019Y0153155D01*
X0381359Y0151496D01*
X0380461Y0149327D01*
X0380461Y0146980D01*
X0381359Y0144811D01*
X0383019Y0143152D01*
X0385187Y0142254D01*
X0387534Y0142254D01*
X0389703Y0143152D01*
X0391362Y0144811D01*
X0392261Y0146980D01*
X0392261Y0149327D01*
X0391362Y0151496D01*
X0389703Y0153155D01*
X0390583Y0152275D02*
X0404261Y0152275D01*
X0404261Y0151277D02*
X0391453Y0151277D01*
X0391867Y0150278D02*
X0404261Y0150278D01*
X0404261Y0149280D02*
X0392261Y0149280D01*
X0392261Y0148281D02*
X0404261Y0148281D01*
X0404261Y0147283D02*
X0392261Y0147283D01*
X0391972Y0146284D02*
X0404261Y0146284D01*
X0404261Y0145286D02*
X0391559Y0145286D01*
X0390838Y0144287D02*
X0404261Y0144287D01*
X0404261Y0143289D02*
X0389840Y0143289D01*
X0387622Y0142290D02*
X0404261Y0142290D01*
X0404261Y0141292D02*
X0321013Y0141292D01*
X0321013Y0142004D02*
X0317849Y0145168D01*
X0313376Y0145168D01*
X0310213Y0142004D01*
X0310213Y0141956D01*
X0307601Y0144568D01*
X0305913Y0144568D01*
X0305913Y0140068D01*
X0305313Y0140068D01*
X0305313Y0144568D01*
X0303624Y0144568D01*
X0300813Y0141756D01*
X0300813Y0140068D01*
X0305313Y0140068D01*
X0305313Y0139468D01*
X0305913Y0139468D01*
X0305913Y0134968D01*
X0307601Y0134968D01*
X0310213Y0137580D01*
X0310213Y0137531D01*
X0313376Y0134368D01*
X0317849Y0134368D01*
X0321013Y0137531D01*
X0321013Y0142004D01*
X0320727Y0142290D02*
X0385099Y0142290D01*
X0382882Y0143289D02*
X0348487Y0143289D01*
X0346861Y0143289D02*
X0345861Y0143289D01*
X0345861Y0144287D02*
X0346861Y0144287D01*
X0346861Y0145286D02*
X0345861Y0145286D01*
X0345861Y0146284D02*
X0346861Y0146284D01*
X0346861Y0147283D02*
X0345861Y0147283D01*
X0345861Y0148281D02*
X0339196Y0148281D01*
X0345861Y0149280D02*
X0346861Y0149280D01*
X0346861Y0148654D02*
X0346861Y0153440D01*
X0347602Y0153323D01*
X0348395Y0153065D01*
X0349138Y0152687D01*
X0349813Y0152196D01*
X0350403Y0151606D01*
X0350894Y0150931D01*
X0351272Y0150188D01*
X0351530Y0149395D01*
X0351647Y0148654D01*
X0346861Y0148654D01*
X0346861Y0148281D02*
X0380461Y0148281D01*
X0380461Y0147283D02*
X0351589Y0147283D01*
X0351326Y0146284D02*
X0380749Y0146284D01*
X0381162Y0145286D02*
X0350828Y0145286D01*
X0349990Y0144287D02*
X0381883Y0144287D01*
X0380461Y0149280D02*
X0351548Y0149280D01*
X0351226Y0150278D02*
X0380855Y0150278D01*
X0381268Y0151277D02*
X0350643Y0151277D01*
X0349705Y0152275D02*
X0382138Y0152275D01*
X0383304Y0153274D02*
X0347753Y0153274D01*
X0346861Y0153274D02*
X0345861Y0153274D01*
X0345861Y0152275D02*
X0346861Y0152275D01*
X0346861Y0151277D02*
X0345861Y0151277D01*
X0345861Y0150278D02*
X0346861Y0150278D01*
X0340348Y0155271D02*
X0404261Y0155271D01*
X0404261Y0156269D02*
X0339934Y0156269D01*
X0339520Y0157268D02*
X0404261Y0157268D01*
X0404261Y0158266D02*
X0338798Y0158266D01*
X0337799Y0159265D02*
X0404261Y0159265D01*
X0404261Y0160263D02*
X0386306Y0160263D01*
X0386533Y0160358D02*
X0387968Y0161792D01*
X0388744Y0163667D01*
X0388744Y0171696D01*
X0387968Y0173570D01*
X0386533Y0175005D01*
X0384659Y0175781D01*
X0382630Y0175781D01*
X0380755Y0175005D01*
X0379321Y0173570D01*
X0378644Y0171937D01*
X0377968Y0173570D01*
X0376533Y0175005D01*
X0374659Y0175781D01*
X0372630Y0175781D01*
X0370755Y0175005D01*
X0369321Y0173570D01*
X0368644Y0171937D01*
X0367968Y0173570D01*
X0366533Y0175005D01*
X0364659Y0175781D01*
X0362630Y0175781D01*
X0360755Y0175005D01*
X0359321Y0173570D01*
X0358544Y0171696D01*
X0358544Y0163667D01*
X0359321Y0161792D01*
X0360755Y0160358D01*
X0362630Y0159581D01*
X0364659Y0159581D01*
X0366533Y0160358D01*
X0367968Y0161792D01*
X0368644Y0163425D01*
X0369321Y0161792D01*
X0370755Y0160358D01*
X0372630Y0159581D01*
X0374659Y0159581D01*
X0376533Y0160358D01*
X0377968Y0161792D01*
X0378644Y0163425D01*
X0379321Y0161792D01*
X0380755Y0160358D01*
X0382630Y0159581D01*
X0384659Y0159581D01*
X0386533Y0160358D01*
X0387437Y0161262D02*
X0404261Y0161262D01*
X0404261Y0162260D02*
X0388162Y0162260D01*
X0388575Y0163259D02*
X0404261Y0163259D01*
X0404261Y0164257D02*
X0388744Y0164257D01*
X0388744Y0165256D02*
X0404261Y0165256D01*
X0404261Y0166254D02*
X0388744Y0166254D01*
X0388744Y0167253D02*
X0404234Y0167253D01*
X0404169Y0168251D02*
X0388744Y0168251D01*
X0388744Y0169250D02*
X0403979Y0169250D01*
X0403712Y0170248D02*
X0388744Y0170248D01*
X0388744Y0171247D02*
X0403444Y0171247D01*
X0403125Y0172245D02*
X0388516Y0172245D01*
X0388103Y0173244D02*
X0402548Y0173244D01*
X0401972Y0174242D02*
X0387295Y0174242D01*
X0385963Y0175241D02*
X0401362Y0175241D01*
X0400364Y0176239D02*
X0221013Y0176239D01*
X0221013Y0175241D02*
X0361326Y0175241D01*
X0359993Y0174242D02*
X0221013Y0174242D01*
X0221013Y0173244D02*
X0359185Y0173244D01*
X0358772Y0172245D02*
X0318331Y0172245D01*
X0319329Y0171247D02*
X0358544Y0171247D01*
X0358544Y0170248D02*
X0320328Y0170248D01*
X0321013Y0169250D02*
X0358544Y0169250D01*
X0358544Y0168251D02*
X0321013Y0168251D01*
X0321013Y0167253D02*
X0358544Y0167253D01*
X0358544Y0166254D02*
X0321013Y0166254D01*
X0321013Y0165256D02*
X0358544Y0165256D01*
X0358544Y0164257D02*
X0320180Y0164257D01*
X0319181Y0163259D02*
X0358713Y0163259D01*
X0359127Y0162260D02*
X0318183Y0162260D01*
X0311045Y0164257D02*
X0309331Y0164257D01*
X0309479Y0170248D02*
X0310898Y0170248D01*
X0311896Y0171247D02*
X0308481Y0171247D01*
X0312895Y0172245D02*
X0220058Y0172245D01*
X0221013Y0177238D02*
X0399365Y0177238D01*
X0397961Y0178237D02*
X0220450Y0178237D01*
X0219451Y0179235D02*
X0396231Y0179235D01*
X0392962Y0180234D02*
X0218453Y0180234D01*
X0212772Y0180234D02*
X0029996Y0180234D01*
X0026726Y0179235D02*
X0211774Y0179235D01*
X0210775Y0178237D02*
X0024997Y0178237D01*
X0075075Y0146284D02*
X0088897Y0146284D01*
X0088997Y0146384D02*
X0086713Y0144100D01*
X0086713Y0142784D01*
X0090313Y0142784D01*
X0090313Y0146384D01*
X0088997Y0146384D01*
X0090313Y0146284D02*
X0090913Y0146284D01*
X0090913Y0146384D02*
X0092228Y0146384D01*
X0094513Y0144100D01*
X0094513Y0142784D01*
X0090913Y0142784D01*
X0090913Y0142184D01*
X0094513Y0142184D01*
X0094513Y0140869D01*
X0092228Y0138584D01*
X0090913Y0138584D01*
X0090913Y0142184D01*
X0090313Y0142184D01*
X0090313Y0138584D01*
X0088997Y0138584D01*
X0086713Y0140869D01*
X0086713Y0142184D01*
X0090313Y0142184D01*
X0090313Y0142784D01*
X0090913Y0142784D01*
X0090913Y0146384D01*
X0090913Y0145286D02*
X0090313Y0145286D01*
X0090313Y0144287D02*
X0090913Y0144287D01*
X0090913Y0143289D02*
X0090313Y0143289D01*
X0090313Y0142290D02*
X0073913Y0142290D01*
X0073913Y0141292D02*
X0086713Y0141292D01*
X0087288Y0140293D02*
X0073913Y0140293D01*
X0073913Y0139295D02*
X0088287Y0139295D01*
X0090313Y0139295D02*
X0090913Y0139295D01*
X0090913Y0140293D02*
X0090313Y0140293D01*
X0090313Y0141292D02*
X0090913Y0141292D01*
X0090913Y0142290D02*
X0106113Y0142290D01*
X0106113Y0141292D02*
X0094513Y0141292D01*
X0093937Y0140293D02*
X0106440Y0140293D01*
X0107438Y0139295D02*
X0092938Y0139295D01*
X0094513Y0143289D02*
X0106113Y0143289D01*
X0106113Y0144287D02*
X0094325Y0144287D01*
X0093327Y0145286D02*
X0107050Y0145286D01*
X0108049Y0146284D02*
X0092328Y0146284D01*
X0087899Y0145286D02*
X0075075Y0145286D01*
X0075075Y0144287D02*
X0086900Y0144287D01*
X0086713Y0143289D02*
X0074111Y0143289D01*
X0067313Y0140293D02*
X0061678Y0140293D01*
X0062676Y0139295D02*
X0067313Y0139295D01*
X0067313Y0138296D02*
X0062913Y0138296D01*
X0062913Y0137284D02*
X0059313Y0137284D01*
X0059313Y0133684D01*
X0060687Y0133684D01*
X0062913Y0135910D01*
X0062913Y0137284D01*
X0062913Y0136299D02*
X0067313Y0136299D01*
X0067313Y0135301D02*
X0062303Y0135301D01*
X0061304Y0134302D02*
X0067313Y0134302D01*
X0067313Y0137298D02*
X0059313Y0137298D01*
X0059313Y0138296D02*
X0058913Y0138296D01*
X0058913Y0139295D02*
X0059313Y0139295D01*
X0059313Y0140293D02*
X0058913Y0140293D01*
X0056547Y0140293D02*
X0055526Y0140293D01*
X0058913Y0136299D02*
X0059313Y0136299D01*
X0059313Y0135301D02*
X0058913Y0135301D01*
X0058913Y0134302D02*
X0059313Y0134302D01*
X0056921Y0134302D02*
X0055153Y0134302D01*
X0049072Y0134302D02*
X0040413Y0134302D01*
X0039585Y0135301D02*
X0048255Y0135301D01*
X0047841Y0136299D02*
X0038586Y0136299D01*
X0035913Y0136299D02*
X0035313Y0136299D01*
X0035313Y0135301D02*
X0035913Y0135301D01*
X0035913Y0134302D02*
X0035313Y0134302D01*
X0035313Y0133303D02*
X0035913Y0133303D01*
X0035313Y0132184D02*
X0030813Y0132184D01*
X0030813Y0130496D01*
X0033624Y0127684D01*
X0035313Y0127684D01*
X0035313Y0132184D01*
X0035313Y0131306D02*
X0035913Y0131306D01*
X0035913Y0130308D02*
X0035313Y0130308D01*
X0035313Y0129309D02*
X0035913Y0129309D01*
X0035913Y0128311D02*
X0035313Y0128311D01*
X0032998Y0128311D02*
X0018697Y0128311D01*
X0018697Y0129309D02*
X0031999Y0129309D01*
X0031001Y0130308D02*
X0018697Y0130308D01*
X0018697Y0131306D02*
X0030813Y0131306D01*
X0018697Y0127312D02*
X0067313Y0127312D01*
X0067313Y0126314D02*
X0018697Y0126314D01*
X0018697Y0125315D02*
X0067313Y0125315D01*
X0067313Y0124317D02*
X0042752Y0124317D01*
X0044941Y0123318D02*
X0067313Y0123318D01*
X0067313Y0122320D02*
X0045939Y0122320D01*
X0046938Y0121321D02*
X0067313Y0121321D01*
X0067313Y0120323D02*
X0047507Y0120323D01*
X0047920Y0119324D02*
X0067313Y0119324D01*
X0067313Y0118326D02*
X0048334Y0118326D01*
X0048513Y0117327D02*
X0067313Y0117327D01*
X0067313Y0116329D02*
X0048513Y0116329D01*
X0048513Y0115330D02*
X0067313Y0115330D01*
X0067313Y0114332D02*
X0048454Y0114332D01*
X0048040Y0113333D02*
X0067313Y0113333D01*
X0067313Y0112335D02*
X0047627Y0112335D01*
X0047213Y0111336D02*
X0067313Y0111336D01*
X0067313Y0110338D02*
X0046228Y0110338D01*
X0045230Y0109339D02*
X0067313Y0109339D01*
X0067313Y0108341D02*
X0043449Y0108341D01*
X0062104Y0101351D02*
X0067313Y0101351D01*
X0067313Y0100353D02*
X0063037Y0100353D01*
X0063450Y0099354D02*
X0067313Y0099354D01*
X0067313Y0098356D02*
X0063813Y0098356D01*
X0063813Y0097357D02*
X0067313Y0097357D01*
X0066793Y0096359D02*
X0063813Y0096359D01*
X0063410Y0095360D02*
X0066150Y0095360D01*
X0066150Y0094362D02*
X0062997Y0094362D01*
X0062007Y0093363D02*
X0066150Y0093363D01*
X0066150Y0092365D02*
X0060931Y0092365D01*
X0062246Y0091366D02*
X0066150Y0091366D01*
X0066150Y0090368D02*
X0063096Y0090368D01*
X0063509Y0089369D02*
X0066150Y0089369D01*
X0067032Y0088370D02*
X0063813Y0088370D01*
X0063813Y0087372D02*
X0190016Y0087372D01*
X0190016Y0088370D02*
X0094193Y0088370D01*
X0093845Y0088022D02*
X0095075Y0089252D01*
X0095075Y0095716D01*
X0093913Y0096879D01*
X0093913Y0118090D01*
X0095075Y0119252D01*
X0095075Y0125716D01*
X0093845Y0126946D01*
X0087381Y0126946D01*
X0086150Y0125716D01*
X0086150Y0119252D01*
X0087313Y0118090D01*
X0087313Y0096879D01*
X0086150Y0095716D01*
X0086150Y0089252D01*
X0087381Y0088022D01*
X0093845Y0088022D01*
X0095075Y0089369D02*
X0190016Y0089369D01*
X0190016Y0090351D02*
X0190016Y0085877D01*
X0193179Y0082714D01*
X0197652Y0082714D01*
X0200816Y0085877D01*
X0200816Y0090351D01*
X0197652Y0093514D01*
X0193179Y0093514D01*
X0190016Y0090351D01*
X0190032Y0090368D02*
X0095075Y0090368D01*
X0095075Y0091366D02*
X0191031Y0091366D01*
X0192029Y0092365D02*
X0095075Y0092365D01*
X0095075Y0093363D02*
X0193028Y0093363D01*
X0197804Y0093363D02*
X0233028Y0093363D01*
X0233179Y0093514D02*
X0230016Y0090351D01*
X0230016Y0085877D01*
X0233179Y0082714D01*
X0237652Y0082714D01*
X0240816Y0085877D01*
X0240816Y0090351D01*
X0237652Y0093514D01*
X0233179Y0093514D01*
X0232029Y0092365D02*
X0198802Y0092365D01*
X0199801Y0091366D02*
X0231031Y0091366D01*
X0230032Y0090368D02*
X0200799Y0090368D01*
X0200816Y0089369D02*
X0230016Y0089369D01*
X0230016Y0088370D02*
X0200816Y0088370D01*
X0200816Y0087372D02*
X0230016Y0087372D01*
X0230016Y0086373D02*
X0200816Y0086373D01*
X0200313Y0085375D02*
X0230518Y0085375D01*
X0231517Y0084376D02*
X0199315Y0084376D01*
X0198316Y0083378D02*
X0232515Y0083378D01*
X0238316Y0083378D02*
X0262025Y0083378D01*
X0261150Y0084376D02*
X0239315Y0084376D01*
X0240313Y0085375D02*
X0261150Y0085375D01*
X0261150Y0086373D02*
X0240816Y0086373D01*
X0240816Y0087372D02*
X0261150Y0087372D01*
X0261150Y0088370D02*
X0240816Y0088370D01*
X0240816Y0089369D02*
X0261150Y0089369D01*
X0261150Y0090368D02*
X0240799Y0090368D01*
X0239801Y0091366D02*
X0261800Y0091366D01*
X0262313Y0092365D02*
X0238802Y0092365D01*
X0237804Y0093363D02*
X0262313Y0093363D01*
X0262313Y0094362D02*
X0095075Y0094362D01*
X0095075Y0095360D02*
X0262313Y0095360D01*
X0262313Y0096359D02*
X0094433Y0096359D01*
X0093913Y0097357D02*
X0262313Y0097357D01*
X0262313Y0098356D02*
X0093913Y0098356D01*
X0093913Y0099354D02*
X0262313Y0099354D01*
X0262313Y0100353D02*
X0093913Y0100353D01*
X0093913Y0101351D02*
X0262313Y0101351D01*
X0262313Y0102350D02*
X0093913Y0102350D01*
X0093913Y0103348D02*
X0262313Y0103348D01*
X0262313Y0104347D02*
X0093913Y0104347D01*
X0093913Y0105345D02*
X0262313Y0105345D01*
X0262090Y0106344D02*
X0093913Y0106344D01*
X0093913Y0107342D02*
X0261150Y0107342D01*
X0261150Y0108341D02*
X0093913Y0108341D01*
X0093913Y0109339D02*
X0261150Y0109339D01*
X0261150Y0110338D02*
X0093913Y0110338D01*
X0093913Y0111336D02*
X0261150Y0111336D01*
X0261150Y0112335D02*
X0093913Y0112335D01*
X0093913Y0113333D02*
X0261150Y0113333D01*
X0261734Y0114332D02*
X0093913Y0114332D01*
X0093913Y0115330D02*
X0102735Y0115330D01*
X0102766Y0115299D02*
X0104613Y0114534D01*
X0106612Y0114534D01*
X0108459Y0115299D01*
X0109873Y0116713D01*
X0110613Y0118499D01*
X0111353Y0116713D01*
X0112766Y0115299D01*
X0114613Y0114534D01*
X0116612Y0114534D01*
X0118459Y0115299D01*
X0119873Y0116713D01*
X0120613Y0118499D01*
X0121353Y0116713D01*
X0122766Y0115299D01*
X0124613Y0114534D01*
X0126612Y0114534D01*
X0128459Y0115299D01*
X0129873Y0116713D01*
X0130613Y0118499D01*
X0131353Y0116713D01*
X0132766Y0115299D01*
X0134613Y0114534D01*
X0136612Y0114534D01*
X0138459Y0115299D01*
X0139873Y0116713D01*
X0140613Y0118499D01*
X0141353Y0116713D01*
X0142766Y0115299D01*
X0144613Y0114534D01*
X0146612Y0114534D01*
X0148459Y0115299D01*
X0149873Y0116713D01*
X0150613Y0118499D01*
X0151353Y0116713D01*
X0152766Y0115299D01*
X0154613Y0114534D01*
X0156612Y0114534D01*
X0158459Y0115299D01*
X0159873Y0116713D01*
X0160613Y0118499D01*
X0161353Y0116713D01*
X0162766Y0115299D01*
X0164613Y0114534D01*
X0166612Y0114534D01*
X0168459Y0115299D01*
X0169873Y0116713D01*
X0170613Y0118499D01*
X0171353Y0116713D01*
X0172766Y0115299D01*
X0174613Y0114534D01*
X0176612Y0114534D01*
X0178459Y0115299D01*
X0179873Y0116713D01*
X0180638Y0118560D01*
X0180638Y0126409D01*
X0179873Y0128256D01*
X0178459Y0129669D01*
X0176612Y0130434D01*
X0174613Y0130434D01*
X0172766Y0129669D01*
X0171353Y0128256D01*
X0170613Y0126469D01*
X0169873Y0128256D01*
X0168459Y0129669D01*
X0166612Y0130434D01*
X0164613Y0130434D01*
X0162766Y0129669D01*
X0161353Y0128256D01*
X0160613Y0126469D01*
X0159873Y0128256D01*
X0158459Y0129669D01*
X0156612Y0130434D01*
X0154613Y0130434D01*
X0152766Y0129669D01*
X0151353Y0128256D01*
X0150613Y0126469D01*
X0149873Y0128256D01*
X0148459Y0129669D01*
X0146612Y0130434D01*
X0144613Y0130434D01*
X0142766Y0129669D01*
X0141353Y0128256D01*
X0140613Y0126469D01*
X0139873Y0128256D01*
X0138459Y0129669D01*
X0136612Y0130434D01*
X0134613Y0130434D01*
X0132766Y0129669D01*
X0131353Y0128256D01*
X0130613Y0126469D01*
X0129873Y0128256D01*
X0128459Y0129669D01*
X0126612Y0130434D01*
X0124613Y0130434D01*
X0122766Y0129669D01*
X0121353Y0128256D01*
X0120613Y0126469D01*
X0119873Y0128256D01*
X0118459Y0129669D01*
X0116612Y0130434D01*
X0114613Y0130434D01*
X0112766Y0129669D01*
X0111353Y0128256D01*
X0110613Y0126469D01*
X0109873Y0128256D01*
X0108459Y0129669D01*
X0106612Y0130434D01*
X0104613Y0130434D01*
X0102766Y0129669D01*
X0101353Y0128256D01*
X0100588Y0126409D01*
X0100588Y0118560D01*
X0101353Y0116713D01*
X0102766Y0115299D01*
X0101737Y0116329D02*
X0093913Y0116329D01*
X0093913Y0117327D02*
X0101098Y0117327D01*
X0100684Y0118326D02*
X0094148Y0118326D01*
X0095075Y0119324D02*
X0100588Y0119324D01*
X0100588Y0120323D02*
X0095075Y0120323D01*
X0095075Y0121321D02*
X0100588Y0121321D01*
X0100588Y0122320D02*
X0095075Y0122320D01*
X0095075Y0123318D02*
X0100588Y0123318D01*
X0100588Y0124317D02*
X0095075Y0124317D01*
X0095075Y0125315D02*
X0100588Y0125315D01*
X0100588Y0126314D02*
X0094477Y0126314D01*
X0100962Y0127312D02*
X0073913Y0127312D01*
X0073913Y0126314D02*
X0076748Y0126314D01*
X0076150Y0125716D02*
X0077381Y0126946D01*
X0083845Y0126946D01*
X0085075Y0125716D01*
X0085075Y0119252D01*
X0083913Y0118090D01*
X0083913Y0096879D01*
X0085075Y0095716D01*
X0085075Y0089252D01*
X0083845Y0088022D01*
X0077381Y0088022D01*
X0076150Y0089252D01*
X0076150Y0095716D01*
X0077313Y0096879D01*
X0077313Y0118090D01*
X0076150Y0119252D01*
X0076150Y0125716D01*
X0076150Y0125315D02*
X0073913Y0125315D01*
X0073913Y0124317D02*
X0076150Y0124317D01*
X0076150Y0123318D02*
X0073913Y0123318D01*
X0073913Y0122320D02*
X0076150Y0122320D01*
X0076150Y0121321D02*
X0073913Y0121321D01*
X0073913Y0120323D02*
X0076150Y0120323D01*
X0076150Y0119324D02*
X0073913Y0119324D01*
X0073913Y0118326D02*
X0077077Y0118326D01*
X0077313Y0117327D02*
X0073913Y0117327D01*
X0073913Y0116329D02*
X0077313Y0116329D01*
X0077313Y0115330D02*
X0073913Y0115330D01*
X0073913Y0114332D02*
X0077313Y0114332D01*
X0077313Y0113333D02*
X0073913Y0113333D01*
X0073913Y0112335D02*
X0077313Y0112335D01*
X0077313Y0111336D02*
X0073913Y0111336D01*
X0073913Y0110338D02*
X0077313Y0110338D01*
X0077313Y0109339D02*
X0073913Y0109339D01*
X0073913Y0108341D02*
X0077313Y0108341D01*
X0077313Y0107342D02*
X0073913Y0107342D01*
X0073913Y0106344D02*
X0077313Y0106344D01*
X0077313Y0105345D02*
X0073913Y0105345D01*
X0073913Y0104347D02*
X0077313Y0104347D01*
X0077313Y0103348D02*
X0073913Y0103348D01*
X0073913Y0102350D02*
X0077313Y0102350D01*
X0077313Y0101351D02*
X0073913Y0101351D01*
X0073913Y0100353D02*
X0077313Y0100353D01*
X0077313Y0099354D02*
X0073913Y0099354D01*
X0073913Y0098356D02*
X0077313Y0098356D01*
X0077313Y0097357D02*
X0073913Y0097357D01*
X0074433Y0096359D02*
X0076793Y0096359D01*
X0076150Y0095360D02*
X0075075Y0095360D01*
X0075075Y0094362D02*
X0076150Y0094362D01*
X0076150Y0093363D02*
X0075075Y0093363D01*
X0075075Y0092365D02*
X0076150Y0092365D01*
X0076150Y0091366D02*
X0075075Y0091366D01*
X0075075Y0090368D02*
X0076150Y0090368D01*
X0076150Y0089369D02*
X0075075Y0089369D01*
X0074193Y0088370D02*
X0077032Y0088370D01*
X0084193Y0088370D02*
X0087032Y0088370D01*
X0086150Y0089369D02*
X0085075Y0089369D01*
X0085075Y0090368D02*
X0086150Y0090368D01*
X0086150Y0091366D02*
X0085075Y0091366D01*
X0085075Y0092365D02*
X0086150Y0092365D01*
X0086150Y0093363D02*
X0085075Y0093363D01*
X0085075Y0094362D02*
X0086150Y0094362D01*
X0086150Y0095360D02*
X0085075Y0095360D01*
X0084433Y0096359D02*
X0086793Y0096359D01*
X0087313Y0097357D02*
X0083913Y0097357D01*
X0083913Y0098356D02*
X0087313Y0098356D01*
X0087313Y0099354D02*
X0083913Y0099354D01*
X0083913Y0100353D02*
X0087313Y0100353D01*
X0087313Y0101351D02*
X0083913Y0101351D01*
X0083913Y0102350D02*
X0087313Y0102350D01*
X0087313Y0103348D02*
X0083913Y0103348D01*
X0083913Y0104347D02*
X0087313Y0104347D01*
X0087313Y0105345D02*
X0083913Y0105345D01*
X0083913Y0106344D02*
X0087313Y0106344D01*
X0087313Y0107342D02*
X0083913Y0107342D01*
X0083913Y0108341D02*
X0087313Y0108341D01*
X0087313Y0109339D02*
X0083913Y0109339D01*
X0083913Y0110338D02*
X0087313Y0110338D01*
X0087313Y0111336D02*
X0083913Y0111336D01*
X0083913Y0112335D02*
X0087313Y0112335D01*
X0087313Y0113333D02*
X0083913Y0113333D01*
X0083913Y0114332D02*
X0087313Y0114332D01*
X0087313Y0115330D02*
X0083913Y0115330D01*
X0083913Y0116329D02*
X0087313Y0116329D01*
X0087313Y0117327D02*
X0083913Y0117327D01*
X0084148Y0118326D02*
X0087077Y0118326D01*
X0086150Y0119324D02*
X0085075Y0119324D01*
X0085075Y0120323D02*
X0086150Y0120323D01*
X0086150Y0121321D02*
X0085075Y0121321D01*
X0085075Y0122320D02*
X0086150Y0122320D01*
X0086150Y0123318D02*
X0085075Y0123318D01*
X0085075Y0124317D02*
X0086150Y0124317D01*
X0086150Y0125315D02*
X0085075Y0125315D01*
X0084477Y0126314D02*
X0086748Y0126314D01*
X0073913Y0128311D02*
X0101408Y0128311D01*
X0102406Y0129309D02*
X0073913Y0129309D01*
X0073913Y0130308D02*
X0104308Y0130308D01*
X0106917Y0130308D02*
X0114308Y0130308D01*
X0112406Y0129309D02*
X0108819Y0129309D01*
X0109817Y0128311D02*
X0111408Y0128311D01*
X0110962Y0127312D02*
X0110263Y0127312D01*
X0116917Y0130308D02*
X0124308Y0130308D01*
X0122406Y0129309D02*
X0118819Y0129309D01*
X0119817Y0128311D02*
X0121408Y0128311D01*
X0120962Y0127312D02*
X0120263Y0127312D01*
X0126917Y0130308D02*
X0134308Y0130308D01*
X0132406Y0129309D02*
X0128819Y0129309D01*
X0129817Y0128311D02*
X0131408Y0128311D01*
X0130962Y0127312D02*
X0130263Y0127312D01*
X0136917Y0130308D02*
X0144308Y0130308D01*
X0142406Y0129309D02*
X0138819Y0129309D01*
X0139817Y0128311D02*
X0141408Y0128311D01*
X0140962Y0127312D02*
X0140263Y0127312D01*
X0146917Y0130308D02*
X0154308Y0130308D01*
X0152406Y0129309D02*
X0148819Y0129309D01*
X0149817Y0128311D02*
X0151408Y0128311D01*
X0150962Y0127312D02*
X0150263Y0127312D01*
X0156917Y0130308D02*
X0164308Y0130308D01*
X0162406Y0129309D02*
X0158819Y0129309D01*
X0159817Y0128311D02*
X0161408Y0128311D01*
X0160962Y0127312D02*
X0160263Y0127312D01*
X0166917Y0130308D02*
X0174308Y0130308D01*
X0172406Y0129309D02*
X0168819Y0129309D01*
X0169817Y0128311D02*
X0171408Y0128311D01*
X0170962Y0127312D02*
X0170263Y0127312D01*
X0176917Y0130308D02*
X0194308Y0130308D01*
X0192406Y0129309D02*
X0187705Y0129309D01*
X0187932Y0129194D02*
X0187311Y0129510D01*
X0186649Y0129725D01*
X0186088Y0129814D01*
X0186088Y0122959D01*
X0190038Y0122959D01*
X0190038Y0125758D01*
X0189929Y0126445D01*
X0189713Y0127108D01*
X0189397Y0127728D01*
X0188988Y0128292D01*
X0188495Y0128784D01*
X0187932Y0129194D01*
X0188969Y0128311D02*
X0191408Y0128311D01*
X0190962Y0127312D02*
X0189609Y0127312D01*
X0189949Y0126314D02*
X0190588Y0126314D01*
X0190588Y0125315D02*
X0190038Y0125315D01*
X0190038Y0124317D02*
X0190588Y0124317D01*
X0190588Y0123318D02*
X0190038Y0123318D01*
X0190588Y0122320D02*
X0186088Y0122320D01*
X0186088Y0122009D02*
X0186088Y0122959D01*
X0185138Y0122959D01*
X0185138Y0129814D01*
X0184576Y0129725D01*
X0183914Y0129510D01*
X0183293Y0129194D01*
X0182730Y0128784D01*
X0182237Y0128292D01*
X0181828Y0127728D01*
X0181512Y0127108D01*
X0181297Y0126445D01*
X0181188Y0125758D01*
X0181188Y0122959D01*
X0185138Y0122959D01*
X0185138Y0122009D01*
X0186088Y0122009D01*
X0190038Y0122009D01*
X0190038Y0119211D01*
X0189929Y0118523D01*
X0189713Y0117861D01*
X0189397Y0117240D01*
X0188988Y0116677D01*
X0188495Y0116184D01*
X0187932Y0115775D01*
X0187311Y0115458D01*
X0186649Y0115243D01*
X0186088Y0115154D01*
X0186088Y0122009D01*
X0186088Y0121321D02*
X0185138Y0121321D01*
X0185138Y0122009D02*
X0185138Y0115154D01*
X0184576Y0115243D01*
X0183914Y0115458D01*
X0183293Y0115775D01*
X0182730Y0116184D01*
X0182237Y0116677D01*
X0181828Y0117240D01*
X0181512Y0117861D01*
X0181297Y0118523D01*
X0181188Y0119211D01*
X0181188Y0122009D01*
X0185138Y0122009D01*
X0185138Y0122320D02*
X0180638Y0122320D01*
X0180638Y0123318D02*
X0181188Y0123318D01*
X0181188Y0124317D02*
X0180638Y0124317D01*
X0180638Y0125315D02*
X0181188Y0125315D01*
X0181276Y0126314D02*
X0180638Y0126314D01*
X0180263Y0127312D02*
X0181616Y0127312D01*
X0182256Y0128311D02*
X0179817Y0128311D01*
X0178819Y0129309D02*
X0183520Y0129309D01*
X0185138Y0129309D02*
X0186088Y0129309D01*
X0186088Y0128311D02*
X0185138Y0128311D01*
X0185138Y0127312D02*
X0186088Y0127312D01*
X0186088Y0126314D02*
X0185138Y0126314D01*
X0185138Y0125315D02*
X0186088Y0125315D01*
X0186088Y0124317D02*
X0185138Y0124317D01*
X0185138Y0123318D02*
X0186088Y0123318D01*
X0190038Y0121321D02*
X0190588Y0121321D01*
X0190588Y0120323D02*
X0190038Y0120323D01*
X0190038Y0119324D02*
X0190588Y0119324D01*
X0190684Y0118326D02*
X0189865Y0118326D01*
X0189442Y0117327D02*
X0191098Y0117327D01*
X0191737Y0116329D02*
X0188640Y0116329D01*
X0186917Y0115330D02*
X0192735Y0115330D01*
X0198490Y0115330D02*
X0202735Y0115330D01*
X0201737Y0116329D02*
X0199489Y0116329D01*
X0200127Y0117327D02*
X0201098Y0117327D01*
X0200684Y0118326D02*
X0200541Y0118326D01*
X0208490Y0115330D02*
X0212735Y0115330D01*
X0211737Y0116329D02*
X0209489Y0116329D01*
X0210127Y0117327D02*
X0211098Y0117327D01*
X0210684Y0118326D02*
X0210541Y0118326D01*
X0218490Y0115330D02*
X0222735Y0115330D01*
X0221737Y0116329D02*
X0219489Y0116329D01*
X0220127Y0117327D02*
X0221098Y0117327D01*
X0220684Y0118326D02*
X0220541Y0118326D01*
X0228490Y0115330D02*
X0232735Y0115330D01*
X0231737Y0116329D02*
X0229489Y0116329D01*
X0230127Y0117327D02*
X0231098Y0117327D01*
X0230684Y0118326D02*
X0230541Y0118326D01*
X0238490Y0115330D02*
X0242735Y0115330D01*
X0241737Y0116329D02*
X0239489Y0116329D01*
X0240127Y0117327D02*
X0241098Y0117327D01*
X0240684Y0118326D02*
X0240541Y0118326D01*
X0248490Y0115330D02*
X0252735Y0115330D01*
X0251737Y0116329D02*
X0249489Y0116329D01*
X0250127Y0117327D02*
X0251098Y0117327D01*
X0250684Y0118326D02*
X0250541Y0118326D01*
X0258490Y0115330D02*
X0262735Y0115330D01*
X0261737Y0116329D02*
X0259489Y0116329D01*
X0260127Y0117327D02*
X0261098Y0117327D01*
X0260684Y0118326D02*
X0260541Y0118326D01*
X0268490Y0115330D02*
X0272735Y0115330D01*
X0271737Y0116329D02*
X0269489Y0116329D01*
X0270127Y0117327D02*
X0271098Y0117327D01*
X0270684Y0118326D02*
X0270541Y0118326D01*
X0269491Y0114332D02*
X0306128Y0114332D01*
X0305213Y0115248D02*
X0307976Y0112484D01*
X0305213Y0109721D01*
X0305213Y0105248D01*
X0308376Y0102084D01*
X0312849Y0102084D01*
X0316013Y0105248D01*
X0316013Y0109721D01*
X0313249Y0112484D01*
X0316013Y0115248D01*
X0316013Y0119721D01*
X0312849Y0122884D01*
X0308376Y0122884D01*
X0305213Y0119721D01*
X0305213Y0115248D01*
X0305213Y0115330D02*
X0298490Y0115330D01*
X0299489Y0116329D02*
X0305213Y0116329D01*
X0305213Y0117327D02*
X0300127Y0117327D01*
X0300541Y0118326D02*
X0305213Y0118326D01*
X0305213Y0119324D02*
X0300638Y0119324D01*
X0300638Y0120323D02*
X0305814Y0120323D01*
X0306813Y0121321D02*
X0300638Y0121321D01*
X0300638Y0122320D02*
X0307811Y0122320D01*
X0313414Y0122320D02*
X0347811Y0122320D01*
X0348376Y0122884D02*
X0345213Y0119721D01*
X0345213Y0115248D01*
X0347976Y0112484D01*
X0345213Y0109721D01*
X0345213Y0105248D01*
X0348376Y0102084D01*
X0352849Y0102084D01*
X0356013Y0105248D01*
X0356013Y0109721D01*
X0353249Y0112484D01*
X0356013Y0115248D01*
X0356013Y0119721D01*
X0352849Y0122884D01*
X0348376Y0122884D01*
X0346813Y0121321D02*
X0314412Y0121321D01*
X0315411Y0120323D02*
X0345814Y0120323D01*
X0345213Y0119324D02*
X0316013Y0119324D01*
X0316013Y0118326D02*
X0345213Y0118326D01*
X0345213Y0117327D02*
X0316013Y0117327D01*
X0316013Y0116329D02*
X0345213Y0116329D01*
X0345213Y0115330D02*
X0316013Y0115330D01*
X0315097Y0114332D02*
X0346128Y0114332D01*
X0347127Y0113333D02*
X0314098Y0113333D01*
X0313399Y0112335D02*
X0347826Y0112335D01*
X0346828Y0111336D02*
X0314397Y0111336D01*
X0315396Y0110338D02*
X0345829Y0110338D01*
X0345213Y0109339D02*
X0316013Y0109339D01*
X0316013Y0108341D02*
X0345213Y0108341D01*
X0345213Y0107342D02*
X0316013Y0107342D01*
X0316013Y0106344D02*
X0345213Y0106344D01*
X0345213Y0105345D02*
X0316013Y0105345D01*
X0315112Y0104347D02*
X0346113Y0104347D01*
X0347112Y0103348D02*
X0314113Y0103348D01*
X0313115Y0102350D02*
X0348110Y0102350D01*
X0353115Y0102350D02*
X0372852Y0102350D01*
X0372327Y0102567D02*
X0374459Y0101684D01*
X0376766Y0101684D01*
X0378898Y0102567D01*
X0380530Y0104199D01*
X0381413Y0106331D01*
X0381413Y0108638D01*
X0380530Y0110770D01*
X0378898Y0112401D01*
X0378698Y0112484D01*
X0378898Y0112567D01*
X0380530Y0114199D01*
X0381413Y0116331D01*
X0381413Y0118638D01*
X0380530Y0120770D01*
X0378898Y0122401D01*
X0378698Y0122484D01*
X0378898Y0122567D01*
X0380530Y0124199D01*
X0381413Y0126331D01*
X0381413Y0128638D01*
X0380530Y0130770D01*
X0378898Y0132401D01*
X0376766Y0133284D01*
X0374459Y0133284D01*
X0372327Y0132401D01*
X0370696Y0130770D01*
X0369813Y0128638D01*
X0369813Y0126331D01*
X0370696Y0124199D01*
X0372327Y0122567D01*
X0372528Y0122484D01*
X0372327Y0122401D01*
X0370696Y0120770D01*
X0369813Y0118638D01*
X0369813Y0116331D01*
X0370696Y0114199D01*
X0372327Y0112567D01*
X0372528Y0112484D01*
X0372327Y0112401D01*
X0370696Y0110770D01*
X0369813Y0108638D01*
X0369813Y0106331D01*
X0370696Y0104199D01*
X0372327Y0102567D01*
X0371546Y0103348D02*
X0354113Y0103348D01*
X0355112Y0104347D02*
X0370634Y0104347D01*
X0370221Y0105345D02*
X0356013Y0105345D01*
X0356013Y0106344D02*
X0369813Y0106344D01*
X0369813Y0107342D02*
X0356013Y0107342D01*
X0356013Y0108341D02*
X0369813Y0108341D01*
X0370103Y0109339D02*
X0356013Y0109339D01*
X0355396Y0110338D02*
X0370517Y0110338D01*
X0371262Y0111336D02*
X0354397Y0111336D01*
X0353399Y0112335D02*
X0372261Y0112335D01*
X0371561Y0113333D02*
X0354098Y0113333D01*
X0355097Y0114332D02*
X0370641Y0114332D01*
X0370227Y0115330D02*
X0356013Y0115330D01*
X0356013Y0116329D02*
X0369813Y0116329D01*
X0369813Y0117327D02*
X0356013Y0117327D01*
X0356013Y0118326D02*
X0369813Y0118326D01*
X0370097Y0119324D02*
X0356013Y0119324D01*
X0355411Y0120323D02*
X0370511Y0120323D01*
X0371247Y0121321D02*
X0354412Y0121321D01*
X0353414Y0122320D02*
X0372246Y0122320D01*
X0371576Y0123318D02*
X0300638Y0123318D01*
X0300638Y0124317D02*
X0370647Y0124317D01*
X0370233Y0125315D02*
X0300638Y0125315D01*
X0300638Y0126314D02*
X0369819Y0126314D01*
X0369813Y0127312D02*
X0300263Y0127312D01*
X0299817Y0128311D02*
X0369813Y0128311D01*
X0370091Y0129309D02*
X0298819Y0129309D01*
X0296917Y0130308D02*
X0370504Y0130308D01*
X0371232Y0131306D02*
X0219119Y0131306D01*
X0218120Y0130308D02*
X0224308Y0130308D01*
X0222406Y0129309D02*
X0218819Y0129309D01*
X0219817Y0128311D02*
X0221408Y0128311D01*
X0220962Y0127312D02*
X0220263Y0127312D01*
X0226917Y0130308D02*
X0234308Y0130308D01*
X0232406Y0129309D02*
X0228819Y0129309D01*
X0229817Y0128311D02*
X0231408Y0128311D01*
X0230962Y0127312D02*
X0230263Y0127312D01*
X0236917Y0130308D02*
X0244308Y0130308D01*
X0242406Y0129309D02*
X0238819Y0129309D01*
X0239817Y0128311D02*
X0241408Y0128311D01*
X0240962Y0127312D02*
X0240263Y0127312D01*
X0246917Y0130308D02*
X0254308Y0130308D01*
X0252406Y0129309D02*
X0248819Y0129309D01*
X0249817Y0128311D02*
X0251408Y0128311D01*
X0250962Y0127312D02*
X0250263Y0127312D01*
X0256917Y0130308D02*
X0264308Y0130308D01*
X0262406Y0129309D02*
X0258819Y0129309D01*
X0259817Y0128311D02*
X0261408Y0128311D01*
X0260962Y0127312D02*
X0260263Y0127312D01*
X0266917Y0130308D02*
X0274308Y0130308D01*
X0272406Y0129309D02*
X0268819Y0129309D01*
X0269817Y0128311D02*
X0271408Y0128311D01*
X0270962Y0127312D02*
X0270263Y0127312D01*
X0276917Y0130308D02*
X0284308Y0130308D01*
X0282406Y0129309D02*
X0278819Y0129309D01*
X0279817Y0128311D02*
X0281408Y0128311D01*
X0280962Y0127312D02*
X0280263Y0127312D01*
X0286917Y0130308D02*
X0294308Y0130308D01*
X0292406Y0129309D02*
X0288819Y0129309D01*
X0289817Y0128311D02*
X0291408Y0128311D01*
X0290962Y0127312D02*
X0290263Y0127312D01*
X0300813Y0137779D02*
X0303624Y0134968D01*
X0305313Y0134968D01*
X0305313Y0139468D01*
X0300813Y0139468D01*
X0300813Y0137779D01*
X0300813Y0138296D02*
X0220390Y0138296D01*
X0221013Y0137298D02*
X0301295Y0137298D01*
X0302293Y0136299D02*
X0221013Y0136299D01*
X0221013Y0135301D02*
X0303292Y0135301D01*
X0305313Y0135301D02*
X0305913Y0135301D01*
X0305913Y0136299D02*
X0305313Y0136299D01*
X0305313Y0137298D02*
X0305913Y0137298D01*
X0305913Y0138296D02*
X0305313Y0138296D01*
X0305313Y0139295D02*
X0305913Y0139295D01*
X0305913Y0140293D02*
X0305313Y0140293D01*
X0305313Y0141292D02*
X0305913Y0141292D01*
X0305913Y0142290D02*
X0305313Y0142290D01*
X0305313Y0143289D02*
X0305913Y0143289D01*
X0305913Y0144287D02*
X0305313Y0144287D01*
X0307881Y0144287D02*
X0312495Y0144287D01*
X0311497Y0143289D02*
X0308880Y0143289D01*
X0309878Y0142290D02*
X0310498Y0142290D01*
X0310446Y0137298D02*
X0309931Y0137298D01*
X0308932Y0136299D02*
X0311445Y0136299D01*
X0312443Y0135301D02*
X0307934Y0135301D01*
X0300813Y0139295D02*
X0219392Y0139295D01*
X0218393Y0140293D02*
X0300813Y0140293D01*
X0300813Y0141292D02*
X0210093Y0141292D01*
X0210418Y0142290D02*
X0301347Y0142290D01*
X0318730Y0144287D02*
X0342732Y0144287D01*
X0344234Y0143289D02*
X0319728Y0143289D01*
X0321013Y0140293D02*
X0404261Y0140293D01*
X0404261Y0139295D02*
X0321013Y0139295D01*
X0321013Y0138296D02*
X0404261Y0138296D01*
X0404261Y0137298D02*
X0320779Y0137298D01*
X0319781Y0136299D02*
X0404261Y0136299D01*
X0404261Y0135301D02*
X0318782Y0135301D01*
X0290684Y0118326D02*
X0290541Y0118326D01*
X0290127Y0117327D02*
X0291098Y0117327D01*
X0291737Y0116329D02*
X0289489Y0116329D01*
X0288490Y0115330D02*
X0292735Y0115330D01*
X0282735Y0115330D02*
X0278490Y0115330D01*
X0279489Y0116329D02*
X0281737Y0116329D01*
X0281098Y0117327D02*
X0280127Y0117327D01*
X0280541Y0118326D02*
X0280684Y0118326D01*
X0270075Y0113333D02*
X0307127Y0113333D01*
X0307826Y0112335D02*
X0270075Y0112335D01*
X0270075Y0111336D02*
X0306828Y0111336D01*
X0305829Y0110338D02*
X0270075Y0110338D01*
X0270075Y0109339D02*
X0305213Y0109339D01*
X0305213Y0108341D02*
X0270075Y0108341D01*
X0270075Y0107342D02*
X0305213Y0107342D01*
X0305213Y0106344D02*
X0269135Y0106344D01*
X0268913Y0105345D02*
X0305213Y0105345D01*
X0306113Y0104347D02*
X0268913Y0104347D01*
X0268913Y0103348D02*
X0307112Y0103348D01*
X0308110Y0102350D02*
X0268913Y0102350D01*
X0268913Y0101351D02*
X0404261Y0101351D01*
X0404261Y0100353D02*
X0268913Y0100353D01*
X0268913Y0099354D02*
X0404261Y0099354D01*
X0404261Y0098356D02*
X0268913Y0098356D01*
X0268913Y0097357D02*
X0404261Y0097357D01*
X0404261Y0096359D02*
X0268913Y0096359D01*
X0268913Y0095360D02*
X0404261Y0095360D01*
X0404261Y0094362D02*
X0268913Y0094362D01*
X0268913Y0093363D02*
X0404261Y0093363D01*
X0404261Y0092365D02*
X0319286Y0092365D01*
X0318917Y0092734D02*
X0320147Y0091504D01*
X0320147Y0083764D01*
X0318917Y0082534D01*
X0311177Y0082534D01*
X0309947Y0083764D01*
X0309947Y0091504D01*
X0311177Y0092734D01*
X0318917Y0092734D01*
X0320147Y0091366D02*
X0329900Y0091366D01*
X0329812Y0091213D02*
X0329710Y0090832D01*
X0329710Y0088134D01*
X0333710Y0088134D01*
X0333710Y0087134D01*
X0334710Y0087134D01*
X0334710Y0088134D01*
X0338710Y0088134D01*
X0338710Y0090832D01*
X0338608Y0091213D01*
X0338410Y0091555D01*
X0338131Y0091835D01*
X0337789Y0092032D01*
X0337407Y0092134D01*
X0334710Y0092134D01*
X0334710Y0088134D01*
X0333710Y0088134D01*
X0333710Y0092134D01*
X0331012Y0092134D01*
X0330631Y0092032D01*
X0330289Y0091835D01*
X0330010Y0091555D01*
X0329812Y0091213D01*
X0329710Y0090368D02*
X0320147Y0090368D01*
X0320147Y0089369D02*
X0329710Y0089369D01*
X0329710Y0088370D02*
X0320147Y0088370D01*
X0320147Y0087372D02*
X0333710Y0087372D01*
X0333710Y0087134D02*
X0329710Y0087134D01*
X0329710Y0084437D01*
X0329812Y0084055D01*
X0330010Y0083713D01*
X0330289Y0083434D01*
X0330631Y0083236D01*
X0331012Y0083134D01*
X0333710Y0083134D01*
X0333710Y0087134D01*
X0333710Y0086373D02*
X0334710Y0086373D01*
X0334710Y0087134D02*
X0334710Y0083134D01*
X0337407Y0083134D01*
X0337789Y0083236D01*
X0338131Y0083434D01*
X0338410Y0083713D01*
X0338608Y0084055D01*
X0338710Y0084437D01*
X0338710Y0087134D01*
X0334710Y0087134D01*
X0334710Y0087372D02*
X0381289Y0087372D01*
X0380290Y0086373D02*
X0346937Y0086373D01*
X0346026Y0087284D02*
X0344338Y0087284D01*
X0344338Y0082784D01*
X0348838Y0082784D01*
X0348838Y0084472D01*
X0346026Y0087284D01*
X0344338Y0086373D02*
X0343738Y0086373D01*
X0343738Y0087284D02*
X0342050Y0087284D01*
X0339238Y0084472D01*
X0339238Y0082784D01*
X0343738Y0082784D01*
X0343738Y0082184D01*
X0344338Y0082184D01*
X0344338Y0082784D01*
X0343738Y0082784D01*
X0343738Y0087284D01*
X0343738Y0085375D02*
X0344338Y0085375D01*
X0344338Y0084376D02*
X0343738Y0084376D01*
X0343738Y0083378D02*
X0344338Y0083378D01*
X0344338Y0082379D02*
X0378638Y0082379D01*
X0378638Y0081381D02*
X0348838Y0081381D01*
X0348838Y0082184D02*
X0348838Y0080496D01*
X0346026Y0077684D01*
X0344338Y0077684D01*
X0344338Y0082184D01*
X0348838Y0082184D01*
X0348838Y0083378D02*
X0378638Y0083378D01*
X0378638Y0084376D02*
X0348838Y0084376D01*
X0347935Y0085375D02*
X0379292Y0085375D01*
X0386787Y0087372D02*
X0404261Y0087372D01*
X0404261Y0088370D02*
X0338710Y0088370D01*
X0338710Y0089369D02*
X0404261Y0089369D01*
X0404261Y0090368D02*
X0338710Y0090368D01*
X0338519Y0091366D02*
X0404261Y0091366D01*
X0404261Y0086373D02*
X0387785Y0086373D01*
X0388784Y0085375D02*
X0404261Y0085375D01*
X0404261Y0084376D02*
X0389438Y0084376D01*
X0389438Y0083378D02*
X0404261Y0083378D01*
X0404261Y0082379D02*
X0389438Y0082379D01*
X0389438Y0081381D02*
X0404261Y0081381D01*
X0404261Y0080382D02*
X0389438Y0080382D01*
X0388574Y0079384D02*
X0404261Y0079384D01*
X0404261Y0078385D02*
X0387576Y0078385D01*
X0386577Y0077387D02*
X0404261Y0077387D01*
X0404261Y0076388D02*
X0387375Y0076388D01*
X0388118Y0075390D02*
X0404261Y0075390D01*
X0404261Y0074391D02*
X0388532Y0074391D01*
X0388835Y0073393D02*
X0404261Y0073393D01*
X0404261Y0072394D02*
X0388835Y0072394D01*
X0388835Y0071396D02*
X0404261Y0071396D01*
X0404261Y0070397D02*
X0388457Y0070397D01*
X0388043Y0069399D02*
X0404261Y0069399D01*
X0404261Y0068400D02*
X0387195Y0068400D01*
X0386083Y0067402D02*
X0404261Y0067402D01*
X0404261Y0062409D02*
X0358324Y0062409D01*
X0357849Y0062884D02*
X0353376Y0062884D01*
X0350213Y0059721D01*
X0350213Y0055248D01*
X0353376Y0052084D01*
X0357849Y0052084D01*
X0361013Y0055248D01*
X0361013Y0059721D01*
X0357849Y0062884D01*
X0359323Y0061411D02*
X0404261Y0061411D01*
X0404261Y0060412D02*
X0360321Y0060412D01*
X0361013Y0059414D02*
X0404261Y0059414D01*
X0404261Y0058415D02*
X0361013Y0058415D01*
X0361013Y0057417D02*
X0404261Y0057417D01*
X0404261Y0056418D02*
X0361013Y0056418D01*
X0361013Y0055420D02*
X0404261Y0055420D01*
X0404261Y0054421D02*
X0360186Y0054421D01*
X0359188Y0053423D02*
X0404261Y0053423D01*
X0404261Y0052424D02*
X0358189Y0052424D01*
X0353036Y0052424D02*
X0348309Y0052424D01*
X0347849Y0052884D02*
X0343376Y0052884D01*
X0340213Y0049721D01*
X0340213Y0045248D01*
X0343376Y0042084D01*
X0347849Y0042084D01*
X0351013Y0045248D01*
X0351013Y0049721D01*
X0347849Y0052884D01*
X0349308Y0051426D02*
X0404261Y0051426D01*
X0404261Y0050427D02*
X0350307Y0050427D01*
X0351013Y0049429D02*
X0404261Y0049429D01*
X0404261Y0048430D02*
X0351013Y0048430D01*
X0351013Y0047432D02*
X0404261Y0047432D01*
X0404261Y0046433D02*
X0351013Y0046433D01*
X0351013Y0045434D02*
X0404261Y0045434D01*
X0404261Y0044436D02*
X0350201Y0044436D01*
X0349203Y0043437D02*
X0404261Y0043437D01*
X0404261Y0042439D02*
X0348204Y0042439D01*
X0343021Y0042439D02*
X0308204Y0042439D01*
X0309203Y0043437D02*
X0342023Y0043437D01*
X0341024Y0044436D02*
X0310201Y0044436D01*
X0311013Y0045434D02*
X0340213Y0045434D01*
X0340213Y0046433D02*
X0311013Y0046433D01*
X0311013Y0047432D02*
X0340213Y0047432D01*
X0340213Y0048430D02*
X0311013Y0048430D01*
X0311013Y0049429D02*
X0340213Y0049429D01*
X0340919Y0050427D02*
X0310307Y0050427D01*
X0309308Y0051426D02*
X0341917Y0051426D01*
X0342916Y0052424D02*
X0318189Y0052424D01*
X0319188Y0053423D02*
X0352038Y0053423D01*
X0351039Y0054421D02*
X0320186Y0054421D01*
X0321013Y0055420D02*
X0350213Y0055420D01*
X0350213Y0056418D02*
X0321013Y0056418D01*
X0321013Y0057417D02*
X0350213Y0057417D01*
X0350213Y0058415D02*
X0321013Y0058415D01*
X0321013Y0059414D02*
X0350213Y0059414D01*
X0350904Y0060412D02*
X0320321Y0060412D01*
X0319323Y0061411D02*
X0351902Y0061411D01*
X0352901Y0062409D02*
X0318324Y0062409D01*
X0313036Y0052424D02*
X0308309Y0052424D01*
X0292646Y0055420D02*
X0288579Y0055420D01*
X0289578Y0056418D02*
X0291647Y0056418D01*
X0291061Y0057417D02*
X0290164Y0057417D01*
X0290578Y0058415D02*
X0290647Y0058415D01*
X0282646Y0055420D02*
X0278579Y0055420D01*
X0279578Y0056418D02*
X0281647Y0056418D01*
X0281061Y0057417D02*
X0280164Y0057417D01*
X0280578Y0058415D02*
X0280647Y0058415D01*
X0272646Y0055420D02*
X0268579Y0055420D01*
X0269578Y0056418D02*
X0271647Y0056418D01*
X0271061Y0057417D02*
X0270164Y0057417D01*
X0270578Y0058415D02*
X0270647Y0058415D01*
X0262646Y0055420D02*
X0258579Y0055420D01*
X0259578Y0056418D02*
X0261647Y0056418D01*
X0261061Y0057417D02*
X0260164Y0057417D01*
X0260578Y0058415D02*
X0260647Y0058415D01*
X0252646Y0055420D02*
X0248579Y0055420D01*
X0249578Y0056418D02*
X0251647Y0056418D01*
X0251061Y0057417D02*
X0250164Y0057417D01*
X0250578Y0058415D02*
X0250647Y0058415D01*
X0242646Y0055420D02*
X0238579Y0055420D01*
X0239578Y0056418D02*
X0241647Y0056418D01*
X0241061Y0057417D02*
X0240164Y0057417D01*
X0240578Y0058415D02*
X0240647Y0058415D01*
X0232646Y0055420D02*
X0228579Y0055420D01*
X0229578Y0056418D02*
X0231647Y0056418D01*
X0231061Y0057417D02*
X0230164Y0057417D01*
X0230578Y0058415D02*
X0230647Y0058415D01*
X0222646Y0055420D02*
X0218579Y0055420D01*
X0219578Y0056418D02*
X0221647Y0056418D01*
X0221061Y0057417D02*
X0220164Y0057417D01*
X0220578Y0058415D02*
X0220647Y0058415D01*
X0220999Y0067402D02*
X0220226Y0067402D01*
X0219728Y0068400D02*
X0221497Y0068400D01*
X0222496Y0069399D02*
X0218729Y0069399D01*
X0228729Y0069399D02*
X0232496Y0069399D01*
X0231497Y0068400D02*
X0229728Y0068400D01*
X0230226Y0067402D02*
X0230999Y0067402D01*
X0238729Y0069399D02*
X0242496Y0069399D01*
X0241497Y0068400D02*
X0239728Y0068400D01*
X0240226Y0067402D02*
X0240999Y0067402D01*
X0248729Y0069399D02*
X0252496Y0069399D01*
X0251497Y0068400D02*
X0249728Y0068400D01*
X0250226Y0067402D02*
X0250999Y0067402D01*
X0258729Y0069399D02*
X0262496Y0069399D01*
X0261497Y0068400D02*
X0259728Y0068400D01*
X0260226Y0067402D02*
X0260999Y0067402D01*
X0268729Y0069399D02*
X0272496Y0069399D01*
X0271497Y0068400D02*
X0269728Y0068400D01*
X0270226Y0067402D02*
X0270999Y0067402D01*
X0278729Y0069399D02*
X0282496Y0069399D01*
X0281497Y0068400D02*
X0279728Y0068400D01*
X0280226Y0067402D02*
X0280999Y0067402D01*
X0288729Y0069399D02*
X0292496Y0069399D01*
X0291497Y0068400D02*
X0289728Y0068400D01*
X0290226Y0067402D02*
X0290999Y0067402D01*
X0298729Y0069399D02*
X0361910Y0069399D01*
X0362908Y0068400D02*
X0299728Y0068400D01*
X0310333Y0083378D02*
X0269201Y0083378D01*
X0270075Y0084376D02*
X0309947Y0084376D01*
X0309947Y0085375D02*
X0270075Y0085375D01*
X0270075Y0086373D02*
X0309947Y0086373D01*
X0309947Y0087372D02*
X0270075Y0087372D01*
X0270075Y0088370D02*
X0309947Y0088370D01*
X0309947Y0089369D02*
X0270075Y0089369D01*
X0270075Y0090368D02*
X0309947Y0090368D01*
X0309947Y0091366D02*
X0269425Y0091366D01*
X0268913Y0092365D02*
X0310807Y0092365D01*
X0320147Y0086373D02*
X0329710Y0086373D01*
X0329710Y0085375D02*
X0320147Y0085375D01*
X0320147Y0084376D02*
X0329726Y0084376D01*
X0330386Y0083378D02*
X0319760Y0083378D01*
X0333710Y0083378D02*
X0334710Y0083378D01*
X0334710Y0084376D02*
X0333710Y0084376D01*
X0333710Y0085375D02*
X0334710Y0085375D01*
X0334710Y0088370D02*
X0333710Y0088370D01*
X0333710Y0089369D02*
X0334710Y0089369D01*
X0334710Y0090368D02*
X0333710Y0090368D01*
X0333710Y0091366D02*
X0334710Y0091366D01*
X0338710Y0086373D02*
X0341139Y0086373D01*
X0340140Y0085375D02*
X0338710Y0085375D01*
X0338694Y0084376D02*
X0339238Y0084376D01*
X0339238Y0083378D02*
X0338034Y0083378D01*
X0339238Y0082184D02*
X0339238Y0080496D01*
X0342050Y0077684D01*
X0343738Y0077684D01*
X0343738Y0082184D01*
X0339238Y0082184D01*
X0339238Y0081381D02*
X0018697Y0081381D01*
X0018697Y0082379D02*
X0056816Y0082379D01*
X0054961Y0083378D02*
X0052972Y0083378D01*
X0048253Y0083378D02*
X0018697Y0083378D01*
X0018697Y0084376D02*
X0047011Y0084376D01*
X0046340Y0085375D02*
X0018697Y0085375D01*
X0018697Y0086373D02*
X0045952Y0086373D01*
X0060009Y0082379D02*
X0343738Y0082379D01*
X0343738Y0081381D02*
X0344338Y0081381D01*
X0344338Y0080382D02*
X0343738Y0080382D01*
X0343738Y0079384D02*
X0344338Y0079384D01*
X0344338Y0078385D02*
X0343738Y0078385D01*
X0341348Y0078385D02*
X0018697Y0078385D01*
X0018697Y0077387D02*
X0379494Y0077387D01*
X0380500Y0078385D02*
X0346727Y0078385D01*
X0347726Y0079384D02*
X0379501Y0079384D01*
X0378638Y0080382D02*
X0348724Y0080382D01*
X0340350Y0079384D02*
X0018697Y0079384D01*
X0018697Y0080382D02*
X0339351Y0080382D01*
X0378373Y0102350D02*
X0404261Y0102350D01*
X0404261Y0103348D02*
X0379679Y0103348D01*
X0380591Y0104347D02*
X0404261Y0104347D01*
X0404261Y0105345D02*
X0381004Y0105345D01*
X0381413Y0106344D02*
X0404261Y0106344D01*
X0404261Y0107342D02*
X0381413Y0107342D01*
X0381413Y0108341D02*
X0404261Y0108341D01*
X0404261Y0109339D02*
X0381122Y0109339D01*
X0380709Y0110338D02*
X0404261Y0110338D01*
X0404261Y0111336D02*
X0379963Y0111336D01*
X0378965Y0112335D02*
X0404261Y0112335D01*
X0404261Y0113333D02*
X0379664Y0113333D01*
X0380585Y0114332D02*
X0404261Y0114332D01*
X0404261Y0115330D02*
X0380998Y0115330D01*
X0381412Y0116329D02*
X0404261Y0116329D01*
X0404261Y0117327D02*
X0381413Y0117327D01*
X0381413Y0118326D02*
X0404261Y0118326D01*
X0404261Y0119324D02*
X0381128Y0119324D01*
X0380715Y0120323D02*
X0404261Y0120323D01*
X0404261Y0121321D02*
X0379978Y0121321D01*
X0378979Y0122320D02*
X0404261Y0122320D01*
X0404261Y0123318D02*
X0379649Y0123318D01*
X0380578Y0124317D02*
X0404261Y0124317D01*
X0404261Y0125315D02*
X0380992Y0125315D01*
X0381406Y0126314D02*
X0404261Y0126314D01*
X0404261Y0127312D02*
X0381413Y0127312D01*
X0381413Y0128311D02*
X0404261Y0128311D01*
X0404261Y0129309D02*
X0381134Y0129309D01*
X0380721Y0130308D02*
X0404261Y0130308D01*
X0404261Y0131306D02*
X0379993Y0131306D01*
X0378994Y0132305D02*
X0404261Y0132305D01*
X0404261Y0133303D02*
X0221013Y0133303D01*
X0221013Y0134302D02*
X0404261Y0134302D01*
X0372231Y0132305D02*
X0220117Y0132305D01*
X0213105Y0130308D02*
X0206917Y0130308D01*
X0208819Y0129309D02*
X0212406Y0129309D01*
X0211408Y0128311D02*
X0209817Y0128311D01*
X0210263Y0127312D02*
X0210962Y0127312D01*
X0212106Y0131306D02*
X0073913Y0131306D01*
X0073913Y0132305D02*
X0211108Y0132305D01*
X0210213Y0133303D02*
X0073913Y0133303D01*
X0073913Y0134302D02*
X0210213Y0134302D01*
X0210213Y0135301D02*
X0073913Y0135301D01*
X0073913Y0136299D02*
X0210213Y0136299D01*
X0211833Y0139295D02*
X0188944Y0139295D01*
X0189943Y0140293D02*
X0203942Y0140293D01*
X0202943Y0141292D02*
X0190941Y0141292D01*
X0191018Y0142290D02*
X0202618Y0142290D01*
X0206218Y0142290D02*
X0206818Y0142290D01*
X0206818Y0141292D02*
X0206218Y0141292D01*
X0206218Y0140293D02*
X0206818Y0140293D01*
X0209094Y0140293D02*
X0212832Y0140293D01*
X0204308Y0130308D02*
X0196917Y0130308D01*
X0198819Y0129309D02*
X0202406Y0129309D01*
X0201408Y0128311D02*
X0199817Y0128311D01*
X0200263Y0127312D02*
X0200962Y0127312D01*
X0186088Y0120323D02*
X0185138Y0120323D01*
X0185138Y0119324D02*
X0186088Y0119324D01*
X0186088Y0118326D02*
X0185138Y0118326D01*
X0185138Y0117327D02*
X0186088Y0117327D01*
X0186088Y0116329D02*
X0185138Y0116329D01*
X0185138Y0115330D02*
X0186088Y0115330D01*
X0184308Y0115330D02*
X0178490Y0115330D01*
X0179489Y0116329D02*
X0182585Y0116329D01*
X0181784Y0117327D02*
X0180127Y0117327D01*
X0180541Y0118326D02*
X0181361Y0118326D01*
X0181188Y0119324D02*
X0180638Y0119324D01*
X0180638Y0120323D02*
X0181188Y0120323D01*
X0181188Y0121321D02*
X0180638Y0121321D01*
X0172735Y0115330D02*
X0168490Y0115330D01*
X0169489Y0116329D02*
X0171737Y0116329D01*
X0171098Y0117327D02*
X0170127Y0117327D01*
X0170541Y0118326D02*
X0170684Y0118326D01*
X0162735Y0115330D02*
X0158490Y0115330D01*
X0159489Y0116329D02*
X0161737Y0116329D01*
X0161098Y0117327D02*
X0160127Y0117327D01*
X0160541Y0118326D02*
X0160684Y0118326D01*
X0152735Y0115330D02*
X0148490Y0115330D01*
X0149489Y0116329D02*
X0151737Y0116329D01*
X0151098Y0117327D02*
X0150127Y0117327D01*
X0150541Y0118326D02*
X0150684Y0118326D01*
X0142735Y0115330D02*
X0138490Y0115330D01*
X0139489Y0116329D02*
X0141737Y0116329D01*
X0141098Y0117327D02*
X0140127Y0117327D01*
X0140541Y0118326D02*
X0140684Y0118326D01*
X0132735Y0115330D02*
X0128490Y0115330D01*
X0129489Y0116329D02*
X0131737Y0116329D01*
X0131098Y0117327D02*
X0130127Y0117327D01*
X0130541Y0118326D02*
X0130684Y0118326D01*
X0122735Y0115330D02*
X0118490Y0115330D01*
X0119489Y0116329D02*
X0121737Y0116329D01*
X0121098Y0117327D02*
X0120127Y0117327D01*
X0120541Y0118326D02*
X0120684Y0118326D01*
X0112735Y0115330D02*
X0108490Y0115330D01*
X0109489Y0116329D02*
X0111737Y0116329D01*
X0111098Y0117327D02*
X0110127Y0117327D01*
X0110541Y0118326D02*
X0110684Y0118326D01*
X0063765Y0086373D02*
X0190016Y0086373D01*
X0190518Y0085375D02*
X0063351Y0085375D01*
X0062863Y0084376D02*
X0191517Y0084376D01*
X0192515Y0083378D02*
X0061864Y0083378D01*
X0035241Y0061411D02*
X0031349Y0061411D01*
X0018697Y0048430D02*
X0047684Y0048430D01*
X0046813Y0047432D02*
X0018697Y0047432D01*
X0018697Y0046433D02*
X0046813Y0046433D01*
X0046813Y0045434D02*
X0018697Y0045434D01*
X0018697Y0044436D02*
X0046813Y0044436D01*
X0047785Y0043437D02*
X0018697Y0043437D01*
X0018697Y0042439D02*
X0025724Y0042439D01*
X0024531Y0041945D02*
X0022215Y0039629D01*
X0020961Y0036602D01*
X0020961Y0033327D01*
X0022215Y0030300D01*
X0024531Y0027984D01*
X0027557Y0026731D01*
X0030833Y0026731D01*
X0033859Y0027984D01*
X0036176Y0030300D01*
X0037429Y0033327D01*
X0037429Y0036602D01*
X0036176Y0039629D01*
X0033859Y0041945D01*
X0030833Y0043198D01*
X0027557Y0043198D01*
X0024531Y0041945D01*
X0024027Y0041440D02*
X0018697Y0041440D01*
X0018697Y0040442D02*
X0023028Y0040442D01*
X0022138Y0039443D02*
X0018697Y0039443D01*
X0018697Y0038445D02*
X0021725Y0038445D01*
X0021311Y0037446D02*
X0018697Y0037446D01*
X0018697Y0036448D02*
X0020961Y0036448D01*
X0020961Y0035449D02*
X0018697Y0035449D01*
X0018697Y0034451D02*
X0020961Y0034451D01*
X0020961Y0033452D02*
X0018697Y0033452D01*
X0018697Y0032454D02*
X0021323Y0032454D01*
X0021737Y0031455D02*
X0018697Y0031455D01*
X0018697Y0030457D02*
X0022150Y0030457D01*
X0023057Y0029458D02*
X0018697Y0029458D01*
X0018697Y0028460D02*
X0024056Y0028460D01*
X0025794Y0027461D02*
X0018697Y0027461D01*
X0032597Y0027461D02*
X0062716Y0027461D01*
X0061717Y0028460D02*
X0034335Y0028460D01*
X0035333Y0029458D02*
X0060719Y0029458D01*
X0060013Y0030457D02*
X0036240Y0030457D01*
X0036654Y0031455D02*
X0060013Y0031455D01*
X0060013Y0032454D02*
X0037068Y0032454D01*
X0037429Y0033452D02*
X0060013Y0033452D01*
X0060013Y0034451D02*
X0037429Y0034451D01*
X0037429Y0035449D02*
X0047925Y0035449D01*
X0046926Y0036448D02*
X0037429Y0036448D01*
X0037080Y0037446D02*
X0046487Y0037446D01*
X0046213Y0038445D02*
X0036666Y0038445D01*
X0036252Y0039443D02*
X0046213Y0039443D01*
X0046454Y0040442D02*
X0035362Y0040442D01*
X0034364Y0041440D02*
X0046867Y0041440D01*
X0047845Y0042439D02*
X0032667Y0042439D01*
X0053300Y0035449D02*
X0060658Y0035449D01*
X0061657Y0036448D02*
X0054299Y0036448D01*
X0069508Y0028460D02*
X0071717Y0028460D01*
X0070719Y0029458D02*
X0070506Y0029458D01*
X0068509Y0027461D02*
X0072716Y0027461D01*
X0088659Y0028460D02*
X0101717Y0028460D01*
X0100719Y0029458D02*
X0089658Y0029458D01*
X0090613Y0030457D02*
X0100013Y0030457D01*
X0100013Y0031455D02*
X0090613Y0031455D01*
X0095377Y0027461D02*
X0102716Y0027461D01*
X0108509Y0027461D02*
X0112716Y0027461D01*
X0111717Y0028460D02*
X0109508Y0028460D01*
X0110506Y0029458D02*
X0110719Y0029458D01*
X0118509Y0027461D02*
X0122716Y0027461D01*
X0121717Y0028460D02*
X0119508Y0028460D01*
X0120506Y0029458D02*
X0120719Y0029458D01*
X0128509Y0027461D02*
X0132716Y0027461D01*
X0131717Y0028460D02*
X0129508Y0028460D01*
X0130506Y0029458D02*
X0130719Y0029458D01*
X0138509Y0027461D02*
X0142716Y0027461D01*
X0141717Y0028460D02*
X0139508Y0028460D01*
X0140506Y0029458D02*
X0140719Y0029458D01*
X0148509Y0027461D02*
X0152716Y0027461D01*
X0151717Y0028460D02*
X0149508Y0028460D01*
X0150506Y0029458D02*
X0150719Y0029458D01*
X0158509Y0027461D02*
X0162716Y0027461D01*
X0161717Y0028460D02*
X0159508Y0028460D01*
X0160506Y0029458D02*
X0160719Y0029458D01*
X0168509Y0027461D02*
X0172716Y0027461D01*
X0171717Y0028460D02*
X0169508Y0028460D01*
X0170506Y0029458D02*
X0170719Y0029458D01*
X0178509Y0027461D02*
X0182716Y0027461D01*
X0181717Y0028460D02*
X0179508Y0028460D01*
X0180506Y0029458D02*
X0180719Y0029458D01*
X0188509Y0027461D02*
X0192716Y0027461D01*
X0191717Y0028460D02*
X0189508Y0028460D01*
X0190506Y0029458D02*
X0190719Y0029458D01*
X0198509Y0027461D02*
X0222716Y0027461D01*
X0223293Y0026884D02*
X0227932Y0026884D01*
X0230613Y0029565D01*
X0233293Y0026884D01*
X0237932Y0026884D01*
X0240613Y0029565D01*
X0243293Y0026884D01*
X0247932Y0026884D01*
X0250613Y0029565D01*
X0253293Y0026884D01*
X0257932Y0026884D01*
X0260613Y0029565D01*
X0263293Y0026884D01*
X0267932Y0026884D01*
X0270613Y0029565D01*
X0273293Y0026884D01*
X0277932Y0026884D01*
X0280613Y0029565D01*
X0283293Y0026884D01*
X0287932Y0026884D01*
X0290613Y0029565D01*
X0293293Y0026884D01*
X0297932Y0026884D01*
X0301213Y0030165D01*
X0301213Y0034804D01*
X0297932Y0038084D01*
X0293293Y0038084D01*
X0290613Y0035404D01*
X0287932Y0038084D01*
X0283293Y0038084D01*
X0280613Y0035404D01*
X0277932Y0038084D01*
X0273293Y0038084D01*
X0270613Y0035404D01*
X0267932Y0038084D01*
X0263293Y0038084D01*
X0260613Y0035404D01*
X0257932Y0038084D01*
X0253293Y0038084D01*
X0250613Y0035404D01*
X0247932Y0038084D01*
X0243293Y0038084D01*
X0240613Y0035404D01*
X0237932Y0038084D01*
X0233293Y0038084D01*
X0230613Y0035404D01*
X0227932Y0038084D01*
X0223293Y0038084D01*
X0220013Y0034804D01*
X0220013Y0030165D01*
X0223293Y0026884D01*
X0221717Y0028460D02*
X0199508Y0028460D01*
X0200506Y0029458D02*
X0220719Y0029458D01*
X0220013Y0030457D02*
X0201213Y0030457D01*
X0201213Y0031455D02*
X0220013Y0031455D01*
X0220013Y0032454D02*
X0201213Y0032454D01*
X0201213Y0033452D02*
X0220013Y0033452D01*
X0220013Y0034451D02*
X0201213Y0034451D01*
X0200567Y0035449D02*
X0220658Y0035449D01*
X0221657Y0036448D02*
X0199569Y0036448D01*
X0198570Y0037446D02*
X0222655Y0037446D01*
X0228570Y0037446D02*
X0232655Y0037446D01*
X0231657Y0036448D02*
X0229569Y0036448D01*
X0230567Y0035449D02*
X0230658Y0035449D01*
X0238570Y0037446D02*
X0242655Y0037446D01*
X0241657Y0036448D02*
X0239569Y0036448D01*
X0240567Y0035449D02*
X0240658Y0035449D01*
X0248570Y0037446D02*
X0252655Y0037446D01*
X0251657Y0036448D02*
X0249569Y0036448D01*
X0250567Y0035449D02*
X0250658Y0035449D01*
X0258570Y0037446D02*
X0262655Y0037446D01*
X0261657Y0036448D02*
X0259569Y0036448D01*
X0260567Y0035449D02*
X0260658Y0035449D01*
X0268570Y0037446D02*
X0272655Y0037446D01*
X0271657Y0036448D02*
X0269569Y0036448D01*
X0270567Y0035449D02*
X0270658Y0035449D01*
X0278570Y0037446D02*
X0282655Y0037446D01*
X0281657Y0036448D02*
X0279569Y0036448D01*
X0280567Y0035449D02*
X0280658Y0035449D01*
X0288570Y0037446D02*
X0292655Y0037446D01*
X0291657Y0036448D02*
X0289569Y0036448D01*
X0290567Y0035449D02*
X0290658Y0035449D01*
X0298570Y0037446D02*
X0312436Y0037446D01*
X0312327Y0037401D02*
X0310696Y0035770D01*
X0309813Y0033638D01*
X0309813Y0031331D01*
X0310696Y0029199D01*
X0312327Y0027567D01*
X0314459Y0026684D01*
X0315039Y0026684D01*
X0314813Y0026138D01*
X0314813Y0023831D01*
X0315696Y0021699D01*
X0317327Y0020067D01*
X0319459Y0019184D01*
X0321766Y0019184D01*
X0323898Y0020067D01*
X0325530Y0021699D01*
X0326413Y0023831D01*
X0326413Y0026138D01*
X0326186Y0026684D01*
X0326766Y0026684D01*
X0328898Y0027567D01*
X0330530Y0029199D01*
X0331413Y0031331D01*
X0331413Y0033638D01*
X0330530Y0035770D01*
X0328898Y0037401D01*
X0326766Y0038284D01*
X0324459Y0038284D01*
X0322327Y0037401D01*
X0320696Y0035770D01*
X0320613Y0035569D01*
X0320530Y0035770D01*
X0318898Y0037401D01*
X0316766Y0038284D01*
X0314459Y0038284D01*
X0312327Y0037401D01*
X0311374Y0036448D02*
X0299569Y0036448D01*
X0300567Y0035449D02*
X0310563Y0035449D01*
X0310149Y0034451D02*
X0301213Y0034451D01*
X0301213Y0033452D02*
X0309813Y0033452D01*
X0309813Y0032454D02*
X0301213Y0032454D01*
X0301213Y0031455D02*
X0309813Y0031455D01*
X0310174Y0030457D02*
X0301213Y0030457D01*
X0300506Y0029458D02*
X0310588Y0029458D01*
X0311435Y0028460D02*
X0299508Y0028460D01*
X0298509Y0027461D02*
X0312583Y0027461D01*
X0314947Y0026463D02*
X0096138Y0026463D01*
X0096138Y0025464D02*
X0314813Y0025464D01*
X0314813Y0024466D02*
X0096138Y0024466D01*
X0096138Y0023467D02*
X0314963Y0023467D01*
X0315377Y0022469D02*
X0096138Y0022469D01*
X0096138Y0021470D02*
X0315924Y0021470D01*
X0316923Y0020472D02*
X0096138Y0020472D01*
X0095375Y0019473D02*
X0318761Y0019473D01*
X0322464Y0019473D02*
X0335213Y0019473D01*
X0335213Y0018475D02*
X0094976Y0018475D01*
X0094976Y0017476D02*
X0336015Y0017476D01*
X0335213Y0018279D02*
X0338376Y0015116D01*
X0342849Y0015116D01*
X0346013Y0018279D01*
X0346013Y0022752D01*
X0342849Y0025916D01*
X0338376Y0025916D01*
X0335213Y0022752D01*
X0335213Y0018279D01*
X0337014Y0016478D02*
X0094976Y0016478D01*
X0094976Y0015479D02*
X0338012Y0015479D01*
X0343213Y0015479D02*
X0378012Y0015479D01*
X0378376Y0015116D02*
X0382849Y0015116D01*
X0386013Y0018279D01*
X0386013Y0022752D01*
X0382849Y0025916D01*
X0378376Y0025916D01*
X0375213Y0022752D01*
X0375213Y0018279D01*
X0378376Y0015116D01*
X0377014Y0016478D02*
X0344211Y0016478D01*
X0345210Y0017476D02*
X0376015Y0017476D01*
X0375213Y0018475D02*
X0346013Y0018475D01*
X0346013Y0019473D02*
X0375213Y0019473D01*
X0375213Y0020472D02*
X0346013Y0020472D01*
X0346013Y0021470D02*
X0375213Y0021470D01*
X0375213Y0022469D02*
X0346013Y0022469D01*
X0345298Y0023467D02*
X0375927Y0023467D01*
X0376926Y0024466D02*
X0344299Y0024466D01*
X0343301Y0025464D02*
X0377924Y0025464D01*
X0379593Y0027482D02*
X0381762Y0026584D01*
X0384109Y0026584D01*
X0386278Y0027482D01*
X0387937Y0029142D01*
X0388835Y0031311D01*
X0388835Y0033658D01*
X0387937Y0035826D01*
X0386278Y0037486D01*
X0384109Y0038384D01*
X0381762Y0038384D01*
X0379593Y0037486D01*
X0377934Y0035826D01*
X0377035Y0033658D01*
X0377035Y0031311D01*
X0377934Y0029142D01*
X0379593Y0027482D01*
X0379644Y0027461D02*
X0368226Y0027461D01*
X0367849Y0027084D02*
X0371013Y0030248D01*
X0371013Y0034721D01*
X0367849Y0037884D01*
X0363376Y0037884D01*
X0360213Y0034721D01*
X0360213Y0030248D01*
X0363376Y0027084D01*
X0367849Y0027084D01*
X0369225Y0028460D02*
X0378616Y0028460D01*
X0377803Y0029458D02*
X0370223Y0029458D01*
X0371013Y0030457D02*
X0377389Y0030457D01*
X0377035Y0031455D02*
X0371013Y0031455D01*
X0371013Y0032454D02*
X0377035Y0032454D01*
X0377035Y0033452D02*
X0371013Y0033452D01*
X0371013Y0034451D02*
X0377364Y0034451D01*
X0377778Y0035449D02*
X0370284Y0035449D01*
X0369286Y0036448D02*
X0378555Y0036448D01*
X0379554Y0037446D02*
X0368287Y0037446D01*
X0362938Y0037446D02*
X0328789Y0037446D01*
X0329851Y0036448D02*
X0361940Y0036448D01*
X0360941Y0035449D02*
X0330662Y0035449D01*
X0331076Y0034451D02*
X0360213Y0034451D01*
X0360213Y0033452D02*
X0331413Y0033452D01*
X0331413Y0032454D02*
X0360213Y0032454D01*
X0360213Y0031455D02*
X0331413Y0031455D01*
X0331051Y0030457D02*
X0360213Y0030457D01*
X0361002Y0029458D02*
X0330637Y0029458D01*
X0329791Y0028460D02*
X0362000Y0028460D01*
X0362999Y0027461D02*
X0328642Y0027461D01*
X0326278Y0026463D02*
X0404261Y0026463D01*
X0404261Y0027461D02*
X0386226Y0027461D01*
X0387255Y0028460D02*
X0404261Y0028460D01*
X0404261Y0029458D02*
X0388068Y0029458D01*
X0388482Y0030457D02*
X0404261Y0030457D01*
X0404261Y0031455D02*
X0388835Y0031455D01*
X0388835Y0032454D02*
X0404261Y0032454D01*
X0404261Y0033452D02*
X0388835Y0033452D01*
X0388507Y0034451D02*
X0404261Y0034451D01*
X0404261Y0035449D02*
X0388093Y0035449D01*
X0387316Y0036448D02*
X0404261Y0036448D01*
X0404261Y0037446D02*
X0386317Y0037446D01*
X0383301Y0025464D02*
X0404261Y0025464D01*
X0404261Y0024466D02*
X0384299Y0024466D01*
X0385298Y0023467D02*
X0404261Y0023467D01*
X0404261Y0022469D02*
X0386013Y0022469D01*
X0386013Y0021470D02*
X0404261Y0021470D01*
X0404261Y0020472D02*
X0386013Y0020472D01*
X0386013Y0019473D02*
X0404261Y0019473D01*
X0404261Y0018475D02*
X0386013Y0018475D01*
X0385210Y0017476D02*
X0404261Y0017476D01*
X0404210Y0016478D02*
X0384211Y0016478D01*
X0383213Y0015479D02*
X0404145Y0015479D01*
X0403880Y0014481D02*
X0094976Y0014481D01*
X0094976Y0013482D02*
X0403612Y0013482D01*
X0403345Y0012484D02*
X0094976Y0012484D01*
X0095369Y0011485D02*
X0402910Y0011485D01*
X0402333Y0010487D02*
X0096138Y0010487D01*
X0096138Y0009488D02*
X0401757Y0009488D01*
X0400990Y0008490D02*
X0096138Y0008490D01*
X0096138Y0007491D02*
X0399992Y0007491D01*
X0398993Y0006493D02*
X0096138Y0006493D01*
X0096138Y0005494D02*
X0397317Y0005494D01*
X0395301Y0004496D02*
X0096138Y0004496D01*
X0110567Y0035449D02*
X0110658Y0035449D01*
X0111657Y0036448D02*
X0109569Y0036448D01*
X0108570Y0037446D02*
X0112655Y0037446D01*
X0118570Y0037446D02*
X0122655Y0037446D01*
X0121657Y0036448D02*
X0119569Y0036448D01*
X0120567Y0035449D02*
X0120658Y0035449D01*
X0128570Y0037446D02*
X0132655Y0037446D01*
X0131657Y0036448D02*
X0129569Y0036448D01*
X0130567Y0035449D02*
X0130658Y0035449D01*
X0138570Y0037446D02*
X0142655Y0037446D01*
X0141657Y0036448D02*
X0139569Y0036448D01*
X0140567Y0035449D02*
X0140658Y0035449D01*
X0148570Y0037446D02*
X0152655Y0037446D01*
X0151657Y0036448D02*
X0149569Y0036448D01*
X0150567Y0035449D02*
X0150658Y0035449D01*
X0158570Y0037446D02*
X0162655Y0037446D01*
X0161657Y0036448D02*
X0159569Y0036448D01*
X0160567Y0035449D02*
X0160658Y0035449D01*
X0168570Y0037446D02*
X0172655Y0037446D01*
X0171657Y0036448D02*
X0169569Y0036448D01*
X0170567Y0035449D02*
X0170658Y0035449D01*
X0178570Y0037446D02*
X0182655Y0037446D01*
X0181657Y0036448D02*
X0179569Y0036448D01*
X0180567Y0035449D02*
X0180658Y0035449D01*
X0188570Y0037446D02*
X0192655Y0037446D01*
X0191657Y0036448D02*
X0189569Y0036448D01*
X0190567Y0035449D02*
X0190658Y0035449D01*
X0228509Y0027461D02*
X0232716Y0027461D01*
X0231717Y0028460D02*
X0229508Y0028460D01*
X0230506Y0029458D02*
X0230719Y0029458D01*
X0238509Y0027461D02*
X0242716Y0027461D01*
X0241717Y0028460D02*
X0239508Y0028460D01*
X0240506Y0029458D02*
X0240719Y0029458D01*
X0248509Y0027461D02*
X0252716Y0027461D01*
X0251717Y0028460D02*
X0249508Y0028460D01*
X0250506Y0029458D02*
X0250719Y0029458D01*
X0258509Y0027461D02*
X0262716Y0027461D01*
X0261717Y0028460D02*
X0259508Y0028460D01*
X0260506Y0029458D02*
X0260719Y0029458D01*
X0268509Y0027461D02*
X0272716Y0027461D01*
X0271717Y0028460D02*
X0269508Y0028460D01*
X0270506Y0029458D02*
X0270719Y0029458D01*
X0278509Y0027461D02*
X0282716Y0027461D01*
X0281717Y0028460D02*
X0279508Y0028460D01*
X0280506Y0029458D02*
X0280719Y0029458D01*
X0288509Y0027461D02*
X0292716Y0027461D01*
X0291717Y0028460D02*
X0289508Y0028460D01*
X0290506Y0029458D02*
X0290719Y0029458D01*
X0318789Y0037446D02*
X0322436Y0037446D01*
X0321374Y0036448D02*
X0319851Y0036448D01*
X0326413Y0025464D02*
X0337924Y0025464D01*
X0336926Y0024466D02*
X0326413Y0024466D01*
X0326262Y0023467D02*
X0335927Y0023467D01*
X0335213Y0022469D02*
X0325848Y0022469D01*
X0325301Y0021470D02*
X0335213Y0021470D01*
X0335213Y0020472D02*
X0324302Y0020472D01*
X0282909Y0157268D02*
X0278316Y0157268D01*
X0279314Y0158266D02*
X0281911Y0158266D01*
X0280912Y0159265D02*
X0280313Y0159265D01*
X0272909Y0157268D02*
X0268316Y0157268D01*
X0269314Y0158266D02*
X0271911Y0158266D01*
X0270912Y0159265D02*
X0270313Y0159265D01*
X0262909Y0157268D02*
X0258316Y0157268D01*
X0259314Y0158266D02*
X0261911Y0158266D01*
X0260912Y0159265D02*
X0260313Y0159265D01*
X0252909Y0157268D02*
X0248316Y0157268D01*
X0249314Y0158266D02*
X0251911Y0158266D01*
X0250912Y0159265D02*
X0250313Y0159265D01*
X0242909Y0157268D02*
X0238316Y0157268D01*
X0239314Y0158266D02*
X0241911Y0158266D01*
X0240912Y0159265D02*
X0240313Y0159265D01*
X0152462Y0167253D02*
X0148764Y0167253D01*
X0149762Y0166254D02*
X0151463Y0166254D01*
X0142462Y0167253D02*
X0138764Y0167253D01*
X0139762Y0166254D02*
X0141463Y0166254D01*
X0132462Y0167253D02*
X0128764Y0167253D01*
X0129762Y0166254D02*
X0131463Y0166254D01*
X0334096Y0161262D02*
X0359851Y0161262D01*
X0360983Y0160263D02*
X0336506Y0160263D01*
X0366306Y0160263D02*
X0370983Y0160263D01*
X0369851Y0161262D02*
X0367437Y0161262D01*
X0368162Y0162260D02*
X0369127Y0162260D01*
X0368713Y0163259D02*
X0368575Y0163259D01*
X0376306Y0160263D02*
X0380983Y0160263D01*
X0379851Y0161262D02*
X0377437Y0161262D01*
X0378162Y0162260D02*
X0379127Y0162260D01*
X0378713Y0163259D02*
X0378575Y0163259D01*
X0378516Y0172245D02*
X0378772Y0172245D01*
X0379185Y0173244D02*
X0378103Y0173244D01*
X0377295Y0174242D02*
X0379993Y0174242D01*
X0381326Y0175241D02*
X0375963Y0175241D01*
X0371326Y0175241D02*
X0365963Y0175241D01*
X0367295Y0174242D02*
X0369993Y0174242D01*
X0369185Y0173244D02*
X0368103Y0173244D01*
X0368516Y0172245D02*
X0368772Y0172245D01*
D27*
X0332345Y0153075D03*
X0029195Y0034965D03*
M02*
