G75*
%MOIN*%
%OFA0B0*%
%FSLAX25Y25*%
%IPPOS*%
%LPD*%
%AMOC8*
5,1,8,0,0,1.08239X$1,22.5*
%
%ADD10OC8,0.05100*%
%ADD11C,0.05100*%
%ADD12OC8,0.05300*%
%ADD13C,0.08100*%
%ADD14C,0.06500*%
%ADD15C,0.07100*%
%ADD16C,0.13500*%
%ADD17OC8,0.07500*%
%ADD18OC8,0.07100*%
%ADD19C,0.05300*%
%ADD20C,0.07900*%
%ADD21C,0.06350*%
%ADD22R,0.06500X0.06500*%
%ADD23C,0.12768*%
D10*
X0050613Y0045984D03*
X0059113Y0137484D03*
D11*
X0052113Y0137484D03*
X0050613Y0038984D03*
D12*
X0090613Y0142484D03*
X0110613Y0142484D03*
X0186518Y0143232D03*
X0206518Y0143232D03*
X0206518Y0158980D03*
X0186518Y0158980D03*
D13*
X0346361Y0148154D03*
X0386361Y0148154D03*
X0382935Y0072484D03*
X0382935Y0032484D03*
D14*
X0383644Y0164681D02*
X0383644Y0170681D01*
X0373644Y0170681D02*
X0373644Y0164681D01*
X0363644Y0164681D02*
X0363644Y0170681D01*
D15*
X0058413Y0097406D03*
X0050613Y0097406D03*
X0050613Y0087563D03*
X0058413Y0087563D03*
D16*
X0039913Y0068784D03*
X0039913Y0116184D03*
D17*
X0065613Y0032484D03*
X0075613Y0032484D03*
X0085613Y0032484D03*
X0105613Y0032484D03*
X0115613Y0032484D03*
X0125613Y0032484D03*
X0135613Y0032484D03*
X0145613Y0032484D03*
X0155613Y0032484D03*
X0165613Y0032484D03*
X0175613Y0032484D03*
X0185613Y0032484D03*
X0195613Y0032484D03*
X0225613Y0032484D03*
X0235613Y0032484D03*
X0245613Y0032484D03*
X0255613Y0032484D03*
X0265613Y0032484D03*
X0275613Y0032484D03*
X0285613Y0032484D03*
X0295613Y0032484D03*
X0285613Y0162484D03*
X0275613Y0162484D03*
X0265613Y0162484D03*
X0255613Y0162484D03*
X0245613Y0162484D03*
X0235613Y0162484D03*
X0155613Y0162484D03*
X0145613Y0162484D03*
X0135613Y0162484D03*
X0125613Y0162484D03*
X0115613Y0162484D03*
X0105613Y0162484D03*
X0085613Y0162484D03*
X0075613Y0162484D03*
X0065613Y0162484D03*
D18*
X0035613Y0172484D03*
X0035613Y0132484D03*
X0195416Y0088114D03*
X0235416Y0088114D03*
X0310613Y0107484D03*
X0310613Y0117484D03*
X0350613Y0117484D03*
X0350613Y0107484D03*
X0344038Y0082484D03*
X0365613Y0072484D03*
X0384038Y0082484D03*
X0355613Y0057484D03*
X0345613Y0047484D03*
X0315613Y0057484D03*
X0305613Y0047484D03*
X0340613Y0020516D03*
X0365613Y0032484D03*
X0380613Y0020516D03*
X0215613Y0135437D03*
X0215613Y0175437D03*
X0305613Y0167327D03*
X0315613Y0167327D03*
X0315613Y0139768D03*
X0305613Y0139768D03*
D19*
X0171597Y0141921D03*
X0171597Y0160921D03*
D20*
X0375613Y0127484D03*
X0375613Y0117484D03*
X0375613Y0107484D03*
X0325613Y0032484D03*
X0315613Y0032484D03*
X0320613Y0024984D03*
D21*
X0295613Y0059559D02*
X0295613Y0065409D01*
X0285613Y0065409D02*
X0285613Y0059559D01*
X0275613Y0059559D02*
X0275613Y0065409D01*
X0265613Y0065409D02*
X0265613Y0059559D01*
X0255613Y0059559D02*
X0255613Y0065409D01*
X0245613Y0065409D02*
X0245613Y0059559D01*
X0235613Y0059559D02*
X0235613Y0065409D01*
X0225613Y0065409D02*
X0225613Y0059559D01*
X0215613Y0059559D02*
X0215613Y0065409D01*
X0205613Y0065409D02*
X0205613Y0059559D01*
X0195613Y0059559D02*
X0195613Y0065409D01*
X0185613Y0065409D02*
X0185613Y0059559D01*
X0175613Y0059559D02*
X0175613Y0065409D01*
X0165613Y0065409D02*
X0165613Y0059559D01*
X0155613Y0059559D02*
X0155613Y0065409D01*
X0145613Y0065409D02*
X0145613Y0059559D01*
X0135613Y0059559D02*
X0135613Y0065409D01*
X0125613Y0065409D02*
X0125613Y0059559D01*
X0115613Y0059559D02*
X0115613Y0065409D01*
X0105613Y0065409D02*
X0105613Y0059559D01*
X0105613Y0119559D02*
X0105613Y0125409D01*
X0115613Y0125409D02*
X0115613Y0119559D01*
X0125613Y0119559D02*
X0125613Y0125409D01*
X0135613Y0125409D02*
X0135613Y0119559D01*
X0145613Y0119559D02*
X0145613Y0125409D01*
X0155613Y0125409D02*
X0155613Y0119559D01*
X0165613Y0119559D02*
X0165613Y0125409D01*
X0175613Y0125409D02*
X0175613Y0119559D01*
X0185613Y0119559D02*
X0185613Y0125409D01*
X0195613Y0125409D02*
X0195613Y0119559D01*
X0205613Y0119559D02*
X0205613Y0125409D01*
X0215613Y0125409D02*
X0215613Y0119559D01*
X0225613Y0119559D02*
X0225613Y0125409D01*
X0235613Y0125409D02*
X0235613Y0119559D01*
X0245613Y0119559D02*
X0245613Y0125409D01*
X0255613Y0125409D02*
X0255613Y0119559D01*
X0265613Y0119559D02*
X0265613Y0125409D01*
X0275613Y0125409D02*
X0275613Y0119559D01*
X0285613Y0119559D02*
X0285613Y0125409D01*
X0295613Y0125409D02*
X0295613Y0119559D01*
D22*
X0315047Y0087634D03*
X0334210Y0087634D03*
D23*
X0332345Y0153075D03*
X0029195Y0034965D03*
M02*
