G75*
%MOIN*%
%OFA0B0*%
%FSLAX25Y25*%
%IPPOS*%
%LPD*%
%AMOC8*
5,1,8,0,0,1.08239X$1,22.5*
%
%ADD10C,0.00000*%
D10*
X0032345Y0001500D02*
X0390613Y0001500D01*
X0390994Y0001505D01*
X0391374Y0001518D01*
X0391754Y0001541D01*
X0392133Y0001574D01*
X0392511Y0001615D01*
X0392888Y0001665D01*
X0393264Y0001725D01*
X0393639Y0001793D01*
X0394011Y0001871D01*
X0394382Y0001958D01*
X0394750Y0002053D01*
X0395116Y0002158D01*
X0395479Y0002271D01*
X0395840Y0002393D01*
X0396197Y0002523D01*
X0396551Y0002663D01*
X0396902Y0002810D01*
X0397249Y0002967D01*
X0397592Y0003131D01*
X0397931Y0003304D01*
X0398266Y0003485D01*
X0398597Y0003674D01*
X0398922Y0003871D01*
X0399243Y0004075D01*
X0399559Y0004288D01*
X0399869Y0004508D01*
X0400175Y0004735D01*
X0400474Y0004970D01*
X0400768Y0005212D01*
X0401056Y0005460D01*
X0401338Y0005716D01*
X0401613Y0005979D01*
X0401882Y0006248D01*
X0402145Y0006523D01*
X0402401Y0006805D01*
X0402649Y0007093D01*
X0402891Y0007387D01*
X0403126Y0007686D01*
X0403353Y0007992D01*
X0403573Y0008302D01*
X0403786Y0008618D01*
X0403990Y0008939D01*
X0404187Y0009264D01*
X0404376Y0009595D01*
X0404557Y0009930D01*
X0404730Y0010269D01*
X0404894Y0010612D01*
X0405051Y0010959D01*
X0405198Y0011310D01*
X0405338Y0011664D01*
X0405468Y0012021D01*
X0405590Y0012382D01*
X0405703Y0012745D01*
X0405808Y0013111D01*
X0405903Y0013479D01*
X0405990Y0013850D01*
X0406068Y0014222D01*
X0406136Y0014597D01*
X0406196Y0014973D01*
X0406246Y0015350D01*
X0406287Y0015728D01*
X0406320Y0016107D01*
X0406343Y0016487D01*
X0406356Y0016867D01*
X0406361Y0017248D01*
X0406361Y0166854D01*
X0406356Y0167235D01*
X0406343Y0167615D01*
X0406320Y0167995D01*
X0406287Y0168374D01*
X0406246Y0168752D01*
X0406196Y0169129D01*
X0406136Y0169505D01*
X0406068Y0169880D01*
X0405990Y0170252D01*
X0405903Y0170623D01*
X0405808Y0170991D01*
X0405703Y0171357D01*
X0405590Y0171720D01*
X0405468Y0172081D01*
X0405338Y0172438D01*
X0405198Y0172792D01*
X0405051Y0173143D01*
X0404894Y0173490D01*
X0404730Y0173833D01*
X0404557Y0174172D01*
X0404376Y0174507D01*
X0404187Y0174838D01*
X0403990Y0175163D01*
X0403786Y0175484D01*
X0403573Y0175800D01*
X0403353Y0176110D01*
X0403126Y0176416D01*
X0402891Y0176715D01*
X0402649Y0177009D01*
X0402401Y0177297D01*
X0402145Y0177579D01*
X0401882Y0177854D01*
X0401613Y0178123D01*
X0401338Y0178386D01*
X0401056Y0178642D01*
X0400768Y0178890D01*
X0400474Y0179132D01*
X0400175Y0179367D01*
X0399869Y0179594D01*
X0399559Y0179814D01*
X0399243Y0180027D01*
X0398922Y0180231D01*
X0398597Y0180428D01*
X0398266Y0180617D01*
X0397931Y0180798D01*
X0397592Y0180971D01*
X0397249Y0181135D01*
X0396902Y0181292D01*
X0396551Y0181439D01*
X0396197Y0181579D01*
X0395840Y0181709D01*
X0395479Y0181831D01*
X0395116Y0181944D01*
X0394750Y0182049D01*
X0394382Y0182144D01*
X0394011Y0182231D01*
X0393639Y0182309D01*
X0393264Y0182377D01*
X0392888Y0182437D01*
X0392511Y0182487D01*
X0392133Y0182528D01*
X0391754Y0182561D01*
X0391374Y0182584D01*
X0390994Y0182597D01*
X0390613Y0182602D01*
X0032345Y0182602D01*
X0031964Y0182597D01*
X0031584Y0182584D01*
X0031204Y0182561D01*
X0030825Y0182528D01*
X0030447Y0182487D01*
X0030070Y0182437D01*
X0029694Y0182377D01*
X0029319Y0182309D01*
X0028947Y0182231D01*
X0028576Y0182144D01*
X0028208Y0182049D01*
X0027842Y0181944D01*
X0027479Y0181831D01*
X0027118Y0181709D01*
X0026761Y0181579D01*
X0026407Y0181439D01*
X0026056Y0181292D01*
X0025709Y0181135D01*
X0025366Y0180971D01*
X0025027Y0180798D01*
X0024692Y0180617D01*
X0024361Y0180428D01*
X0024036Y0180231D01*
X0023715Y0180027D01*
X0023399Y0179814D01*
X0023089Y0179594D01*
X0022783Y0179367D01*
X0022484Y0179132D01*
X0022190Y0178890D01*
X0021902Y0178642D01*
X0021620Y0178386D01*
X0021345Y0178123D01*
X0021076Y0177854D01*
X0020813Y0177579D01*
X0020557Y0177297D01*
X0020309Y0177009D01*
X0020067Y0176715D01*
X0019832Y0176416D01*
X0019605Y0176110D01*
X0019385Y0175800D01*
X0019172Y0175484D01*
X0018968Y0175163D01*
X0018771Y0174838D01*
X0018582Y0174507D01*
X0018401Y0174172D01*
X0018228Y0173833D01*
X0018064Y0173490D01*
X0017907Y0173143D01*
X0017760Y0172792D01*
X0017620Y0172438D01*
X0017490Y0172081D01*
X0017368Y0171720D01*
X0017255Y0171357D01*
X0017150Y0170991D01*
X0017055Y0170623D01*
X0016968Y0170252D01*
X0016890Y0169880D01*
X0016822Y0169505D01*
X0016762Y0169129D01*
X0016712Y0168752D01*
X0016671Y0168374D01*
X0016638Y0167995D01*
X0016615Y0167615D01*
X0016602Y0167235D01*
X0016597Y0166854D01*
X0016597Y0017248D01*
X0016602Y0016867D01*
X0016615Y0016487D01*
X0016638Y0016107D01*
X0016671Y0015728D01*
X0016712Y0015350D01*
X0016762Y0014973D01*
X0016822Y0014597D01*
X0016890Y0014222D01*
X0016968Y0013850D01*
X0017055Y0013479D01*
X0017150Y0013111D01*
X0017255Y0012745D01*
X0017368Y0012382D01*
X0017490Y0012021D01*
X0017620Y0011664D01*
X0017760Y0011310D01*
X0017907Y0010959D01*
X0018064Y0010612D01*
X0018228Y0010269D01*
X0018401Y0009930D01*
X0018582Y0009595D01*
X0018771Y0009264D01*
X0018968Y0008939D01*
X0019172Y0008618D01*
X0019385Y0008302D01*
X0019605Y0007992D01*
X0019832Y0007686D01*
X0020067Y0007387D01*
X0020309Y0007093D01*
X0020557Y0006805D01*
X0020813Y0006523D01*
X0021076Y0006248D01*
X0021345Y0005979D01*
X0021620Y0005716D01*
X0021902Y0005460D01*
X0022190Y0005212D01*
X0022484Y0004970D01*
X0022783Y0004735D01*
X0023089Y0004508D01*
X0023399Y0004288D01*
X0023715Y0004075D01*
X0024036Y0003871D01*
X0024361Y0003674D01*
X0024692Y0003485D01*
X0025027Y0003304D01*
X0025366Y0003131D01*
X0025709Y0002967D01*
X0026056Y0002810D01*
X0026407Y0002663D01*
X0026761Y0002523D01*
X0027118Y0002393D01*
X0027479Y0002271D01*
X0027842Y0002158D01*
X0028208Y0002053D01*
X0028576Y0001958D01*
X0028947Y0001871D01*
X0029319Y0001793D01*
X0029694Y0001725D01*
X0030070Y0001665D01*
X0030447Y0001615D01*
X0030825Y0001574D01*
X0031204Y0001541D01*
X0031584Y0001518D01*
X0031964Y0001505D01*
X0032345Y0001500D01*
M02*
