G75*
%MOIN*%
%OFA0B0*%
%FSLAX25Y25*%
%IPPOS*%
%LPD*%
%AMOC8*
5,1,8,0,0,1.08239X$1,22.5*
%
%ADD10OC8,0.04600*%
%ADD11C,0.04600*%
%ADD12OC8,0.04800*%
%ADD13C,0.07600*%
%ADD14C,0.06000*%
%ADD15C,0.06600*%
%ADD16C,0.13000*%
%ADD17OC8,0.07000*%
%ADD18OC8,0.06600*%
%ADD19C,0.04800*%
%ADD20C,0.07400*%
%ADD21C,0.05850*%
%ADD22R,0.06000X0.06000*%
%ADD23C,0.02400*%
%ADD24R,0.04724X0.04724*%
%ADD25C,0.12268*%
D10*
X0050613Y0045984D03*
X0059113Y0137484D03*
D11*
X0052113Y0137484D03*
X0050613Y0038984D03*
D12*
X0090613Y0142484D03*
X0110613Y0142484D03*
X0186518Y0143232D03*
X0206518Y0143232D03*
X0206518Y0158980D03*
X0186518Y0158980D03*
D13*
X0346361Y0148154D03*
X0386361Y0148154D03*
X0382935Y0072484D03*
X0382935Y0032484D03*
D14*
X0383644Y0164681D02*
X0383644Y0170681D01*
X0373644Y0170681D02*
X0373644Y0164681D01*
X0363644Y0164681D02*
X0363644Y0170681D01*
D15*
X0058413Y0097406D03*
X0050613Y0097406D03*
X0050613Y0087563D03*
X0058413Y0087563D03*
D16*
X0039913Y0068784D03*
X0039913Y0116184D03*
D17*
X0065613Y0162484D03*
X0075613Y0162484D03*
X0085613Y0162484D03*
X0105613Y0162484D03*
X0115613Y0162484D03*
X0125613Y0162484D03*
X0135613Y0162484D03*
X0145613Y0162484D03*
X0155613Y0162484D03*
X0235613Y0162484D03*
X0245613Y0162484D03*
X0255613Y0162484D03*
X0265613Y0162484D03*
X0275613Y0162484D03*
X0285613Y0162484D03*
X0285613Y0032484D03*
X0295613Y0032484D03*
X0275613Y0032484D03*
X0265613Y0032484D03*
X0255613Y0032484D03*
X0245613Y0032484D03*
X0235613Y0032484D03*
X0225613Y0032484D03*
X0195613Y0032484D03*
X0185613Y0032484D03*
X0175613Y0032484D03*
X0165613Y0032484D03*
X0155613Y0032484D03*
X0145613Y0032484D03*
X0135613Y0032484D03*
X0125613Y0032484D03*
X0115613Y0032484D03*
X0105613Y0032484D03*
X0085613Y0032484D03*
X0075613Y0032484D03*
X0065613Y0032484D03*
D18*
X0195416Y0088114D03*
X0235416Y0088114D03*
X0310613Y0107484D03*
X0310613Y0117484D03*
X0350613Y0117484D03*
X0350613Y0107484D03*
X0344038Y0082484D03*
X0365613Y0072484D03*
X0384038Y0082484D03*
X0355613Y0057484D03*
X0345613Y0047484D03*
X0315613Y0057484D03*
X0305613Y0047484D03*
X0340613Y0020516D03*
X0365613Y0032484D03*
X0380613Y0020516D03*
X0215613Y0135437D03*
X0215613Y0175437D03*
X0305613Y0167327D03*
X0315613Y0167327D03*
X0315613Y0139768D03*
X0305613Y0139768D03*
X0035613Y0132484D03*
X0035613Y0172484D03*
D19*
X0171597Y0160921D03*
X0171597Y0141921D03*
D20*
X0375613Y0127484D03*
X0375613Y0117484D03*
X0375613Y0107484D03*
X0325613Y0032484D03*
X0315613Y0032484D03*
X0320613Y0024984D03*
D21*
X0295613Y0059559D02*
X0295613Y0065409D01*
X0285613Y0065409D02*
X0285613Y0059559D01*
X0275613Y0059559D02*
X0275613Y0065409D01*
X0265613Y0065409D02*
X0265613Y0059559D01*
X0255613Y0059559D02*
X0255613Y0065409D01*
X0245613Y0065409D02*
X0245613Y0059559D01*
X0235613Y0059559D02*
X0235613Y0065409D01*
X0225613Y0065409D02*
X0225613Y0059559D01*
X0215613Y0059559D02*
X0215613Y0065409D01*
X0205613Y0065409D02*
X0205613Y0059559D01*
X0195613Y0059559D02*
X0195613Y0065409D01*
X0185613Y0065409D02*
X0185613Y0059559D01*
X0175613Y0059559D02*
X0175613Y0065409D01*
X0165613Y0065409D02*
X0165613Y0059559D01*
X0155613Y0059559D02*
X0155613Y0065409D01*
X0145613Y0065409D02*
X0145613Y0059559D01*
X0135613Y0059559D02*
X0135613Y0065409D01*
X0125613Y0065409D02*
X0125613Y0059559D01*
X0115613Y0059559D02*
X0115613Y0065409D01*
X0105613Y0065409D02*
X0105613Y0059559D01*
X0105613Y0119559D02*
X0105613Y0125409D01*
X0115613Y0125409D02*
X0115613Y0119559D01*
X0125613Y0119559D02*
X0125613Y0125409D01*
X0135613Y0125409D02*
X0135613Y0119559D01*
X0145613Y0119559D02*
X0145613Y0125409D01*
X0155613Y0125409D02*
X0155613Y0119559D01*
X0165613Y0119559D02*
X0165613Y0125409D01*
X0175613Y0125409D02*
X0175613Y0119559D01*
X0185613Y0119559D02*
X0185613Y0125409D01*
X0195613Y0125409D02*
X0195613Y0119559D01*
X0205613Y0119559D02*
X0205613Y0125409D01*
X0215613Y0125409D02*
X0215613Y0119559D01*
X0225613Y0119559D02*
X0225613Y0125409D01*
X0235613Y0125409D02*
X0235613Y0119559D01*
X0245613Y0119559D02*
X0245613Y0125409D01*
X0255613Y0125409D02*
X0255613Y0119559D01*
X0265613Y0119559D02*
X0265613Y0125409D01*
X0275613Y0125409D02*
X0275613Y0119559D01*
X0285613Y0119559D02*
X0285613Y0125409D01*
X0295613Y0125409D02*
X0295613Y0119559D01*
D22*
X0315047Y0087634D03*
X0334210Y0087634D03*
D23*
X0050613Y0038902D02*
X0050613Y0027484D01*
X0065613Y0012484D01*
X0345613Y0012484D01*
X0350613Y0017484D01*
X0350613Y0027484D01*
X0345613Y0032484D01*
X0325613Y0032484D01*
X0315613Y0032484D02*
X0305613Y0042484D01*
X0305613Y0047484D01*
X0325613Y0047484D01*
X0335613Y0037484D01*
X0350613Y0037484D01*
X0355613Y0042484D01*
X0375613Y0042484D01*
X0382935Y0049807D01*
X0382935Y0072484D01*
X0385613Y0072484D01*
X0390613Y0077484D01*
X0390613Y0107484D01*
X0380613Y0117484D01*
X0375613Y0117484D01*
X0375613Y0107484D02*
X0375613Y0087484D01*
X0373880Y0085752D01*
X0373880Y0061539D01*
X0369825Y0057484D01*
X0355613Y0057484D01*
X0345613Y0047484D02*
X0335613Y0047484D01*
X0325613Y0057484D01*
X0325613Y0063584D01*
X0316713Y0072484D01*
X0316676Y0072484D01*
X0314825Y0074335D01*
X0314825Y0087413D01*
X0315047Y0087634D01*
X0315047Y0096919D01*
X0320613Y0102484D01*
X0320613Y0120516D01*
X0315613Y0125516D01*
X0296676Y0125516D01*
X0295613Y0122484D01*
X0285613Y0122484D02*
X0285613Y0162484D01*
X0275613Y0162484D02*
X0275613Y0122484D01*
X0265613Y0122484D02*
X0265613Y0162484D01*
X0255613Y0162484D02*
X0255613Y0122484D01*
X0245613Y0122484D02*
X0245613Y0162484D01*
X0235613Y0162484D02*
X0235613Y0135870D01*
X0231557Y0131815D01*
X0228487Y0131815D01*
X0225613Y0128941D01*
X0225613Y0122484D01*
X0225613Y0112484D01*
X0235613Y0102484D01*
X0290613Y0102484D01*
X0305613Y0117484D01*
X0310613Y0117484D01*
X0310613Y0107484D02*
X0305613Y0107484D01*
X0295613Y0097484D01*
X0230613Y0097484D01*
X0215613Y0112484D01*
X0215613Y0122484D01*
X0215613Y0125673D01*
X0223605Y0133665D01*
X0224786Y0133665D01*
X0230613Y0139492D01*
X0230613Y0147484D01*
X0215613Y0162484D01*
X0210613Y0162484D01*
X0205613Y0167484D01*
X0185613Y0167484D01*
X0180613Y0172484D01*
X0130613Y0172484D01*
X0125613Y0167484D01*
X0125613Y0162484D01*
X0115613Y0162484D02*
X0115613Y0159571D01*
X0098290Y0142248D01*
X0085849Y0142248D01*
X0085613Y0142484D01*
X0085613Y0162484D01*
X0075613Y0162484D02*
X0075613Y0152484D01*
X0070613Y0147484D01*
X0080613Y0142484D02*
X0070613Y0132484D01*
X0070613Y0117484D01*
X0075613Y0117484D01*
X0080613Y0112484D01*
X0190613Y0112484D01*
X0185613Y0117484D01*
X0185613Y0122484D01*
X0185613Y0128193D01*
X0188841Y0131421D01*
X0188841Y0131461D01*
X0191046Y0133665D01*
X0196951Y0133665D01*
X0206518Y0143232D01*
X0223880Y0143232D01*
X0224628Y0142484D01*
X0215613Y0135437D02*
X0209589Y0135437D01*
X0205573Y0131421D01*
X0205573Y0122524D01*
X0205613Y0122484D01*
X0205613Y0127484D01*
X0195731Y0122366D02*
X0195613Y0122484D01*
X0195731Y0122366D02*
X0195731Y0115673D01*
X0215731Y0095673D01*
X0215731Y0088114D01*
X0235416Y0088114D01*
X0215731Y0088114D02*
X0215731Y0084295D01*
X0215613Y0084177D01*
X0215613Y0072484D01*
X0300613Y0072484D01*
X0305613Y0067484D01*
X0305613Y0047484D01*
X0315613Y0057484D02*
X0310613Y0062484D01*
X0310613Y0072484D01*
X0295613Y0087484D01*
X0265613Y0087484D01*
X0265613Y0110516D02*
X0240613Y0110516D01*
X0235613Y0115516D01*
X0235613Y0122484D01*
X0206518Y0143232D02*
X0206518Y0158980D01*
X0186518Y0158980D02*
X0184550Y0160949D01*
X0171624Y0160949D01*
X0171597Y0160921D01*
X0168144Y0160921D01*
X0163250Y0156028D01*
X0163250Y0134374D01*
X0166203Y0131421D01*
X0166203Y0123075D01*
X0165613Y0122484D01*
X0155613Y0122484D02*
X0155613Y0162484D01*
X0145613Y0162484D02*
X0145613Y0122484D01*
X0135613Y0122484D02*
X0135613Y0162484D01*
X0105613Y0162484D02*
X0105613Y0167484D01*
X0100613Y0172484D01*
X0070613Y0172484D01*
X0065613Y0167484D01*
X0065613Y0162484D01*
X0055613Y0162484D01*
X0050613Y0157484D01*
X0050613Y0142484D01*
X0052113Y0140984D01*
X0052113Y0137484D01*
X0050613Y0142484D02*
X0032581Y0142484D01*
X0027581Y0137484D01*
X0027581Y0057484D01*
X0021597Y0051618D02*
X0021597Y0142484D01*
X0035613Y0157484D01*
X0035613Y0172484D01*
X0040613Y0177484D01*
X0213565Y0177484D01*
X0215613Y0175437D01*
X0224628Y0172484D02*
X0295613Y0172484D01*
X0298841Y0175713D01*
X0334510Y0175713D01*
X0346361Y0163862D01*
X0346361Y0148154D01*
X0325613Y0137484D02*
X0317896Y0137484D01*
X0315613Y0139768D01*
X0325613Y0137484D02*
X0340613Y0122484D01*
X0340613Y0112484D01*
X0345613Y0107484D01*
X0350613Y0107484D01*
X0350613Y0117484D02*
X0350613Y0128114D01*
X0345337Y0133390D01*
X0337463Y0133390D01*
X0315809Y0155043D01*
X0315809Y0167130D01*
X0315613Y0167327D01*
X0305613Y0167327D02*
X0300770Y0167327D01*
X0295613Y0172484D01*
X0305613Y0167327D02*
X0305613Y0139768D01*
X0305613Y0137484D01*
X0310613Y0132484D01*
X0320613Y0132484D01*
X0334513Y0118584D01*
X0334513Y0093038D01*
X0334513Y0087937D01*
X0334210Y0087634D01*
X0334513Y0087331D01*
X0334513Y0082484D01*
X0344038Y0082484D01*
X0334513Y0082484D02*
X0334513Y0072484D01*
X0365613Y0072484D01*
X0380613Y0082484D02*
X0375613Y0087484D01*
X0380613Y0082484D02*
X0384038Y0082484D01*
X0334513Y0093038D02*
X0334510Y0093035D01*
X0295613Y0062484D02*
X0295613Y0032484D01*
X0285613Y0032484D02*
X0285613Y0062484D01*
X0275613Y0062484D02*
X0275613Y0032484D01*
X0265613Y0032484D02*
X0265613Y0062484D01*
X0255613Y0062484D02*
X0255613Y0032484D01*
X0245613Y0032484D02*
X0245613Y0062484D01*
X0235613Y0062484D02*
X0235613Y0032484D01*
X0225613Y0032484D02*
X0225613Y0062484D01*
X0215613Y0062484D02*
X0215613Y0027484D01*
X0205613Y0017484D01*
X0073644Y0017484D01*
X0065613Y0025516D01*
X0065613Y0032484D01*
X0065613Y0057484D01*
X0080613Y0057484D02*
X0105613Y0032484D01*
X0115613Y0032484D02*
X0115613Y0037484D01*
X0110613Y0042484D01*
X0105613Y0042484D01*
X0090613Y0057484D01*
X0090613Y0092484D01*
X0080613Y0092484D02*
X0080613Y0057484D01*
X0105613Y0057484D02*
X0105613Y0062484D01*
X0105613Y0057484D02*
X0125613Y0037484D01*
X0125613Y0032484D01*
X0135613Y0032484D02*
X0135613Y0037484D01*
X0115613Y0057484D01*
X0115613Y0062484D01*
X0125613Y0062484D02*
X0125613Y0083547D01*
X0108644Y0100516D01*
X0063644Y0100516D01*
X0060534Y0097406D01*
X0058413Y0097406D01*
X0050613Y0097406D02*
X0050613Y0102484D01*
X0053644Y0105516D01*
X0117581Y0105516D01*
X0135613Y0087484D01*
X0135613Y0062484D01*
X0145613Y0062484D02*
X0145613Y0032484D01*
X0155613Y0032484D02*
X0155613Y0062484D01*
X0155613Y0077524D01*
X0166203Y0088114D01*
X0195416Y0088114D01*
X0205613Y0097484D02*
X0190613Y0112484D01*
X0175613Y0122484D02*
X0175613Y0137906D01*
X0171597Y0141921D01*
X0185207Y0141921D01*
X0186518Y0143232D01*
X0125849Y0135358D02*
X0125849Y0122720D01*
X0125613Y0122484D01*
X0115613Y0122484D02*
X0115613Y0127484D01*
X0110613Y0132484D01*
X0085613Y0132484D01*
X0080613Y0127484D01*
X0080613Y0122484D01*
X0090613Y0122484D02*
X0105613Y0122484D01*
X0118723Y0142484D02*
X0125849Y0135358D01*
X0118723Y0142484D02*
X0110613Y0142484D01*
X0090613Y0142484D02*
X0085849Y0142248D01*
X0090613Y0142484D02*
X0080613Y0142484D01*
X0059113Y0137484D02*
X0059113Y0117677D01*
X0058920Y0117484D01*
X0070613Y0117484D01*
X0058920Y0117484D02*
X0055613Y0117484D01*
X0040613Y0132484D01*
X0035613Y0132484D01*
X0055613Y0117484D02*
X0042581Y0104453D01*
X0042581Y0090516D01*
X0045534Y0087563D01*
X0050613Y0087563D01*
X0050613Y0045984D01*
X0055543Y0038984D02*
X0058413Y0041854D01*
X0058413Y0087563D01*
X0070613Y0087484D02*
X0070613Y0092484D01*
X0070613Y0087484D02*
X0075613Y0082484D01*
X0075613Y0032484D01*
X0075613Y0027484D01*
X0079628Y0023469D01*
X0091676Y0023469D01*
X0091676Y0032484D02*
X0101676Y0022484D01*
X0200613Y0022484D01*
X0205613Y0027484D01*
X0205613Y0062484D01*
X0205613Y0097484D01*
X0215613Y0072484D02*
X0215613Y0062484D01*
X0195613Y0062484D02*
X0195613Y0032484D01*
X0185613Y0032484D02*
X0185613Y0062484D01*
X0175613Y0062484D02*
X0175613Y0032484D01*
X0165613Y0032484D02*
X0165613Y0062484D01*
X0155613Y0062484D02*
X0155376Y0062720D01*
X0091676Y0032484D02*
X0085613Y0032484D01*
X0055543Y0038984D02*
X0050613Y0038984D01*
X0050613Y0038902D01*
X0044156Y0038902D01*
X0034313Y0048744D01*
X0024471Y0048744D01*
X0021597Y0051618D01*
X0091676Y0007484D02*
X0385613Y0007484D01*
X0400613Y0022484D01*
X0400613Y0167484D01*
X0390416Y0177681D01*
X0366006Y0177681D01*
X0363644Y0175319D01*
X0363644Y0167681D01*
X0373644Y0167681D02*
X0373644Y0154295D01*
X0379786Y0148154D01*
X0386361Y0148154D01*
X0395613Y0155713D02*
X0383644Y0167681D01*
X0373880Y0167445D02*
X0373644Y0167681D01*
X0395613Y0155713D02*
X0395613Y0042484D01*
X0385613Y0032484D01*
X0382935Y0032484D01*
X0383723Y0031697D01*
X0383723Y0026106D01*
X0380613Y0022996D01*
X0380613Y0020516D01*
X0382935Y0032484D02*
X0365613Y0032484D01*
X0340613Y0020516D02*
X0325081Y0020516D01*
X0320613Y0024984D01*
D24*
X0265613Y0087484D03*
X0265613Y0110516D03*
X0224628Y0142484D03*
X0224628Y0172484D03*
X0090613Y0122484D03*
X0080613Y0122484D03*
X0070613Y0147484D03*
X0070613Y0092484D03*
X0080613Y0092484D03*
X0090613Y0092484D03*
X0065613Y0057484D03*
X0027581Y0057484D03*
X0091676Y0023469D03*
X0091676Y0007484D03*
D25*
X0029195Y0034965D03*
X0332345Y0153075D03*
M02*
