%
M48
M72
T01C0.02800
T02C0.03150
T03C0.03200
T04C0.03600
T05C0.03900
T06C0.04000
T07C0.04400
T08C0.08268
T09C0.09000
%
T01
X50613Y38984
X50613Y45984
X52113Y137484
X59113Y137484
T02
X70613Y147484
X80613Y122484
X90613Y122484
X90613Y92484
X80613Y92484
X70613Y92484
X65613Y57484
X27581Y57484
X91676Y23469
X91676Y7484
X265613Y87484
X265613Y110516
X224628Y142484
X224628Y172484
T03
X215613Y175437
X200613Y157484
X190613Y157484
X171597Y160921
X171597Y141921
X190613Y139453
X200613Y139453
X215613Y135437
X305613Y139768
X315613Y139768
X310613Y117484
X310613Y107484
X350613Y107484
X350613Y117484
X344038Y82484
X365613Y72484
X384038Y82484
X355613Y57484
X345613Y47484
X315613Y57484
X305613Y47484
X315613Y32484
X325613Y32484
X320613Y24984
X340613Y20516
X365613Y32484
X380613Y20516
X235416Y88114
X195416Y88114
X110613Y142484
X90613Y142484
X35613Y132484
X35613Y172484
X305613Y167327
X315613Y167327
T04
X58413Y97406
X50613Y97406
X50613Y87563
X58413Y87563
T05
X105613Y62484
X115613Y62484
X125613Y62484
X135613Y62484
X145613Y62484
X155613Y62484
X165613Y62484
X175613Y62484
X185613Y62484
X195613Y62484
X205613Y62484
X215613Y62484
X225613Y62484
X235613Y62484
X245613Y62484
X255613Y62484
X265613Y62484
X275613Y62484
X285613Y62484
X295613Y62484
X295613Y122484
X285613Y122484
X275613Y122484
X265613Y122484
X255613Y122484
X245613Y122484
X235613Y122484
X225613Y122484
X215613Y122484
X205613Y122484
X195613Y122484
X185613Y122484
X175613Y122484
X165613Y122484
X155613Y122484
X145613Y122484
X135613Y122484
X125613Y122484
X115613Y122484
X105613Y122484
T06
X65613Y32484
X75613Y32484
X85613Y32484
X105613Y32484
X115613Y32484
X125613Y32484
X135613Y32484
X145613Y32484
X155613Y32484
X165613Y32484
X175613Y32484
X185613Y32484
X195613Y32484
X225613Y32484
X235613Y32484
X245613Y32484
X255613Y32484
X265613Y32484
X275613Y32484
X285613Y32484
X295613Y32484
X315047Y87634
X334210Y87634
X375613Y107484
X375613Y117484
X375613Y127484
X373644Y167681
X363644Y167681
X383644Y167681
X285613Y162484
X275613Y162484
X265613Y162484
X255613Y162484
X245613Y162484
X235613Y162484
X155613Y162484
X145613Y162484
X135613Y162484
X125613Y162484
X115613Y162484
X105613Y162484
X85613Y162484
X75613Y162484
X65613Y162484
T07
X346361Y148154
X386361Y148154
X382935Y72484
X382935Y32484
T08
X332345Y153075
X29195Y34965
T09
X39913Y68784
X39913Y116184
M30
